<svg xmlns="http://www.w3.org/2000/svg" width="916.35302734375px" height="817.8096313476562px" style="shape-rendering:geometricPrecision;text-rendering:geometricPrecision;image-rendering:optimizeQuality;fill-rule:evenodd;clip-rule:evenodd" viewBox="0 0 916.35302734375 817.8096313476562"><path fill="none" d="M0 0h916.353v817.81H0z" style="fill:#0c1f3b;fill-opacity:0;pointer-events:none"/><defs><clipPath id="a" clipPathUnits="userSpaceOnUse"><path d="M0 841.89h595.28V0H0Z"/></clipPath><clipPath id="b" clipPathUnits="userSpaceOnUse"><path d="M0 841.89h595.28V0H0Z"/></clipPath></defs><g clip-path="url(#a)" transform="matrix(6.38967 0 0 -6.38967 -1464.643 1702.571)"><path d="M0 0c-1.954.002-3.91.002-5.867.002a1.966 1.966 0 0 1-1.498-.649c-2.571-2.922-5.156-5.804-7.747-8.693-.004 3.115-.01 6.228-.013 9.346h-5.698l-.022-22.525c1.917.019 3.835.016 5.752-.007l-.015 9.968a985.051 985.051 0 0 0 7.748-9.501c.332-.45.854-.698 1.554-.731 2.007-.087 4.017-.2 6.022-.328A613.529 613.529 0 0 1-9.89-10.875C-6.579-7.298-3.28-3.702 0 0" style="fill:#1d1d1b;fill-opacity:1;fill-rule:nonzero;stroke:none" transform="translate(317.746 611.145)"/><path d="M0 0a2054.641 2054.641 0 0 1-4.148-21.266A3041.228 3041.228 0 0 0-7.585-.023l-8.58-.023a2154.873 2154.873 0 0 1-3.814-24.2A3687.978 3687.978 0 0 0-23.792-.069c-2.014-.006-4.026-.015-6.037-.02a3016.981 3016.981 0 0 1 5.725-31.995c2.72.72 5.445 1.4 8.179 2.042a1941.946 1941.946 0 0 0 4 23.385 2987.774 2987.774 0 0 1 3.57-21.717c2.767.569 5.541 1.1 8.319 1.585A1725.423 1725.423 0 0 0 5.99.01C3.993.006 1.996.001 0 0" style="fill:#1d1d1b;fill-opacity:1;fill-rule:nonzero;stroke:none" transform="translate(249.55 611.099)"/><path d="M0 0a1648.93 1648.93 0 0 0 2.554 9.076A1397.04 1397.04 0 0 1 4.93.347 546.696 546.696 0 0 1 0 0m-1.048 14.109A1208.39 1208.39 0 0 1-8.66-12.15c.05.001.087-.014.14-.006 1.909.317 3.824.608 5.737.881.587 2.097 1.175 4.168 1.761 6.221 2.515.267 5.033.503 7.551.717.007 0 .046-.028.089-.103.517-1.836 1.034-3.662 1.552-5.48 1.969.205 3.936.387 5.908.556a1253.635 1253.635 0 0 0-7.076 23.486c-2.685-.006-5.368-.011-8.05-.013" style="fill:#1d1d1b;fill-opacity:1;fill-rule:nonzero;stroke:none" transform="translate(261.238 597.008)"/><path d="M0 0c-.019-1.954 1.365-4.895 5.161-4.646 2.013.125 4.024.228 6.039.31.988.038 1.827.26 2.65.702 1.57.873 3.137 1.723 4.703 2.559-.007.458-.014.914-.023 1.372-4.053-.05-8.105-.166-12.154-.35-.002-.002-.002 0-.005 0a.53.53 0 0 0-.575.514l.007 17.948c-1.921-.006-3.838-.008-5.759-.008Z" style="fill:#1d1d1b;fill-opacity:1;fill-rule:nonzero;stroke:none" transform="translate(276.373 592.738)"/><path d="M0 0c-3.567.182-7.139.336-10.714.465a.595.595 0 0 0-.545.533c-.012 1.206-.021 2.412-.031 3.617.038.277.268.49.562.488 3.769-.073 7.539-.153 11.307-.26l-.055 4.92c-3.01.004-6.015.01-9.023.015a4.93 4.93 0 0 1-2.489-.666 286.477 286.477 0 0 0-3.59-1.948c-1.714-.986-2.576-2.458-2.562-4.396l.084-11.304c.018-2.448 2.009-5.102 5.306-5.386 2.329-.194 4.656-.424 6.979-.674.983-.112 1.835.009 2.6.368 1.193.529 2.389 1.062 3.581 1.601l-.03 2.215c-3.99.427-7.986.78-11.986 1.066a.623.623 0 0 0-.562.564 1361.11 1361.11 0 0 0-.04 4.021.521.521 0 0 0 .523.482c3.585-.19 7.169-.416 10.742-.687z" style="fill:#1d1d1b;fill-opacity:1;fill-rule:nonzero;stroke:none" transform="translate(334.873 601.331)"/><path d="M0 0c-.002 0-.002.002-.002.002-.322.025-.584.322-.59.67l-.002.01C-.61 2.318-.629 3.955-.647 5.591c.008.33.241.577.539.589 2.219-.076 4.439-.153 6.658-.239.29-.03.516-.298.54-.629.021-1.746.037-3.497.057-5.244-.02-.337-.26-.589-.565-.563h-.003A654.67 654.67 0 0 1 0 0m10.298-3.175c1.774.995 2.66 2.714 2.638 5.065a3328.59 3328.59 0 0 1-.043 4.425c-.035 3.651-2.748 5.328-4.57 5.314-.307-.003-.665-.062-1.045-.13A366.118 366.118 0 0 0-.379 9.784c-.18.011-.306.144-.325.358l-.013 1.155-5.728.01.294-25.12c1.914-.262 3.826-.542 5.736-.841l-.099 8.947c-.002.335.234.575.537.561 1.094-.11 2.183-.225 3.275-.343.136-.017.205-.067.274-.214a429.024 429.024 0 0 0 4.598-9.431c.26-.682.792-1.154 1.455-1.279 1.877-.364 3.753-.745 5.625-1.149A401.382 401.382 0 0 1 8.856-4.026c.482.281.962.565 1.442.851" style="fill:#1d1d1b;fill-opacity:1;fill-rule:nonzero;stroke:none" transform="translate(344.253 599.812)"/><path d="M0 0c-3.417.01-8.589.02-12.004.031a4.25 4.25 0 0 1-2.553-.85 201.488 201.488 0 0 0-3.667-2.468c-1.694-1.192-2.538-3.005-2.518-5.455.006-.774.014-1.551.019-2.329.037-3.601 2.315-6.622 5.296-7.071 2.435-.342 5.516-.751 7.942-1.136.316-.058.565-.442.569-.864-.004-.01.002-.01.002-.02.006-1.721.012-3.443.016-5.166 0-.011-.004-.007-.004-.014.002-.404-.23-.683-.53-.655-3.966.839-8.6 1.657-12.592 2.359.015-1.933.031-3.862.049-5.794 3.169-.692 6.985-1.485 10.139-2.289.942-.24 1.801-.179 2.548.202 1.205.59 2.413 1.199 3.621 1.828 1.67.943 2.556 2.975 2.556 5.805v3.094c.001 4.676-2.728 7.842-5.258 8.08-2.432.26-5.51.547-7.945.78-.303.037-.547.369-.563.757-.009 1.498-.019 2.989-.03 4.491.011.377.248.674.556.674 3.733-.186 8.651-.386 12.384-.6z" style="fill:#1d1d1b;fill-opacity:1;fill-rule:nonzero;stroke:none" transform="translate(380.61 611.44)"/><path d="M0 0c-.758 0-1.157-.491-1.418-.908L-6.299-9.7l-4.87 8.831c-.35.554-.893.869-1.49.869h-8.318c-.601 0-1.109-.228-1.526-.702l-7.902-9.428V0h-5.801v-24.428h5.801v10.807l7.803-10.091c.332-.477.857-.716 1.563-.716h6.081l-10.155 12.693 8.199 9.521 7.508-12.485c.138-.233.207-.443.207-.654v-9.075h5.803v9.075c0 .209.067.421.206.654L5.816 0Z" style="fill:#1d1d1b;fill-opacity:1;fill-rule:nonzero;stroke:none" transform="translate(326.476 639.495)"/><path d="M0 0h11.292l1.405 4.797H2.398c-.921 0-1.821-.236-2.569-.682l-3.709-2.04C-5.589 1.058-6.456-.486-6.456-2.524v-1.94c0-3.016 2.275-5.289 5.29-5.289H6.22a.589.589 0 0 0 .572-.584c0-.008.005-.008.005-.016v-3.888c0-.008-.005-.008-.005-.013a.582.582 0 0 0-.539-.576H-5.862v-4.801h9.635c.962 0 1.84.224 2.604.654l3.703 2.037c1.71.999 2.611 2.603 2.611 4.63v2.223c0 3.327-2.761 5.385-5.322 5.385l-7.364.004a.585.585 0 0 0-.567.563v3.574A.59.59 0 0 0 0 0" style="fill:#1d1d1b;fill-opacity:1;fill-rule:nonzero;stroke:none" transform="translate(275.343 634.697)"/><path d="M0 0c0-.083-.058-.118-.145-.118h-.8c-.094 0-.128.035-.128.123v2.178c0 .105-.069.157-.17.157h-2.098c-.091 0-.148-.052-.148-.157V.005c0-.088-.05-.123-.136-.123h-.817c-.075 0-.109.035-.109.118v5.41c0 .084.034.131.109.131h.817c.086 0 .136-.047.136-.131V3.316c0-.1.057-.149.148-.149h2.098c.101 0 .17.049.17.149V5.41c0 .084.034.131.128.131h.8c.087 0 .145-.047.145-.131Z" style="fill:#1d1d1b;fill-opacity:1;fill-rule:nonzero;stroke:none" transform="translate(275.077 644.92)"/><path d="M0 0a.887.887 0 0 0-.903.891v3.358c0 .102.041.148.133.148H0c.077 0 .132-.046.132-.148V1.002C.132.91.17.861.276.861h1.409c.095 0 .155.049.155.141v3.247c0 .102.039.148.128.148h.772c.086 0 .14-.046.14-.148V-.653a.812.812 0 0 0-.094-.352l-.524-.854c-.045-.079-.113-.123-.192-.123h-.102c-.089 0-.128.051-.128.139V.326c0 .091-.053.132-.14.105L.226.017C.156 0 .069 0 0 0" style="fill:#1d1d1b;fill-opacity:1;fill-rule:nonzero;stroke:none" transform="translate(277.008 644.724)"/><path d="M0 0a.887.887 0 0 0-.884.884v3.354c0 .102.034.148.128.148h.777c.069 0 .124-.046.124-.148V.991c0-.093.048-.13.157-.13H1.71c.089 0 .155.037.155.13v3.247c0 .102.027.148.119.148h.771c.083 0 .136-.046.136-.148V.184c0-.083-.053-.118-.136-.118h-.771c-.092 0-.119.035-.119.123v.126c0 .099-.066.139-.152.104L.236.022C.16 0 .075 0 0 0" style="fill:#1d1d1b;fill-opacity:1;fill-rule:nonzero;stroke:none" transform="translate(281.803 644.735)"/><path d="M0 0v-3.373c0-.083-.054-.117-.138-.117h-.769c-.095 0-.124.034-.124.123v3.248c0 .102-.062.156-.151.156h-1.413c-.104 0-.154-.054-.154-.156v-3.248c0-.089-.05-.123-.123-.123h-.775c-.093 0-.134.034-.134.117V.681c0 .102.041.148.134.148h.775c.073 0 .123-.046.123-.148V.554c0-.089.04-.121.154-.095l1.471.404c.077.01.149.036.224.036.51 0 .9-.425.9-.899" style="fill:#1d1d1b;fill-opacity:1;fill-rule:nonzero;stroke:none" transform="translate(289.506 648.292)"/><path d="M0 0v2.44c0 .108-.049.162-.154.162h-1.423c-.108 0-.144-.054-.144-.162V0c0-.093.036-.13.144-.13h1.423C-.049-.13 0-.093 0 0m-2.753-.106v1.939c0 .417.172.732.546.932l.813.474c.173.11.339.156.539.156h.714c.092 0 .141.039.141.128v1.595c0 .084.041.149.114.149H.9c.095 0 .133-.065.133-.149V-.807c0-.084-.038-.118-.133-.118H.114C.041-.925 0-.891 0-.802v.126c0 .098-.049.138-.141.104L-1.632-.97c-.082-.021-.154-.021-.23-.021-.401-.017-.891.352-.891.885" style="fill:#1d1d1b;fill-opacity:1;fill-rule:nonzero;stroke:none" transform="translate(293.137 645.727)"/><path d="M0 0v2.44c0 .108-.055.162-.154.162h-1.422c-.11 0-.147-.054-.147-.162V0c0-.093.037-.13.147-.13h1.422C-.055-.13 0-.093 0 0m-1.864-.991a.893.893 0 0 0-.892.885v1.939c0 .417.175.732.538.932l.824.474c.17.11.335.156.532.156h1.76c.086 0 .131-.046.131-.148V-.807c0-.084-.045-.118-.131-.118H.114C.029-.925 0-.891 0-.802v.126c0 .098-.055.138-.154.104L-1.633-.97c-.084-.021-.152-.021-.231-.021" style="fill:#1d1d1b;fill-opacity:1;fill-rule:nonzero;stroke:none" transform="translate(297.802 645.727)"/><path d="M0 0c0-.083-.053-.118-.129-.118h-.768c-.104 0-.13.035-.13.118v4.054c0 .102.026.148.13.148h.768c.076 0 .129-.046.129-.148Zm0 5.294c0-.095-.053-.125-.129-.125h-.768c-.104 0-.13.03-.13.125v.633c0 .082.026.147.13.147h.768c.076 0 .129-.065.129-.147Z" style="fill:#1d1d1b;fill-opacity:1;fill-rule:nonzero;stroke:none" transform="translate(300.893 644.92)"/><path d="M0 0v2.919c0 .429.186.759.565.982l.899.5c.164.1.353.147.534.147h1.908c.089 0 .138-.047.138-.138v-.56c0-.085-.049-.129-.138-.129H1.231c-.091 0-.127-.049-.127-.148v-3.71c0-.102.036-.146.127-.146h2.751c.082 0 .136-.044.136-.116a.227.227 0 0 0-.123-.203l-.662-.367a1.095 1.095 0 0 0-.545-.141H1.125C.579-1.11 0-.714 0 0" style="fill:#1d1d1b;fill-opacity:1;fill-rule:nonzero;stroke:none" transform="translate(303.05 645.912)"/><path d="M0 0v2.44c0 .108-.055.162-.156.162h-1.421c-.108 0-.149-.054-.149-.162V0c0-.093.041-.13.149-.13h1.421C-.055-.13 0-.093 0 0m-1.862-.991a.893.893 0 0 0-.894.885v1.939c0 .417.176.732.535.932l.825.474c.169.11.337.156.531.156H.899c.083 0 .131-.046.131-.148V-.807c0-.084-.048-.118-.131-.118H.116C.03-.925 0-.891 0-.802v.126c0 .098-.055.138-.156.104L-1.629-.97c-.087-.021-.156-.021-.233-.021" style="fill:#1d1d1b;fill-opacity:1;fill-rule:nonzero;stroke:none" transform="translate(310.566 645.727)"/><path d="M0 0v2.44c0 .108-.051.162-.15.162h-1.419c-.108 0-.148-.054-.148-.162V0c0-.093.04-.13.148-.13H-.15c.099 0 .15.037.15.13m1.032 2.565V.617c0-.411-.178-.714-.53-.931l-.838-.479A1.016 1.016 0 0 0-.86-.925h-.709c-.108 0-.148-.06-.148-.163v-1.554c0-.098-.053-.151-.129-.151h-.78c-.091 0-.128.053-.128.151v5.889c0 .102.037.148.128.148h.78c.076 0 .129-.046.129-.148v-.128c0-.089.04-.121.148-.095l1.468.405c.088.009.171.035.241.035a.901.901 0 0 0 .892-.899" style="fill:#1d1d1b;fill-opacity:1;fill-rule:nonzero;stroke:none" transform="translate(315.382 645.727)"/><path d="M0 0c0-.083-.054-.118-.133-.118h-.766c-.101 0-.135.035-.135.118v4.054c0 .102.034.148.135.148h.766c.079 0 .133-.046.133-.148Zm0 5.294c0-.095-.054-.125-.133-.125h-.766c-.101 0-.135.03-.135.125v.633c0 .082.034.147.135.147h.766c.079 0 .133-.065.133-.147Z" style="fill:#1d1d1b;fill-opacity:1;fill-rule:nonzero;stroke:none" transform="translate(318.322 644.92)"/><path d="M0 0c-.645 0-1.068.531-1.068 1.06v3.89c0 .092.028.144.122.185l.791.197c.073.019.131-.017.131-.089v-.811c0-.073.035-.107.101-.107h1.404c.095 0 .144-.046.144-.148v-.528c0-.078-.049-.117-.144-.117H.115c-.098 0-.139-.053-.139-.161V.931c0-.093.041-.13.139-.13h1.526c.097 0 .144-.044.144-.131 0-.076-.038-.129-.122-.179L1.057.129A1.024 1.024 0 0 0 .514 0Z" style="fill:#1d1d1b;fill-opacity:1;fill-rule:nonzero;stroke:none" transform="translate(320.422 644.796)"/><path d="M0 0v2.44c0 .108-.051.162-.154.162h-1.418c-.113 0-.152-.054-.152-.162V0c0-.093.039-.13.152-.13h1.418C-.051-.13 0-.093 0 0m-1.861-.991a.892.892 0 0 0-.893.885v1.939c0 .417.174.732.539.932l.823.474c.167.11.339.156.531.156H.903c.083 0 .131-.046.131-.148V-.807c0-.084-.048-.118-.131-.118H.116C.033-.925 0-.891 0-.802v.126c0 .098-.051.138-.154.104L-1.635-.97c-.079-.021-.15-.021-.226-.021" style="fill:#1d1d1b;fill-opacity:1;fill-rule:nonzero;stroke:none" transform="translate(325.602 645.727)"/><path d="M0 0c0-.083-.055-.118-.119-.118h-.774c-.101 0-.139.035-.139.118v5.927c0 .082.038.147.139.147h.774c.064 0 .119-.065.119-.147Z" style="fill:#1d1d1b;fill-opacity:1;fill-rule:nonzero;stroke:none" transform="translate(328.697 644.92)"/><path d="M0 0h-6.664v39.632h-87.393V.002h-6.664v46.295H0Z" style="fill:#1d1d1b;fill-opacity:1;fill-rule:nonzero;stroke:none" transform="translate(349.972 615.062)"/><path d="m0 0-50.354 26.009v35.955l.797.131c1.604.264 3.199.511 4.779.742l1.088.158V30.068L0 7.5l43.703 22.568V63.11l1.117-.199c1.661-.292 3.25-.586 4.775-.875l.772-.147V26.007Z" style="fill:#1d1d1b;fill-opacity:1;fill-rule:nonzero;stroke:none" transform="translate(299.605 518.033)"/><path d="M0 0a267.31 267.31 0 0 1-25.891-2.149l-.009-30.229L0-45.856Z" style="fill:#1d1d1b;fill-opacity:1;fill-rule:nonzero;stroke:none" transform="translate(286.75 583.81)"/><path d="M0 0c8.16-.283 16.823-.946 25.895-2.149l.006-30.229L0-45.856Z" style="fill:#0082ca;fill-opacity:1;fill-rule:nonzero;stroke:none" transform="translate(312.531 583.81)"/><path d="M0 0h-.002Z" style="fill:#1d1d1b;fill-opacity:1;fill-rule:nonzero;stroke:none" transform="translate(286.015 583.8)"/><path d="M0 0c-7.933.5-16.502.327-25.781 0v-45.856l12.859-6.045L0-45.856Z" style="fill:#fff;fill-opacity:1;fill-rule:nonzero;stroke:none" transform="translate(312.531 583.81)"/></g><text style="font-variant:normal;font-weight:700;font-stretch:normal;font-size:18px;font-family:&quot;YouandiModern TextBold&quot;;writing-mode:lr-tb;fill:#575756;fill-opacity:1;fill-rule:nonzero;stroke:none" transform="matrix(6.38967 0 0 6.38967 -1240.355 -3293.652)"><tspan x="0" y="0">엠블럼</tspan></text><g clip-path="url(#b)" transform="matrix(6.38967 0 0 -6.38967 -1464.643 1702.571)"><path d="m0 0 3.667 12.329h-26.276v40.933h-89.372V12.329h-24.852s3.842-22.194 5.39-30.58l.667-3.594s6.984 2.191 18.795 4.336V-48.39L-67.3-71.473l44.691 23.078v30.875a213.24 213.24 0 0 0 8.28-1.763c1.562-.342 3.162-.699 4.555-1.057a6.97 6.97 0 0 1 1.718-.221c.965 0 1.879.216 2.721.641 1.028.501 2.049 1.015 3.023 1.524l.05.028.051.027c1.425.803 3.819 2.877 3.819 7.711v2.534c0 3.357-1.341 6.371-3.401 8.199z" style="fill:#fff;fill-opacity:1;fill-rule:nonzero;stroke:none" transform="translate(367.476 211.648)"/><path d="M0 0c-1.6.003-3.202.003-4.811.003-.483 0-.892-.17-1.227-.529a918.496 918.496 0 0 0-6.351-7.127l-.013 7.659h-4.669c-.01-6.155-.014-12.311-.019-18.469 1.572.012 3.143.012 4.714-.008-.004 2.725-.008 5.45-.008 8.173a849.487 849.487 0 0 0 6.351-7.788c.27-.372.698-.575 1.272-.601 1.651-.069 3.295-.161 4.941-.269A504.518 504.518 0 0 1-8.106-8.915 567.808 567.808 0 0 1 0 0" style="fill:#1d1d1b;fill-opacity:1;fill-rule:nonzero;stroke:none" transform="translate(315.05 220.358)"/><path d="M0 0a1688.478 1688.478 0 0 1-3.401-17.441A2383.91 2383.91 0 0 0-6.223-.02c-2.343-.007-4.688-.015-7.036-.019a1833.006 1833.006 0 0 1-3.124-19.846A2971.872 2971.872 0 0 0-19.513-.06c-1.648 0-3.299-.009-4.949-.014a2442.58 2442.58 0 0 1 4.696-26.238c2.229.59 4.463 1.153 6.705 1.674A1535.537 1535.537 0 0 0-9.779-5.461c.977-6.102 1.957-12.035 2.927-17.806 2.27.465 4.544.9 6.82 1.296A1403.16 1403.16 0 0 0 4.912.008C3.275.006 1.635 0 0 0" style="fill:#1d1d1b;fill-opacity:1;fill-rule:nonzero;stroke:none" transform="translate(259.13 220.323)"/><path d="M0 0c.698 2.514 1.397 4.991 2.095 7.44A1225.92 1225.92 0 0 1 4.043.28C2.697.194 1.346.1 0 0m-.86 11.568A975.876 975.876 0 0 1-7.1-9.966c.037.003.069-.01.111-.005 1.566.26 3.138.5 4.705.72.481 1.725.965 3.419 1.443 5.105 2.063.222 4.126.412 6.194.584.005 0 .038-.017.075-.08.421-1.506.844-3.004 1.272-4.496 1.613.172 3.225.319 4.843.457a1059.756 1059.756 0 0 0-5.804 19.264c-2.201-.008-4.402-.011-6.599-.015" style="fill:#1d1d1b;fill-opacity:1;fill-rule:nonzero;stroke:none" transform="translate(268.716 208.769)"/><path d="M0 0c-.019-1.602 1.117-4.017 4.232-3.812 1.649.105 3.299.188 4.95.256.808.032 1.498.212 2.173.577 1.288.714 2.574 1.412 3.856 2.099-.005.375-.01.748-.019 1.123a306.923 306.923 0 0 1-9.967-.285.43.43 0 0 0-.473.419l.004 14.718c-1.576-.003-3.149-.008-4.725-.008Z" style="fill:#1d1d1b;fill-opacity:1;fill-rule:nonzero;stroke:none" transform="translate(281.128 205.267)"/><path d="M0 0c-2.928.149-5.854.274-8.786.382a.487.487 0 0 0-.451.434c-.004.991-.014 1.981-.018 2.97a.45.45 0 0 0 .459.398c3.088-.058 6.182-.128 9.269-.216L.428 8.006c-2.469.004-4.933.01-7.4.012a4.085 4.085 0 0 1-2.041-.544 191.63 191.63 0 0 0-2.945-1.603c-1.401-.808-2.109-2.013-2.1-3.599l.07-9.272c.013-2.006 1.649-4.186 4.351-4.419 1.911-.157 3.819-.345 5.721-.552.809-.092 1.508.008 2.133.303.977.433 1.962.872 2.936 1.314-.005.606-.014 1.213-.022 1.816-3.273.351-6.549.639-9.831.872a.512.512 0 0 0-.459.464c-.014 1.099-.024 2.2-.032 3.295a.42.42 0 0 0 .428.395 391.65 391.65 0 0 0 8.809-.557z" style="fill:#1d1d1b;fill-opacity:1;fill-rule:nonzero;stroke:none" transform="translate(329.1 212.314)"/><path d="M0 0h-.004c-.262.021-.477.262-.482.55v.008C-.5 1.897-.518 3.241-.527 4.584c0 .27.192.472.436.481 1.824-.061 3.64-.126 5.464-.196.234-.023.422-.243.441-.515.018-1.432.028-2.867.045-4.299-.017-.275-.211-.483-.463-.463A541.56 541.56 0 0 1 0 0m8.442-2.604c1.457.814 2.184 2.223 2.164 4.154-.008 1.206-.021 2.416-.031 3.629-.032 2.992-2.257 4.369-3.75 4.356-.253-.003-.546-.053-.855-.105A306.36 306.36 0 0 0-.312 8.02c-.147.011-.248.118-.265.295-.006.318-.011.63-.011.948-1.566 0-3.129.006-4.695.009.078-6.87.155-13.734.238-20.599 1.572-.218 3.139-.446 4.706-.692l-.083 7.336c0 .276.193.471.443.46a215.42 215.42 0 0 0 2.682-.281c.11-.016.17-.056.225-.175a345.09 345.09 0 0 0 3.768-7.734c.216-.56.653-.944 1.196-1.047 1.539-.301 3.078-.612 4.614-.942A337.67 337.67 0 0 1 7.262-3.304c.395.235.79.464 1.18.7" style="fill:#1d1d1b;fill-opacity:1;fill-rule:nonzero;stroke:none" transform="translate(336.791 211.068)"/><path d="M0 0c-2.805.008-7.045.015-9.849.024a3.47 3.47 0 0 1-2.09-.697 174.095 174.095 0 0 0-3.01-2.021c-1.389-.978-2.076-2.467-2.064-4.474.009-.635.015-1.275.019-1.912.027-2.952 1.897-5.43 4.343-5.8 1.994-.276 4.521-.612 6.511-.929.258-.05.464-.363.464-.708 0-.01.004-.01.004-.017l.015-4.235c0-.011-.004-.006-.004-.014 0-.33-.19-.561-.438-.537-3.248.687-7.048 1.362-10.326 1.937.015-1.588.029-3.167.042-4.752 2.596-.569 5.731-1.218 8.313-1.878.777-.196 1.481-.149 2.091.169.988.482 1.981.977 2.973 1.493 1.364.776 2.092 2.444 2.092 4.765v2.537c.004 3.831-2.239 6.429-4.311 6.624-1.995.214-4.517.447-6.512.64-.248.03-.451.303-.464.623-.009 1.224-.019 2.449-.024 3.679.01.312.203.551.455.551 3.062-.152 7.096-.312 10.157-.492z" style="fill:#1d1d1b;fill-opacity:1;fill-rule:nonzero;stroke:none" transform="translate(366.607 220.603)"/><path d="M0 0c-.624 0-.95-.404-1.167-.747l-3.998-7.211-3.998 7.243c-.284.455-.73.715-1.222.715h-6.82c-.491 0-.909-.189-1.25-.58l-6.481-7.731V0h-4.759v-20.035h4.759v8.865l6.399-8.278c.27-.391.702-.587 1.281-.587h4.986l-8.327 10.407 6.724 7.812 6.157-10.242c.115-.187.171-.362.171-.534v-7.443h4.761v7.443c0 .172.05.347.165.534L4.766 0Z" style="fill:#1d1d1b;fill-opacity:1;fill-rule:nonzero;stroke:none" transform="translate(322.215 243.611)"/><path d="M0 0h9.259l1.15 3.937H1.967a4.136 4.136 0 0 1-2.11-.563L-3.185 1.7C-4.586.867-5.299-.397-5.299-2.071v-1.591c0-2.475 1.87-4.333 4.344-4.333h6.056a.489.489 0 0 0 .468-.484c0-.004.005-.004.005-.009v-3.19c0-.006-.005-.006-.005-.011a.477.477 0 0 0-.44-.471h-9.936v-3.939h7.899c.791 0 1.508.185 2.134.54l3.041 1.667c1.397.82 2.136 2.132 2.136 3.799v1.82c0 2.729-2.265 4.417-4.36 4.417L0-3.853a.481.481 0 0 0-.465.461V-.46A.49.49 0 0 0 0 0" style="fill:#1d1d1b;fill-opacity:1;fill-rule:nonzero;stroke:none" transform="translate(280.282 239.675)"/><path d="M0 0c0-.07-.046-.098-.115-.098h-.662c-.074 0-.1.028-.1.1v1.785c0 .087-.06.128-.144.128h-1.717c-.075 0-.125-.041-.125-.128V.002c0-.072-.037-.1-.111-.1h-.666c-.064 0-.091.028-.091.098v4.434c0 .068.027.107.091.107h.666c.074 0 .111-.039.111-.107V2.717c0-.08.05-.122.125-.122h1.717c.084 0 .144.042.144.122v1.717c0 .068.026.107.1.107h.662c.069 0 .115-.039.115-.107Z" style="fill:#1d1d1b;fill-opacity:1;fill-rule:nonzero;stroke:none" transform="translate(280.062 248.043)"/><path d="M0 0a.726.726 0 0 0-.741.729v2.754c0 .085.032.126.105.126H0c.059 0 .104-.041.104-.126V.824c0-.08.033-.12.12-.12h1.153c.078 0 .128.04.128.12v2.659c0 .085.033.126.107.126h.634c.068 0 .114-.041.114-.126V-.535a.65.65 0 0 0-.077-.285l-.433-.705a.175.175 0 0 0-.156-.098h-.082c-.074 0-.107.043-.107.113V.267c0 .078-.045.11-.114.087L.183.015C.127 0 .054 0 0 0" style="fill:#1d1d1b;fill-opacity:1;fill-rule:nonzero;stroke:none" transform="translate(281.648 247.88)"/><path d="M0 0a.727.727 0 0 0-.722.728v2.746c0 .085.028.118.102.118h.639c.059 0 .1-.033.1-.118V.814c0-.08.037-.107.129-.107h1.153c.074 0 .129.027.129.107v2.66c0 .085.023.118.096.118h.636c.068 0 .109-.033.109-.118V.152c0-.07-.041-.097-.109-.097h-.636c-.073 0-.096.027-.096.099v.103c0 .083-.055.115-.124.088L.197.02C.134 0 .064 0 0 0" style="fill:#1d1d1b;fill-opacity:1;fill-rule:nonzero;stroke:none" transform="translate(285.576 247.89)"/><path d="M0 0v-2.768c0-.07-.047-.097-.115-.097h-.63c-.078 0-.102.027-.102.099v2.662c0 .086-.05.131-.124.131h-1.158c-.086 0-.128-.045-.128-.131v-2.662c0-.072-.037-.099-.1-.099h-.636c-.073 0-.11.027-.11.097V.554c0 .085.037.126.11.126h.636c.063 0 .1-.041.1-.126V.452c0-.073.036-.1.128-.077l1.205.332c.065.008.124.027.188.027A.743.743 0 0 0 0 0" style="fill:#1d1d1b;fill-opacity:1;fill-rule:nonzero;stroke:none" transform="translate(291.896 250.81)"/><path d="M0 0v1.997c0 .091-.042.136-.129.136h-1.163c-.092 0-.12-.045-.12-.136V0c0-.08.028-.107.12-.107h1.163C-.042-.107 0-.08 0 0m-2.257-.087v1.589c0 .341.139.603.445.763l.666.39a.796.796 0 0 0 .443.122h.587c.074 0 .116.037.116.111v1.309c0 .068.031.122.092.122H.74c.072 0 .106-.054.106-.122V-.662C.846-.732.812-.76.74-.76H.092C.031-.76 0-.732 0-.66v.102c0 .083-.042.116-.116.088l-1.221-.325c-.07-.019-.13-.019-.189-.019a.743.743 0 0 0-.731.727" style="fill:#1d1d1b;fill-opacity:1;fill-rule:nonzero;stroke:none" transform="translate(294.873 248.705)"/><path d="M0 0v1.997c0 .091-.05.136-.128.136h-1.168c-.092 0-.119-.045-.119-.136V0c0-.08.027-.107.119-.107h1.168C-.05-.107 0-.08 0 0m-1.53-.814a.737.737 0 0 0-.736.727v1.589c0 .341.148.603.447.763l.675.39a.757.757 0 0 0 .432.122H.735c.07 0 .106-.033.106-.118V-.662c0-.07-.036-.098-.106-.098H.092C.02-.76 0-.732 0-.66v.102c0 .083-.05.116-.128.088l-1.213-.325c-.069-.019-.125-.019-.189-.019" style="fill:#1d1d1b;fill-opacity:1;fill-rule:nonzero;stroke:none" transform="translate(298.7 248.705)"/><path d="M0 0c0-.07-.041-.098-.105-.098h-.63c-.087 0-.106.028-.106.098v3.321c0 .085.019.118.106.118h.63c.064 0 .105-.033.105-.118Zm0 4.337c0-.072-.041-.098-.105-.098h-.63c-.087 0-.106.026-.106.098v.522c0 .068.019.122.106.122h.63c.064 0 .105-.054.105-.122Z" style="fill:#1d1d1b;fill-opacity:1;fill-rule:nonzero;stroke:none" transform="translate(301.232 248.043)"/><path d="M0 0v2.395c0 .349.152.619.464.804l.741.41c.133.08.284.12.436.12h1.562c.073 0 .115-.04.115-.113v-.459c0-.07-.042-.105-.115-.105H1.011c-.078 0-.106-.04-.106-.122V-.109c0-.088.028-.121.106-.121h2.257c.068 0 .11-.035.11-.097a.178.178 0 0 0-.102-.165l-.541-.303a.918.918 0 0 0-.446-.115H.924C.474-.91 0-.588 0 0" style="fill:#1d1d1b;fill-opacity:1;fill-rule:nonzero;stroke:none" transform="translate(303.002 248.856)"/><path d="M0 0v1.997c0 .091-.046.136-.129.136h-1.162c-.088 0-.124-.045-.124-.136V0c0-.08.036-.107.124-.107h1.162C-.046-.107 0-.08 0 0m-1.525-.814c-.4 0-.735.322-.735.727v1.589c0 .341.146.603.441.763l.674.39a.77.77 0 0 0 .438.122H.736c.069 0 .111-.033.111-.118V-.662c0-.07-.042-.098-.111-.098H.097C.027-.76 0-.732 0-.66v.102c0 .083-.046.116-.129.088l-1.204-.325c-.073-.019-.128-.019-.192-.019" style="fill:#1d1d1b;fill-opacity:1;fill-rule:nonzero;stroke:none" transform="translate(309.164 248.705)"/><path d="M0 0v1.997c0 .091-.046.136-.125.136h-1.161c-.092 0-.124-.045-.124-.136V0c0-.08.032-.107.124-.107h1.161C-.046-.107 0-.08 0 0m.846 2.105v-1.6C.846.165.698-.08.409-.26l-.684-.394A.864.864 0 0 0-.707-.76h-.579c-.092 0-.124-.05-.124-.132v-1.275c0-.08-.042-.127-.107-.127h-.638c-.074 0-.106.047-.106.127v4.826c0 .085.032.118.106.118h.638c.065 0 .107-.033.107-.118v-.101c0-.074.032-.101.124-.078l1.204.333c.068.007.138.027.197.027a.738.738 0 0 0 .731-.735" style="fill:#1d1d1b;fill-opacity:1;fill-rule:nonzero;stroke:none" transform="translate(313.116 248.705)"/><path d="M0 0c0-.07-.042-.098-.11-.098h-.625c-.082 0-.111.028-.111.098v3.321c0 .085.029.118.111.118h.625c.068 0 .11-.033.11-.118Zm0 4.337c0-.072-.042-.098-.11-.098h-.625c-.082 0-.111.026-.111.098v.522c0 .068.029.122.111.122h.625c.068 0 .11-.054.11-.122Z" style="fill:#1d1d1b;fill-opacity:1;fill-rule:nonzero;stroke:none" transform="translate(315.524 248.043)"/><path d="M0 0a.874.874 0 0 0-.878.87v3.189c0 .078.028.12.101.151l.648.161c.061.018.106-.015.106-.069v-.667c0-.058.032-.093.086-.093h1.15c.078 0 .119-.033.119-.118v-.43c0-.064-.041-.097-.119-.097H.096c-.083 0-.119-.044-.119-.135V.765c0-.08.036-.108.119-.108h1.251c.076 0 .119-.034.119-.106 0-.064-.033-.107-.102-.15L.863.104A.839.839 0 0 0 .422 0Z" style="fill:#1d1d1b;fill-opacity:1;fill-rule:nonzero;stroke:none" transform="translate(317.248 247.94)"/><path d="M0 0v1.997c0 .091-.042.136-.124.136h-1.163c-.092 0-.124-.045-.124-.136V0c0-.08.032-.107.124-.107h1.163C-.042-.107 0-.08 0 0m-1.526-.814a.73.73 0 0 0-.731.727v1.589c0 .341.143.603.442.763l.674.39a.777.777 0 0 0 .437.122H.743c.065 0 .108-.033.108-.118V-.662c0-.07-.043-.098-.108-.098H.097C.027-.76 0-.732 0-.66v.102c0 .083-.042.116-.124.088l-1.214-.325c-.069-.019-.124-.019-.188-.019" style="fill:#1d1d1b;fill-opacity:1;fill-rule:nonzero;stroke:none" transform="translate(321.494 248.705)"/><path d="M0 0c0-.07-.046-.098-.101-.098h-.634c-.078 0-.116.028-.116.098v4.859c0 .068.038.122.116.122h.634c.055 0 .101-.054.101-.122Z" style="fill:#1d1d1b;fill-opacity:1;fill-rule:nonzero;stroke:none" transform="translate(324.035 248.043)"/><path d="M0 0a218.479 218.479 0 0 1-21.23-1.767l-.005-24.787L0-37.604Z" style="fill:#1d1d1b;fill-opacity:1;fill-rule:nonzero;stroke:none" transform="translate(289.634 197.93)"/><path d="M0 0c6.69-.234 13.796-.776 21.235-1.767l.005-24.787L0-37.604Z" style="fill:#0082ca;fill-opacity:1;fill-rule:nonzero;stroke:none" transform="translate(310.777 197.93)"/><path d="M0 0Z" style="fill:#1d1d1b;fill-opacity:1;fill-rule:nonzero;stroke:none" transform="translate(289.032 197.924)"/><path d="M0 0h-5.464v32.5H-77.13V0h-5.465v37.961H0Z" style="fill:#1d1d1b;fill-opacity:1;fill-rule:nonzero;stroke:none" transform="translate(341.48 223.559)"/><path d="m0 0-41.291 21.328v29.486l.653.106c1.316.218 2.624.417 3.92.609l.892.13V24.657L0 6.149l35.84 18.508v27.098l.918-.165c1.356-.24 2.661-.48 3.911-.717l.635-.123V21.326Z" style="fill:#1d1d1b;fill-opacity:1;fill-rule:nonzero;stroke:none" transform="translate(300.176 143.99)"/><path d="M0 0c-6.507.408-13.533.265-21.144 0v-37.604l10.546-4.959L0-37.604Z" style="fill:#fff;fill-opacity:1;fill-rule:nonzero;stroke:none" transform="translate(310.777 197.93)"/><path d="M0 0h531.583" style="fill:none;stroke:#9d9c9c;stroke-width:.5;stroke-linecap:butt;stroke-linejoin:miter;stroke-miterlimit:10;stroke-dasharray:none;stroke-opacity:1" transform="translate(31.85 769.303)"/></g></svg>