<svg xmlns="http://www.w3.org/2000/svg" width="588.45038" height="656.12726" x="0px" y="0px" viewBox="0 0 588.45038 656.12726"><path fill="none" d="M-6.23-9.034H598.14v672.886H-6.23z" style="fill:#050925;fill-opacity:0"/><defs><linearGradient id="d" x1="0" x2="1" y1="0" y2="0" gradientTransform="matrix(0 8.98312 -8.98312 0 89.115 676.92)" gradientUnits="userSpaceOnUse" spreadMethod="pad"><stop offset="0" style="stop-opacity:1;stop-color:#fff"/><stop offset="1" style="stop-opacity:1;stop-color:#af964e"/></linearGradient><linearGradient id="e" x1="0" x2="1" y1="0" y2="0" gradientTransform="matrix(0 8.98306 -8.98306 0 89.115 676.92)" gradientUnits="userSpaceOnUse" spreadMethod="pad"><stop offset="0" style="stop-opacity:1;stop-color:#fff"/><stop offset="1" style="stop-opacity:1;stop-color:#af964e"/></linearGradient><linearGradient id="f" x1="0" x2="1" y1="0" y2="0" gradientTransform="rotate(90 -289.128 387.793)scale(8.98312)" gradientUnits="userSpaceOnUse" spreadMethod="pad"><stop offset="0" style="stop-opacity:1;stop-color:#fff"/><stop offset="1" style="stop-opacity:1;stop-color:#af964e"/></linearGradient><linearGradient id="g" x1="0" x2="1" y1="0" y2="0" gradientTransform="rotate(90 -287.176 389.744)scale(8.98312)" gradientUnits="userSpaceOnUse" spreadMethod="pad"><stop offset="0" style="stop-opacity:1;stop-color:#fff"/><stop offset="1" style="stop-opacity:1;stop-color:#af964e"/></linearGradient><linearGradient id="h" x1="0" x2="1" y1="0" y2="0" gradientTransform="rotate(90 -285.224 391.696)scale(8.98312)" gradientUnits="userSpaceOnUse" spreadMethod="pad"><stop offset="0" style="stop-opacity:1;stop-color:#fff"/><stop offset="1" style="stop-opacity:1;stop-color:#af964e"/></linearGradient><linearGradient id="i" x1="0" x2="1" y1="0" y2="0" gradientTransform="rotate(90 -276.689 400.231)scale(8.98312)" gradientUnits="userSpaceOnUse" spreadMethod="pad"><stop offset="0" style="stop-opacity:1;stop-color:#fff"/><stop offset="1" style="stop-opacity:1;stop-color:#af964e"/></linearGradient><linearGradient id="j" x1="0" x2="1" y1="0" y2="0" gradientTransform="rotate(90 -279.428 397.492)scale(8.98312)" gradientUnits="userSpaceOnUse" spreadMethod="pad"><stop offset="0" style="stop-opacity:1;stop-color:#fff"/><stop offset="1" style="stop-opacity:1;stop-color:#af964e"/></linearGradient><linearGradient id="k" x1="0" x2="1" y1="0" y2="0" gradientTransform="rotate(90 -282.408 394.513)scale(8.98307)" gradientUnits="userSpaceOnUse" spreadMethod="pad"><stop offset="0" style="stop-opacity:1;stop-color:#fff"/><stop offset="1" style="stop-opacity:1;stop-color:#af964e"/></linearGradient><clipPath id="a" clipPathUnits="userSpaceOnUse"><path d="M0 915.59h668.976V0H0Z"/></clipPath><clipPath id="b" clipPathUnits="userSpaceOnUse"><path d="M138.494 667.528h21.792v-21.791h-21.792z"/></clipPath><clipPath id="c" clipPathUnits="userSpaceOnUse"><path d="M138.495 645.737h21.792v21.792h-21.792z"/></clipPath><clipPath id="l" clipPathUnits="userSpaceOnUse"><path d="M0 915.59h668.976V0H0Z"/></clipPath></defs><g style="stroke-width:.422785"><g clip-path="url(#a)" style="stroke-width:.422785" transform="matrix(5.26333 0 0 -5.26333 -414.454 3878.772)"><g style="stroke-width:.422785"><path d="m0 0 .023-.002C.015-.002 0-.016 0 0m-45.485-.005v-.003a1 1 0 0 0-.154-.001v.006a.7.7 0 0 0 .154-.001zm63.522.298c.098.301.148.615.148.931a2.95 2.95 0 0 1-1.007 2.256l-.033.028c-.599.497-1.38.749-2.321.749h-2.258c-.337 0-.614-.065-.842-.16-.23.101-.485.16-.757.16H10.2c-.466 0-.886-.164-1.207-.439a1.85 1.85 0 0 1-1.207.439h-.767c-.77 0-1.414-.449-1.695-1.103A1.825 1.825 0 0 1 3.63 4.257h-.768c-.346 0-.663-.097-.937-.257a6 6 0 0 1-.442.162 8 8 0 0 1-.663.161q-.04.008-.078.014c-.878.134-1.711.049-2.468-.247a4.4 4.4 0 0 1-1.415-.895 4.2 4.2 0 0 1-.981-1.382A4.3 4.3 0 0 1-4.497.016c0-.106.008-.207.014-.309A1.85 1.85 0 0 1-5.574.06h-.567v2.349a1.827 1.827 0 0 1-1.847 1.848h-.767a1.82 1.82 0 0 1-1.736-1.224 1.82 1.82 0 0 1-1.736 1.224h-.767a1.83 1.83 0 0 1-1.443-.695 2 2 0 0 1-.154.183 1.7 1.7 0 0 1-.436.314 1.95 1.95 0 0 1-.877.198h-.739c-.404 0-.762-.103-1.064-.307l-.064-.045a1.86 1.86 0 0 1-.594-.768 3 3 0 0 1-.329.343l-.033.028c-.598.497-1.379.749-2.32.749h-2.259c-.192 0-.364-.022-.519-.057a2 2 0 0 1-.662.114h-.753q-.343 0-.642-.098a1.78 1.78 0 0 1-.809-.556 1.9 1.9 0 0 1-.401.362q-.242.159-.523.229a2.2 2.2 0 0 1-.522.063h-.752q-.307-.002-.58-.088a2 2 0 0 1-.318.031h-3.168c-.733 0-1.188-.302-1.446-.56a1.9 1.9 0 0 1-.435-.701 1.82 1.82 0 0 1-1.747 1.261h-.766a1.82 1.82 0 0 1-1.736-1.224 1.82 1.82 0 0 1-1.736 1.224h-.767a1.83 1.83 0 0 1-1.36-.593 4.7 4.7 0 0 1-.874.437 5.2 5.2 0 0 1-3.506-.01 5 5 0 0 1-.433-.19 1.87 1.87 0 0 1-1.105.356h-.767q-.347 0-.641-.095a2 2 0 0 1-.245-.1 1.8 1.8 0 0 1-.653-.569q-.193.276-.472.464a1.7 1.7 0 0 1-.539.238 2.2 2.2 0 0 1-.532.062h-.767c-.774 0-1.433-.438-1.701-1.123a1.84 1.84 0 0 1 .011-1.397l1.867-4.794a1.86 1.86 0 0 1 .698-.903q.456-.307 1.064-.307h.739q.48 0 .878.199.25.124.446.324a2.1 2.1 0 0 1 .43.666l.041.105c.068-.074.134-.149.208-.219a4.5 4.5 0 0 1 1.501-.92 5.1 5.1 0 0 1 1.738-.297c.605 0 1.189.1 1.769.309q.469.179.87.442.025-.028.05-.054c.253-.253.709-.555 1.441-.555h3.026c.197 0 .383.038.56.093.188-.056.403-.093.652-.093h3.026c.198 0 .383.038.561.093.188-.056.402-.093.652-.093h3.203c.543 0 1.021.227 1.356.589l.032-.034a1.96 1.96 0 0 1 1.399-.555h.554c.547 0 1.046.199 1.404.56q.04.043.08.087.023.028.047.059.067-.085.133-.151c.253-.253.708-.555 1.441-.555h2.273c.572 0 1.077.085 1.53.238a1.9 1.9 0 0 1 .921-.238h.767c.191 0 .382.023.552.067q.28.072.519.233.275.184.47.464a1.8 1.8 0 0 1 .874-.661q.305-.102.667-.103h.767q.28.002.536.077c.174-.047.369-.077.592-.077h3.026c.197 0 .383.038.56.093.189-.056.403-.093.653-.093h3.025a1.82 1.82 0 0 1 1.836 1.733c.174-.258.37-.492.591-.694a4.3 4.3 0 0 1 1.459-.895 4.8 4.8 0 0 1 1.645-.286 5.5 5.5 0 0 1 1.532.221l.039.011q.228.072.445.167c.257-.144.6-.257 1.046-.257h3.025c.378 0 .724.11 1.013.297a3.4 3.4 0 0 1 .54-.225 4.4 4.4 0 0 1 1.396-.214c.481 0 .945.069 1.404.214.294.098.568.233.823.395.266-.23.697-.467 1.346-.467h2.272c.987 0 1.797.225 2.427.683.735.552 1.139 1.427 1.139 2.464 0 .494-.123.968-.367 1.413" style="fill:#e9e9e9;fill-opacity:1;fill-rule:nonzero;stroke:none;stroke-width:.422785" transform="translate(155.025 616.692)"/></g><g style="stroke-width:.422785"><path d="M0 0q-.825 0-1.639-.088a42.6 42.6 0 0 1 5.776 21.49c0 14.545-7.27 27.953-19.466 35.942a23.6 23.6 0 0 1-2.454 3.116c-3.214 3.437-7.568 5.97-12.623 7.35l.626 1.766c.197.602.799 2.435.105 4.317-.544 1.474-1.766 2.579-3.355 3.03q-.23.065-.464.11c-.764 1.688-2.517 3.115-5.274 3.049h-.008c-1.544-.02-2.942-.499-3.936-1.349a4.74 4.74 0 0 1-1.25-1.668 6 6 0 0 1-.459-.107c-1.59-.44-2.82-1.537-3.375-3.011-.634-1.69-.254-3.288.099-4.377l.593-1.71-.055-.061c-5.089-1.387-9.312-3.844-12.559-7.308a23.6 23.6 0 0 1-2.422-3.057c-12.285-7.978-19.607-21.419-19.607-36.032l.003-.387c-5.895-2.659-9.776-8.584-9.776-15.112 0-2.665.197-4.768.627-6.571a9.24 9.24 0 0 1-5.789-8.578v-2.372a9.25 9.25 0 0 1 5.467-8.44 9.3 9.3 0 0 1-.538-2.479 4 4 0 0 1-.009-.209c-.01-.612-.04-2.661-.009-3.305a9.22 9.22 0 0 1 2.693-6.093 9.18 9.18 0 0 1 6.539-2.71c2.47 0 4.792.962 6.537 2.708l1.051 1.051 1.052-1.051a9.18 9.18 0 0 1 6.537-2.705c2.472 0 4.793.96 6.537 2.705a9.2 9.2 0 0 1 2.027 3.044 8.16 8.16 0 0 1 6.398-3.095c1.654 0 3.278.516 4.635 1.45a8.2 8.2 0 0 1 4.635-1.45c1.654 0 3.278.516 4.636 1.45a8.2 8.2 0 0 1 4.635-1.45c1.902 0 3.77.697 5.234 1.916a15.2 15.2 0 0 1 8.051-2.331c1.604 0 3.174.247 4.676.738a8.23 8.23 0 0 1 5.611.39 8.1 8.1 0 0 1 3.335-.713A8.17 8.17 0 0 1 0-28.311a8.17 8.17 0 0 1 6.953-3.886c4.504 0 8.167 3.663 8.167 8.167v8.91C15.12-6.783 8.338 0 0 0" style="fill:#e9e9e9;fill-opacity:1;fill-rule:nonzero;stroke:none;stroke-width:.422785" transform="translate(175.426 656.859)"/></g><g style="stroke-width:.422785"><path d="M0 0c-22.741 0-41.242-18.501-41.242-41.241 0-22.741 18.501-41.242 41.242-41.242s41.242 18.501 41.242 41.242S22.741 0 0 0" style="fill:#37292a;fill-opacity:1;fill-rule:nonzero;stroke:none;stroke-width:.422785" transform="translate(136.621 719.502)"/></g><g style="stroke-width:.422785"><path d="M0 0c21.86 0 39.581-17.721 39.581-39.581S21.86-79.162 0-79.162s-39.581 17.721-39.581 39.581S-21.86 0 0 0" style="fill:#ef381f;fill-opacity:1;fill-rule:evenodd;stroke:none;stroke-width:.422785" transform="translate(136.621 717.841)"/></g><g style="stroke-width:.422785"><path d="M0 0c-2.847-2.268-5.403-4.896-7.641-7.764-4.415-5.658-7.571-12.205-9.6-19.072a.866.866 0 0 0-.982-.61q-.419.072-.836.15c-3.922.742-8.283 2.028-11.448 4.549a.86.86 0 0 0-.279.965C-26.253-8.72-14.387.446-.611 1.547A.86.86 0 0 0 .267.999.86.86 0 0 0 0 0m.87-28.583c-4.208-.032-8.423.019-12.62.351a.85.85 0 0 0-.652.381.84.84 0 0 0-.109.747c1.868 5.934 4.656 11.598 8.491 16.513C-.371-5.914 4.256-1.896 9.632.667a.84.84 0 0 0 .573.061 34.8 34.8 0 0 0 10.468-4.371.85.85 0 0 0 .408-.753.85.85 0 0 0-.435-.737c-3.499-2.022-6.635-4.625-9.363-7.601-4.099-4.473-7.256-9.746-9.62-15.319a.85.85 0 0 0-.793-.53m24.075-31.091a34.9 34.9 0 0 0-11.012-6.422.85.85 0 0 0-.845.147.85.85 0 0 0-.308.799c.775 5.211.722 10.629-.119 15.827-1.042 6.444-3.314 12.651-6.911 18.113a.85.85 0 0 0-.077.81c1.652 4.009 3.732 7.864 6.331 11.342a.84.84 0 0 0 .616.345.84.84 0 0 0 .669-.225c5.47-5.031 9.02-11.154 10.846-18.349 1.796-7.079 1.818-14.583 1.108-21.814a.84.84 0 0 0-.298-.573M7.03-67.792a35 35 0 0 0-4.85-.334 34.91 34.91 0 0 0-31.064 18.988.86.86 0 0 0 .129.98c.248.273.621.36.964.225 4.508-1.776 9.371-2.922 14.165-3.573a69.6 69.6 0 0 1 10.796-.626 61 61 0 0 1 10.179 1.048.84.84 0 0 0 .676-.151.84.84 0 0 0 .35-.597c.618-5.037.453-10.317-.615-15.282a.85.85 0 0 0-.73-.678m-.563 21.225a56.4 56.4 0 0 0-9.426-.967 65 65 0 0 0-10.053.585c-6.112.829-13.335 2.673-18.575 5.991a.84.84 0 0 0-.386.557 35.2 35.2 0 0 0-.425 11.857.85.85 0 0 0 .484.667.85.85 0 0 0 .823-.036c3.385-2.015 7.334-3.175 11.185-3.903 5.21-.986 10.577-1.269 15.871-1.347 1.698-.025 3.397-.026 5.095-.012a.85.85 0 0 0 .73-.388c2.435-3.649 4.21-7.69 5.352-11.923a.84.84 0 0 0-.102-.688.84.84 0 0 0-.573-.393M26.308-8.031a34.8 34.8 0 0 0 10.764-25.203 34.76 34.76 0 0 0-5.189-18.317.86.86 0 0 0-.98-.379.86.86 0 0 0-.629.84c.024 5.015-.438 10.053-1.674 14.921-2.065 8.137-6.098 15.054-12.306 20.719a.84.84 0 0 0-.284.63.85.85 0 0 0 .265.637c2.662 2.575 5.702 4.751 9.065 6.312a.86.86 0 0 0 .968-.16" style="fill:#fff;fill-opacity:1;fill-rule:evenodd;stroke:none;stroke-width:.422785" transform="translate(134.44 711.549)"/></g><g style="stroke-width:.422785"><path d="M0 0c.038-3.086-.131-6.175-.43-9.215a.83.83 0 0 0-.298-.574 34.9 34.9 0 0 0-11.012-6.422.85.85 0 0 0-.845.147.85.85 0 0 0-.308.799c.428 2.877.603 5.816.533 8.746C-7.76-5.038-3.576-2.809 0 0m11.397 16.209A34.75 34.75 0 0 0 6.21-1.666a.86.86 0 0 0-.979-.378.86.86 0 0 0-.63.84 71 71 0 0 1-.17 5.322c3.197 3.524 5.597 7.623 6.966 12.091m-30.04-34.115a35 35 0 0 0-4.85-.335A34.91 34.91 0 0 0-54.557.747a.855.855 0 0 0 .13.98.85.85 0 0 0 .881.253C-46.558-4.516-36.63-8.575-25.615-8.575c2.984 0 5.888.298 8.676.861.007-3.203-.308-6.42-.974-9.514a.85.85 0 0 0-.73-.678" style="fill:#d3d2d2;fill-opacity:1;fill-rule:evenodd;stroke:none;stroke-width:.422785" transform="translate(160.113 661.663)"/></g><g style="stroke-width:.422785"><path d="M0 0h.001c-1.015 3.09-4.716 5.559-7.983 7.199 2.33 3.1 2.733 6.505 2.739 8.449 2.795 6.374 2.922 12.498 2.925 13.31.605 9.163-1.531 16.421-6.346 21.57-3.124 3.34-7.41 5.765-12.412 7.024a6.3 6.3 0 0 1-.951.989l.992 2.795c.264.803.564 2.008.125 3.198-.354.96-1.164 1.682-2.223 1.983-.42.119-.857.164-1.288.139-.277 2.087-2.208 3.001-3.942 2.956l-.031-.001c-.532-.007-1.86-.091-2.853-.94-.591-.507-.948-1.175-1.065-1.991a3.9 3.9 0 0 1-1.295-.131c-1.061-.294-1.876-1.011-2.237-1.971-.447-1.191-.153-2.399.113-3.221l.951-2.741a6.6 6.6 0 0 1-.812-.79 6 6 0 0 1-.238-.3c-5.016-1.276-9.149-3.62-12.288-6.968-4.815-5.137-6.962-12.382-6.381-21.536.002-.836.117-7.183 3.042-13.686.064-2.301.79-7.465 5.672-10.967-2.876-4.143-5.608-11.862-5.584-19.493-.057-.634-.343-4.619 1.334-6.51a3 3 0 0 1 2.212-1.035l.068-.001c.97 0 1.773.524 2.284 1.464l.111-.007.047-.001c.369.008.74.133 1.048.371a2.22 2.22 0 0 1 1.009-1.185c.324-.184 3.363-1.793 10.105-1.793h.058a6.01 6.01 0 0 1 4.806-2.391c1.901 0 3.664.885 4.806 2.391h.06c1.956 0 3.789.14 5.454.415a13.5 13.5 0 0 1 3.852-.562c7.427 0 13.469 6.041 13.469 13.467 0 1.499-.248 2.972-.736 4.383C.958-3.288.142-.43 0 0" style="fill:#37292a;fill-opacity:1;fill-rule:nonzero;stroke:none;stroke-width:.422785" transform="translate(165.065 665.63)"/></g><g style="stroke-width:.422785"><path d="M0 0a.47.47 0 0 1-.441.316l-6 .111-1.965 5.588a.47.47 0 0 1-.446.311h-.003a.47.47 0 0 1-.441-.309L-11.265.426l-5.993-.119a.47.47 0 0 1-.442-.319.465.465 0 0 1 .161-.514l4.786-3.563-1.744-5.661a.47.47 0 0 1 .172-.509.47.47 0 0 1 .284-.086.44.44 0 0 1 .262.082l4.927 3.382 4.923-3.379a.47.47 0 0 1 .28-.085.465.465 0 0 1 .441.599l-1.747 5.66L-.166-.515C-.001-.395.058-.19 0 0" style="fill:#ad964f;fill-opacity:1;fill-rule:nonzero;stroke:none;stroke-width:.422785" transform="translate(110.808 723.034)"/></g><g style="stroke-width:.422785"><path d="M0 0a.47.47 0 0 1-.441.316l-6.001.111-1.964 5.588a.47.47 0 0 1-.446.311h-.003a.47.47 0 0 1-.441-.309L-11.265.426l-5.994-.119a.47.47 0 0 1-.442-.319.47.47 0 0 1 .162-.514l4.786-3.563-1.744-5.661a.47.47 0 0 1 .172-.509.47.47 0 0 1 .284-.086.44.44 0 0 1 .262.082l4.927 3.382 4.923-3.379a.47.47 0 0 1 .28-.085.465.465 0 0 1 .441.599l-1.747 5.66L-.166-.515C-.001-.395.058-.19 0 0" style="fill:#ad964f;fill-opacity:1;fill-rule:nonzero;stroke:none;stroke-width:.422785" transform="translate(180.136 723.034)"/></g><g style="stroke-width:.422785"><path d="M0 0s10.041-3.454 11.651-8.357c0 0 1.549-3.156-2.571-6.37L-6.191-8.556-3.109-.7z" style="fill:#fff;fill-opacity:1;fill-rule:nonzero;stroke:none;stroke-width:.422785" transform="translate(152.345 673.636)"/></g><g style="stroke-width:.422785"><path d="M0 0s-.889-6.239 2.638-6.343c1.351-.04 1.557 2.267 1.557 2.267.041-1.092 1.391-1.119 1.391.066v3.644z" style="fill:#f7d8ca;fill-opacity:1;fill-rule:nonzero;stroke:none;stroke-width:.422785" transform="translate(114.822 650.44)"/></g><g style="stroke-width:.422785"><path d="M0 0c.971 7.341 4.551 16.394 4.551 16.394l-.406 6.64S-4.522 20.859-5.576.621z" style="fill:#fff;fill-opacity:1;fill-rule:nonzero;stroke:none;stroke-width:.422785" transform="translate(120.398 649.82)"/></g><g style="stroke-width:.422785"><path d="M0 0s1.756.744 6.002-.602l-.658-2.67-5.574.878Z" style="fill:#dd3a22;fill-opacity:1;fill-rule:nonzero;stroke:none;stroke-width:.422785" transform="translate(115.054 653.091)"/></g><g style="stroke-width:.422785"><path d="M0 0c-.485 0-1.751-.156-3.06-1.595-3.083-3.393-6.388-12.022-6.353-20.046-.005-.068-.362-3.992.977-5.501a1.56 1.56 0 0 1 1.181-.556c1.265-.028 1.442 1.986 1.444 2.006a.294.294 0 0 0 .303.271.3.3 0 0 0 .29-.286c.013-.369.218-.535.405-.535h.006c.178.003.386.16.386.59v3.08c.798 7.858 5.454 18.794 6.061 20.195L.081-.002zm-7.222-28.292h-.047c-.638.016-1.18.27-1.612.757-1.509 1.701-1.141 5.75-1.124 5.921-.038 8.247 3.279 16.866 6.506 20.418C-1.638.852.22.588.296.576A.3.3 0 0 0 .499.445l1.726-2.631a.3.3 0 0 0 .023-.283C2.196-2.586-2.99-14.36-3.829-22.602l.002-3.05c0-.801-.503-1.175-.969-1.184a1 1 0 0 0-.607.209c-.229-.736-.735-1.665-1.819-1.665" style="fill:#37292a;fill-opacity:1;fill-rule:nonzero;stroke:none;stroke-width:.422785" transform="translate(124.533 672.082)"/></g><g style="stroke-width:.422785"><path d="M0 0q-.045 0-.091.014c-2.907.932-4.98.585-5 .581a.298.298 0 0 0-.104.585c.09.016 2.227.38 5.286-.601A.297.297 0 0 0 0 0" style="fill:#37292a;fill-opacity:1;fill-rule:nonzero;stroke:none;stroke-width:.422785" transform="translate(120.128 649.553)"/></g><g style="stroke-width:.422785"><path d="m0 0 11.384-1.162L22.768 0c.113.087 1.41-4.225 1.41-4.225l-4.036-23.648-8.758-3.795-8.759 3.795-4.036 23.648S-.113.087 0 0" style="fill:#dd3a22;fill-opacity:1;fill-rule:nonzero;stroke:none;stroke-width:.422785" transform="translate(125.395 673.536)"/></g><g style="stroke-width:.422785"><path d="M0 0c.376-.225.753-.445 1.131-.638l.095-.06s.208-.66.513-1.904c.848-3.46 2.455-11.474 2.502-22.666-3.489.426-5.803 1.292-5.803 1.292-.324 3.733.587 13.912.746 15.632z" style="fill:#fff;fill-opacity:1;fill-rule:nonzero;stroke:none;stroke-width:.422785" transform="translate(124.168 672.469)"/></g><g style="stroke-width:.422785"><path d="M0 0a20 20 0 0 0-1.131-.638l-.095-.06s-.208-.66-.513-1.904c-.848-3.46-2.455-11.474-2.502-22.666 3.489.426 5.803 1.292 5.803 1.292.324 3.733-.587 13.912-.746 15.632z" style="fill:#fff;fill-opacity:1;fill-rule:nonzero;stroke:none;stroke-width:.422785" transform="translate(149.32 672.469)"/></g><g style="stroke-width:.422785"><path d="M0 0h10.429a1.226 1.226 0 0 1 0 2.453H0A1.226 1.226 0 0 1 0 0" style="fill:#fff;fill-opacity:1;fill-rule:nonzero;stroke:none;stroke-width:.422785" transform="translate(131.565 657.896)"/></g><g style="stroke-width:.422785"><path d="M0 0c0-1.01.822-1.832 1.832-1.832S3.664-1.01 3.664 0s-.821 1.832-1.832 1.832A1.834 1.834 0 0 1 0 0m-2.453 0a4.29 4.29 0 0 0 4.285 4.285A4.29 4.29 0 0 0 6.117 0a4.29 4.29 0 0 0-4.285-4.284A4.29 4.29 0 0 0-2.453 0" style="fill:#fff;fill-opacity:1;fill-rule:nonzero;stroke:none;stroke-width:.422785" transform="translate(134.947 665.449)"/></g><g style="stroke-width:.422785"><path d="M0 0a1.226 1.226 0 0 1 .867 2.093l-3.169 3.169a1.226 1.226 0 0 1-1.734 0l-3.169-3.169A1.226 1.226 0 1 1-5.471.359l2.302 2.302L-.867.359C-.628.12-.314 0 0 0" style="fill:#fff;fill-opacity:1;fill-rule:nonzero;stroke:none;stroke-width:.422785" transform="translate(139.948 652.054)"/></g><g style="stroke-width:.422785"><path d="m0 0-.04-.004.04.006Z" style="fill:#fff;fill-opacity:1;fill-rule:nonzero;stroke:none;stroke-width:.422785" transform="translate(145.148 647.199)"/></g><g style="stroke-width:.422785"><path d="M0 0c1.278.037 3.028.196 3.307.222A31 31 0 0 0 0 0" style="fill:#fff;fill-opacity:1;fill-rule:nonzero;stroke:none;stroke-width:.422785" transform="translate(141.8 646.974)"/></g><g style="stroke-width:.422785"><path d="M0 0q.41-.005.811.003A13 13 0 0 0 0 0" style="fill:#fff;fill-opacity:1;fill-rule:nonzero;stroke:none;stroke-width:.422785" transform="translate(140.99 646.97)"/></g><g style="stroke-width:.422785"><path d="M0 0s-.649 2.711-4.211 3.116C-.635 2.734 0 0 0 0" style="fill:#fff;fill-opacity:1;fill-rule:nonzero;stroke:none;stroke-width:.422785" transform="translate(140.99 646.97)"/></g><g style="stroke-width:.422785"><path d="M0 0q.4-.008.811-.003A12 12 0 0 0 0 0" style="fill:#fff;fill-opacity:1;fill-rule:nonzero;stroke:none;stroke-width:.422785" transform="translate(131.757 646.974)"/></g><g style="stroke-width:.422785"><path d="M0 0c.279-.026 2.03-.184 3.307-.222A31 31 0 0 0 0 0" style="fill:#fff;fill-opacity:1;fill-rule:nonzero;stroke:none;stroke-width:.422785" transform="translate(128.45 647.195)"/></g><g style="stroke-width:.422785"><path d="M0 0v.002l.04-.006z" style="fill:#fff;fill-opacity:1;fill-rule:nonzero;stroke:none;stroke-width:.422785" transform="translate(128.41 647.199)"/></g><g style="stroke-width:.422785"><path d="M0 0c-3.562-.406-4.211-3.116-4.211-3.116S-3.575-.383 0 0" style="fill:#fff;fill-opacity:1;fill-rule:nonzero;stroke:none;stroke-width:.422785" transform="translate(136.779 650.087)"/></g><g style="stroke-width:.422785"><path d="M0 0c0-1.74 2.067-3.15 4.617-3.15S9.233-1.74 9.233 0 7.166 3.15 4.617 3.15C2.067 3.15 0 1.74 0 0" style="fill:#ce3a24;fill-opacity:1;fill-rule:nonzero;stroke:none;stroke-width:.422785" transform="translate(132.162 645.986)"/></g><g style="stroke-width:.422785"><path d="M0 0s.5-.109.422-.672L.43-3.031S.5-3.593 0-3.874c0 0-2.89-1.64-9.591-1.609 0 0-1 .031-1.343.188l.234 3.702S-4.186-1.781 0 0" style="fill:#dd3a22;fill-opacity:1;fill-rule:nonzero;stroke:none;stroke-width:.422785" transform="translate(151.047 648.715)"/></g><g style="stroke-width:.422785"><path d="M0 0a.6.6 0 0 1-.233-.047c-3.384-1.44-8.45-1.552-9.922-1.552-.333 0-.523.005-.528.005l-.017.001a.594.594 0 0 1-.592-.556l-.235-3.703a.6.6 0 0 1 .347-.578c.419-.19 1.308-.231 1.57-.24h.208c6.646 0 9.573 1.617 9.695 1.686.641.361.761 1.024.731 1.39L1.015-1.3A1.154 1.154 0 0 1 .127-.014.6.6 0 0 1 0 0m0-.594s.5-.109.422-.671L.43-3.624S.5-4.186 0-4.468c0 0-2.836-1.609-9.402-1.609h-.189s-1 .032-1.343.188l.234 3.702s.197-.006.545-.006c1.65 0 6.697.128 10.155 1.599" style="fill:#37292a;fill-opacity:1;fill-rule:nonzero;stroke:none;stroke-width:.422785" transform="translate(151.047 649.31)"/></g><g style="stroke-width:.422785"><path d="M0 0s-.5-.109-.422-.672L-.43-3.031s-.07-.562.43-.843c0 0 2.89-1.64 9.591-1.609 0 0 1 .031 1.343.188L10.7-1.593S4.186-1.781 0 0" style="fill:#dd3a22;fill-opacity:1;fill-rule:nonzero;stroke:none;stroke-width:.422785" transform="translate(122.51 648.715)"/></g><g style="stroke-width:.422785"><path d="M0 0a.6.6 0 0 1-.127-.014A1.154 1.154 0 0 1-1.015-1.3l-.009-2.294c-.03-.366.09-1.029.733-1.391.119-.068 3.047-1.685 9.693-1.685h.192c.278.009 1.167.05 1.586.24a.595.595 0 0 1 .346.578l-.234 3.703a.594.594 0 0 1-.592.556l-.017-.001c-.005 0-.195-.005-.528-.005-1.472 0-6.538.112-9.922 1.552A.6.6 0 0 1 0 0m0-.594c3.458-1.471 8.505-1.599 10.155-1.599.348 0 .545.006.545.006l.234-3.702c-.343-.156-1.343-.188-1.343-.188h-.189C2.836-6.077 0-4.468 0-4.468c-.5.282-.43.844-.43.844l.008 2.359A.57.57 0 0 0 0-.594" style="fill:#37292a;fill-opacity:1;fill-rule:nonzero;stroke:none;stroke-width:.422785" transform="translate(122.51 649.31)"/></g><g style="stroke-width:.422785"><path d="M0 0a4.617 4.617 0 1 1 9.234 0A4.617 4.617 0 0 1 0 0" style="fill:#dd3a22;fill-opacity:1;fill-rule:nonzero;stroke:none;stroke-width:.422785" transform="translate(132.162 645.458)"/></g><g style="stroke-width:.422785"><path d="M0 0a5.216 5.216 0 0 1-5.21-5.21A5.216 5.216 0 0 1 0-10.42a5.216 5.216 0 0 1 5.21 5.21A5.216 5.216 0 0 1 0 0m0-.594a4.617 4.617 0 1 0 0-9.233A4.617 4.617 0 0 0 0-.594" style="fill:#37292a;fill-opacity:1;fill-rule:nonzero;stroke:none;stroke-width:.422785" transform="translate(136.779 650.668)"/></g><g style="stroke-width:.422785"><path d="M0 0a3.258 3.258 0 1 1 6.516 0A3.258 3.258 0 0 1 0 0" style="fill:#f3b231;fill-opacity:1;fill-rule:nonzero;stroke:none;stroke-width:.422785" transform="translate(133.522 645.458)"/></g><g style="stroke-width:.422785"><path d="M0 0a2.123 2.123 0 1 1 4.247-.001A2.123 2.123 0 0 1 0 0" style="fill:#dd3a22;fill-opacity:1;fill-rule:nonzero;stroke:none;stroke-width:.422785" transform="translate(134.655 645.458)"/></g><g style="stroke-width:.422785"><path d="M0 0a.296.296 0 0 0-.297.291C-.32 1.508-.326 6.187.559 15.314a.3.3 0 0 0 .323.267.296.296 0 0 0 .267-.324C.268 6.161.274 1.511.297.302A.297.297 0 0 0 .005 0Z" style="fill:#37292a;fill-opacity:1;fill-rule:nonzero;stroke:none;stroke-width:.422785" transform="translate(122.499 648.84)"/></g><g style="stroke-width:.422785"><path d="M0 0s-.513.049-1.164.106c.081.057.171.114.252.179l.114.065C-.79.342-.782.342-.765.334A.3.3 0 0 0-.676.293C-.619.277-.57.252-.521.228c.073-.025.138-.057.212-.089.089-.033.17-.074.26-.115Q-.024.013 0 0" style="fill:#fff;fill-opacity:1;fill-rule:nonzero;stroke:none;stroke-width:.422785" transform="translate(151.712 672.853)"/></g><g style="stroke-width:.422785"><path d="M0 0c-.643-.057-1.156-.106-1.156-.106q.014.012.041.025c.089.04.171.081.26.113.073.033.138.066.212.09a1 1 0 0 0 .154.065.3.3 0 0 0 .09.041c.008.008.025.008.032.016l.106-.065C-.171.114-.09.049 0 0" style="fill:#fff;fill-opacity:1;fill-rule:nonzero;stroke:none;stroke-width:.422785" transform="translate(122.724 672.958)"/></g><g style="stroke-width:.422785"><path d="M0 0c0-6.816 5.525-12.341 12.341-12.341S24.682-6.816 24.682 0s-5.525 12.341-12.341 12.341S0 6.816 0 0" style="fill:#eceeee;fill-opacity:1;fill-rule:nonzero;stroke:none;stroke-width:.422785" transform="translate(138.61 655.13)"/></g><g style="stroke-width:.422785"><g style="stroke-width:.422785"><g clip-path="url(#b)" opacity="0.779999" style="stroke-width:.203926"><g clip-path="url(#c)" style="stroke-width:.422785"><path d="M0 0a12.34 12.34 0 0 0 8.079-3.006 12.36 12.36 0 0 1-9.392 4.318c-6.848 0-12.399-5.55-12.399-12.398 0-3.758 1.679-7.118 4.32-9.392a12.34 12.34 0 0 0-3.007 8.079C-12.399-5.551-6.848 0 0 0" style="fill:#fff;fill-opacity:1;fill-rule:nonzero;stroke:none;stroke-width:.422785" transform="translate(152.207 666.215)"/></g></g></g></g><g style="stroke-width:.422785"><path d="M0 0a.2.2 0 0 0-.108.035c-3.667 2.633-12.541 10.883-12.63 10.966a.18.18 0 0 0-.059.148C-12.12 21.248-2.185 22.974-2.085 22.99a.185.185 0 0 0 .06-.365c-.097-.016-9.688-1.69-10.396-11.413.815-.757 9.045-8.375 12.529-10.877A.184.184 0 0 0 0 0" style="fill:#37292a;fill-opacity:1;fill-rule:nonzero;stroke:none;stroke-width:.422785" transform="translate(154.017 644.621)"/></g><g style="stroke-width:.422785"><path d="M0 0a.186.186 0 0 0-.185.178.185.185 0 0 0 .177.192c.742.031 1.623 1.367 1.9 1.879a.18.18 0 0 0 .124.093C7.571 3.529 9.97 7.437 10.258 7.94 8.262 19.32-4.203 22.963-4.33 22.998a.187.187 0 0 0-.128.229.186.186 0 0 0 .229.128c.128-.037 12.863-3.753 14.863-15.417a.2.2 0 0 0-.019-.117c-.023-.045-2.413-4.499-8.44-5.823C1.963 1.625 1.002.041.008 0Z" style="fill:#37292a;fill-opacity:1;fill-rule:nonzero;stroke:none;stroke-width:.422785" transform="translate(151.962 642.645)"/></g><g style="stroke-width:.422785"><path d="M0 0a.19.19 0 0 0-.148.074c-6.567 8.791-15.8 14.732-15.893 14.791a.184.184 0 0 0-.056.255.184.184 0 0 0 .255.057C-15.749 15.118-6.459 9.14.148.296A.185.185 0 0 0 0 0" style="fill:#37292a;fill-opacity:1;fill-rule:nonzero;stroke:none;stroke-width:.422785" transform="translate(159.498 647.13)"/></g><g style="stroke-width:.422785"><path d="M0 0a.18.18 0 0 0-.124.048.184.184 0 0 0-.013.261c.698.774 2.706 1.8 2.792 1.844a.185.185 0 1 0 .167-.33C2.802 1.812.79.785.137.061A.18.18 0 0 0 0 0" style="fill:#37292a;fill-opacity:1;fill-rule:nonzero;stroke:none;stroke-width:.422785" transform="translate(138.666 653.77)"/></g><g style="stroke-width:.422785"><path d="M0 0a.185.185 0 0 0-.081.351c2.638 1.29 5.148 3.415 5.172 3.435a.185.185 0 1 0 .241-.281C5.306 3.484 2.762 1.329.081.019A.2.2 0 0 0 0 0" style="fill:#37292a;fill-opacity:1;fill-rule:nonzero;stroke:none;stroke-width:.422785" transform="translate(140.827 647.887)"/></g><g style="stroke-width:.422785"><path d="M0 0a.186.186 0 0 0-.111.334c1.658 1.229 3.686 4.19 3.706 4.219a.186.186 0 0 0 .257.049.186.186 0 0 0 .049-.258C3.817 4.221 1.818 1.303.11.036A.2.2 0 0 0 0 0" style="fill:#37292a;fill-opacity:1;fill-rule:nonzero;stroke:none;stroke-width:.422785" transform="translate(146.228 643.624)"/></g><g style="stroke-width:.422785"><path d="M0 0c-6.641 0-12.044-5.403-12.044-12.044S-6.641-24.088 0-24.088s12.044 5.403 12.044 12.044S6.641 0 0 0m0-24.682c-6.969 0-12.638 5.669-12.638 12.638C-12.638-5.076-6.969.594 0 .594c6.968 0 12.637-5.67 12.637-12.638 0-6.969-5.669-12.638-12.637-12.638" style="fill:#37292a;fill-opacity:1;fill-rule:nonzero;stroke:none;stroke-width:.422785" transform="translate(150.951 667.173)"/></g><g style="stroke-width:.422785"><path d="M0 0s1.527.253 2.903-1.521c1.54-1.985.799-3.438.799-3.438l-1.274-.96-3.531 5.214z" style="fill:#dd3a22;fill-opacity:1;fill-rule:nonzero;stroke:none;stroke-width:.422785" transform="translate(158.77 664.678)"/></g><g style="stroke-width:.422785"><path d="M0 0s-.714-.441-1.307.24c-.593.68.616 2.11.708 2.202l-.804-1.156c-.928-.094-1.038.429-1.038.429-.586.991 2.345 2.997 2.345 2.997l-.986-.639s-1.181-.146-1.248.801c-.068.947 1.017.908 1.017.908H.873s1.713.554 3.291-1.926S4.773.62 4.773.62 2.537-2.292 1.459-1.509c0 0-.541.361.27 1.601L1.242-.919C.899-1.051.386-1.138.093-.665c-.47.757.64 2.037.64 2.037z" style="fill:#f7d8ca;fill-opacity:1;fill-rule:nonzero;stroke:none;stroke-width:.422785" transform="translate(156.425 658.139)"/></g><g style="stroke-width:.422785"><path d="M0 0a.296.296 0 0 0 .168-.542c-.774-.532-2.275-1.573-2.275-1.573l-.338.488S-.943-.585-.168-.052C-.117-.017-.058 0 0 0" style="fill:#37292a;fill-opacity:1;fill-rule:nonzero;stroke:none;stroke-width:.422785" transform="translate(160 665.846)"/></g><g style="stroke-width:.422785"><path d="M0 0a1 1 0 0 0-.599.192c-.071.047-.748.559.197 2.003a.297.297 0 1 0 .497-.325C-.413 1.096-.322.739-.244.667c.574-.415 2.041.961 2.898 2.074a.3.3 0 0 0 .053.054s.704.673-.677 2.842C.608 7.871-.859 7.459-.922 7.44a.3.3 0 0 0-.089-.013h-2.186c-.112.006-.444-.027-.609-.2-.088-.092-.124-.219-.112-.391a.5.5 0 0 1 .167-.363c.218-.181.613-.179.75-.165a.3.3 0 0 0 .329-.259.295.295 0 0 0-.258-.33c-.073-.01-.742-.079-1.196.294a1.08 1.08 0 0 0-.384.78c-.031.431.134.699.278.848.378.391.978.383 1.045.379h2.136c.324.082 2.033.369 3.581-2.064 1.564-2.457.784-3.408.576-3.6C2.729 1.868 1.204.001 0 0" style="fill:#37292a;fill-opacity:1;fill-rule:nonzero;stroke:none;stroke-width:.422785" transform="translate(158.31 656.198)"/></g><g style="stroke-width:.422785"><path d="M0 0c-.8 0-1.035.451-1.094.617-.629 1.172 1.926 3.005 2.45 3.362a.296.296 0 1 0 .334-.489C.559 2.714-.855 1.378-.566.888A.3.3 0 0 0-.53.798c.001 0 .091-.258.715-.194A.297.297 0 0 0 .246.013 2 2 0 0 0 0 0" style="fill:#37292a;fill-opacity:1;fill-rule:nonzero;stroke:none;stroke-width:.422785" transform="translate(154.806 659.117)"/></g><g style="stroke-width:.422785"><path d="M0 0c-.383 0-.697.169-.901.498-.569.917.54 2.24.668 2.388a.296.296 0 1 0 .449-.389c-.251-.29-.901-1.222-.612-1.686.054-.088.22-.353.79-.134A.296.296 0 1 0 .607.124 1.7 1.7 0 0 0 0 0" style="fill:#37292a;fill-opacity:1;fill-rule:nonzero;stroke:none;stroke-width:.422785" transform="translate(157.167 656.819)"/></g><g style="stroke-width:.422785"><path d="M0 0c-.32 0-.686.117-1.004.482-.812.933.707 2.592.722 2.608a.297.297 0 1 0 .421-.419C-.148 2.373-.902 1.268-.556.872a.72.72 0 0 1 .93-.18A.3.3 0 0 0 .78.59.294.294 0 0 0 .683.185 1.35 1.35 0 0 0 0 0" style="fill:#37292a;fill-opacity:1;fill-rule:nonzero;stroke:none;stroke-width:.422785" transform="translate(155.898 657.701)"/></g><g style="stroke-width:.422785"><path d="M0 0a.296.296 0 0 0-.18.533C3.469 3.311 2.343 6.43 2.293 6.561c-1.55 4.722-11.37 8.149-11.469 8.183a.297.297 0 0 0 .193.561c.416-.143 10.2-3.559 11.835-8.545.01-.023 1.343-3.641-2.672-6.7A.3.3 0 0 0 0 0" style="fill:#37292a;fill-opacity:1;fill-rule:nonzero;stroke:none;stroke-width:.422785" transform="translate(161.425 658.611)"/></g><g style="stroke-width:.422785"><path d="M0 0s26.409.745 24.489-27.911c0 0 .281-7.929-4.004-15.31 0 0 1.019 6.734.974 9.813l.389 3.524s-.045 2.55-2.207 4.862c-.336.674-6.26 6.866-6.26 6.866s-.448.778-1.885.092L1.348-22.3s-1.017-.417-1.376-.357c-.36-.059-1.375.36-1.375.36l-10.137 4.261c-1.435.69-1.885-.087-1.885-.087s-5.94-6.178-6.278-6.851c-2.167-2.306-2.219-4.856-2.219-4.856l.381-3.525c-.052-3.079.95-9.815.95-9.815-4.073 7.129-3.966 15.319-3.966 15.319C-26.408.81 0 0 0 0" style="fill:#ef381f;fill-opacity:1;fill-rule:nonzero;stroke:none;stroke-width:.422785" transform="translate(136.691 722.553)"/></g><g style="stroke-width:.422785"><path d="M0 0q-.03 0-.06.005c-.347.058-.306.413-.292.529.321 2.718 1.139 11.844-1.817 15.183a.369.369 0 0 0 .552.489C1.542 12.637.711 3.242.38.448L.37.359A.373.373 0 0 0 0 0" style="fill:#37292a;fill-opacity:1;fill-rule:nonzero;stroke:none;stroke-width:.422785" transform="translate(149.705 704.668)"/></g><g style="stroke-width:.422785"><path d="M0 0a.37.37 0 0 0-.37.361l-.01.088c-.323 2.795-1.131 12.192 2.036 15.752a.368.368 0 0 0 .55-.49C-.756 12.38.038 3.252.352.534.366.417.407.062.059.005A.3.3 0 0 0 0 0" style="fill:#37292a;fill-opacity:1;fill-rule:nonzero;stroke:none;stroke-width:.422785" transform="translate(123.636 704.7)"/></g><g style="stroke-width:.422785"><path d="m0 0 .746 7.935c-.122 2.253-2.803 2.172-2.803 2.172l.031-9.981" style="fill:#59c13e;fill-opacity:1;fill-rule:nonzero;stroke:none;stroke-width:.422785" transform="translate(138.713 723.713)"/></g><g style="stroke-width:.422785"><path d="m0 0 1.429 4.026c.25.763.425 1.634.139 2.409-.513 1.39-2.515 1.76-3.688.841L-2.78.718S-.462.441 0 0" style="fill:#59c13e;fill-opacity:1;fill-rule:nonzero;stroke:none;stroke-width:.422785" transform="translate(141.452 723.157)"/></g><g style="stroke-width:.422785"><path d="m0 0-.792 7.946c.112 2.253 2.789 2.122 2.789 2.122L2.026.087" style="fill:#59c13e;fill-opacity:1;fill-rule:nonzero;stroke:none;stroke-width:.422785" transform="translate(134.66 723.751)"/></g><g style="stroke-width:.422785"><path d="m0 0-1.4 4.037c-.246.762-.414 1.634-.123 2.407.523 1.389 2.526 1.744 3.692.819L2.784.702S.465.437 0 0" style="fill:#59c13e;fill-opacity:1;fill-rule:nonzero;stroke:none;stroke-width:.422785" transform="translate(131.856 723.186)"/></g><g style="stroke-width:.422785"><path d="M0 0a.368.368 0 0 0-.347.492l1.428 4.026c.3.914.346 1.603.141 2.158-.179.484-.609.855-1.18 1.017-.68.193-1.421.063-1.934-.339a.37.37 0 0 0-.594.327l.132 1.317c-.09 1.784-2.304 1.734-2.396 1.731h-.025c-.241.009-2.307.013-2.407-1.775l.122-1.259a.368.368 0 0 0-.596-.323c-.51.404-1.248.538-1.93.35-.573-.158-1.006-.526-1.188-1.01-.208-.556-.168-1.244.129-2.165L-9.248.518a.369.369 0 1 0-.696-.241l-1.4 4.036c-.224.692-.475 1.711-.12 2.658.266.707.879 1.24 1.681 1.462a3.04 3.04 0 0 0 1.923-.102l-.057.609c.04.775.313 1.356.813 1.784.848.725 2.066.743 2.331.741h.012c1.118.027 3.045-.466 3.142-2.486l-.065-.668a3.04 3.04 0 0 0 1.927.091c.801-.227 1.41-.763 1.671-1.471.349-.945.09-1.966-.135-2.651L.347.245A.37.37 0 0 0 0 0" style="fill:#37292a;fill-opacity:1;fill-rule:nonzero;stroke:none;stroke-width:.422785" transform="translate(141.463 722.945)"/></g><g style="stroke-width:.422785"><path d="M0 0a.367.367 0 0 0-.366.334l-.738 7.875a.368.368 0 1 0 .733.069L.367.403A.367.367 0 0 0 .035.002z" style="fill:#37292a;fill-opacity:1;fill-rule:nonzero;stroke:none;stroke-width:.422785" transform="translate(134.67 723.494)"/></g><g style="stroke-width:.422785"><path d="m0 0-.037.002a.367.367 0 0 0-.33.403l.791 7.874a.375.375 0 0 0 .404.33.37.37 0 0 0 .33-.404L.366.332A.37.37 0 0 0 0 0" style="fill:#37292a;fill-opacity:1;fill-rule:nonzero;stroke:none;stroke-width:.422785" transform="translate(138.668 723.515)"/></g><g style="stroke-width:.422785"><path d="M0 0a6.1 6.1 0 0 0 1.778 1.39c1.123.592 2.345.872 3.56.982q.46.043.922.042a10 10 0 0 0 3.401-.584c.845-.3 1.668-.74 2.372-1.388.333-.307.66-.663.894-1.087.007-.011.048-.106.056-.107L-.373-.507Q-.203-.236 0 0" style="fill:#ef381f;fill-opacity:1;fill-rule:nonzero;stroke:none;stroke-width:.422785" transform="translate(130.386 722.678)"/></g><g style="stroke-width:.422785"><path d="M0 0a.369.369 0 0 0-.312.564c.116.187.249.367.405.551a6.4 6.4 0 0 0 1.886 1.476c1.061.56 2.271.895 3.699 1.024.316.03.639.045.956.044h.005c1.215 0 2.399-.204 3.521-.606.978-.347 1.818-.84 2.496-1.464.34-.313.605-.614.809-.92a.368.368 0 1 0-.613-.409 4.3 4.3 0 0 1-.695.786c-.605.557-1.36.998-2.245 1.313a9.7 9.7 0 0 1-3.274.563h-.029q-.434 0-.863-.041c-1.331-.12-2.449-.428-3.422-.941A5.7 5.7 0 0 1 .654.636 4 4 0 0 1 .313.174.37.37 0 0 0 0 0" style="fill:#37292a;fill-opacity:1;fill-rule:nonzero;stroke:none;stroke-width:.422785" transform="translate(130.012 721.802)"/></g><g style="stroke-width:.422785"><path d="M0 0c-1.958 0-12.072-.37-18.92-7.673-4.657-4.968-6.728-12.013-6.156-20.94 0-.815.133-12.904 7.974-20.792 4.295-4.323 10.084-6.518 17.204-6.527h.043c7.15 0 12.966 2.195 17.284 6.524 7.851 7.87 8.014 19.92 8.016 20.733.594 8.937-1.466 15.993-6.123 20.973C12.468-.372 2.362-.001.406-.001L.219-.002zm0-.737c.142 0 .219-.002.219-.002l.187.001c2.357 0 26.127-.675 24.302-27.913 0 0 .064-26.544-24.563-26.544H.103c-24.571.03-24.442 26.604-24.442 26.604C-26.09-1.462-2.525-.737 0-.737" style="fill:#37292a;fill-opacity:1;fill-rule:nonzero;stroke:none;stroke-width:.422785" transform="translate(136.473 723.293)"/></g><g style="stroke-width:.422785"><path d="m0 0 .179-10.373s-1.259-8.431 6.872-12.628c3.2-1.653 6.373-2.96 14.959-3.297 8.586.316 11.762 1.616 14.966 3.26 8.141 4.178 6.903 12.612 6.903 12.612L44.164-.14M0 0s.057 2.574 2.251 4.896c.34.679 6.347 6.9 6.347 6.9s.455.784 1.899.085l10.222-4.319s1.024-.426 1.387-.368c.361-.061 1.388.359 1.388.359l10.248 4.253c1.45.69 1.902-.096 1.902-.096s5.965-6.26 6.302-6.94c2.176-2.338 2.218-4.91 2.218-4.91" style="fill:#f7d8ca;fill-opacity:1;fill-rule:nonzero;stroke:none;stroke-width:.422785" transform="translate(114.686 692.896)"/></g><g style="stroke-width:.422785"><path d="M0 0c-.002-1.624 1.798-2.943 4.02-2.945C6.241-2.948 8.045-1.634 8.046-.01c.002 1.624-1.797 2.943-4.019 2.945C1.805 2.938.002 1.624 0 0" style="fill:#f68498;fill-opacity:1;fill-rule:nonzero;stroke:none;stroke-width:.422785" transform="translate(148.013 683.793)"/></g><g style="stroke-width:.422785"><path d="M0 0s1.174.047 1.331-1.491l-1.333.001Z" style="fill:#c88e7e;fill-opacity:1;fill-rule:nonzero;stroke:none;stroke-width:.422785" transform="translate(136.719 683.071)"/></g><g style="stroke-width:.422785"><path d="M0 0c-.002-1.624-1.805-2.938-4.027-2.935-2.222.002-4.021 1.321-4.019 2.945s1.805 2.938 4.026 2.935C-1.798 2.943.002 1.624 0 0" style="fill:#f68498;fill-opacity:1;fill-rule:nonzero;stroke:none;stroke-width:.422785" transform="translate(125.42 683.821)"/></g><g style="stroke-width:.422785"><path d="M0 0s-1.174.05-1.335-1.488l1.333-.002Z" style="fill:#c88e7e;fill-opacity:1;fill-rule:nonzero;stroke:none;stroke-width:.422785" transform="translate(136.719 683.071)"/></g><g style="stroke-width:.422785"><path d="m0 0 .179-10.363a.4.4 0 0 0-.004-.061c-.05-.333-1.116-8.224 6.676-12.247 3.177-1.64 6.285-2.922 14.804-3.256 8.493.313 11.603 1.587 14.785 3.219 7.801 4.004 6.754 11.897 6.706 12.231a.3.3 0 0 0-.004.064l.285 10.276c-.005.141-.125 2.516-2.119 4.659a.4.4 0 0 0-.061.087c-.239.47-3.954 4.451-6.238 6.849a.3.3 0 0 0-.053.071c-.008.01-.333.467-1.424-.053L23.266 7.215c-.253-.103-1.076-.428-1.531-.389-.446-.031-1.276.294-1.526.399L9.986 11.544c-1.105.535-1.432.08-1.444.06a1 1 0 0 0-.048-.062c-2.3-2.382-6.04-6.337-6.282-6.808a.4.4 0 0 0-.063-.088C.137 2.515.006.135 0 0m21.654-26.663c-8.699.339-11.881 1.654-15.141 3.337-8.007 4.134-7.146 12.379-7.072 12.977L-.737-.006v.019c.003.139.099 2.733 2.322 5.109.551.879 5.329 5.845 6.358 6.912.15.205.814.922 2.347.182l10.203-4.311c.488-.203 1.036-.365 1.187-.344a.4.4 0 0 0 .118-.001c.144-.022.696.137 1.187.337l10.248 4.252c1.521.724 2.181.002 2.329-.203 1.023-1.073 5.769-6.073 6.314-6.952 2.197-2.383 2.285-4.965 2.288-5.122V-.15l-.285-10.255c.075-.611.906-8.848-7.103-12.959-3.264-1.675-6.45-2.981-15.122-3.299" style="fill:#37292a;fill-opacity:1;fill-rule:nonzero;stroke:none;stroke-width:.422785" transform="translate(115.054 692.893)"/></g><g style="stroke-width:.422785"><path d="M0 0c4.957.236 7.641 1.954 9.09 3.812 1.577 2.024 1.689 4.213 1.661 4.833-.041.919-.355 1.825-1.058 2.417-.566.478-1.408.812-2.596.448-2.637-.809-7.093-1.002-7.099-1.002s-4.462.193-7.099 1.002c-1.188.364-2.029.03-2.595-.448-.704-.592-1.017-1.498-1.059-2.417-.027-.62.084-2.809 1.662-4.833C-7.644 1.954-4.961.236-.003 0" style="fill:#74180d;fill-opacity:1;fill-rule:nonzero;stroke:none;stroke-width:.422785" transform="translate(136.792 667.632)"/></g><g style="stroke-width:.422785"><path d="M0 0a2.1 2.1 0 0 1-1.396-.514c-.558-.47-.887-1.234-.928-2.152-.011-.248-.06-2.482 1.584-4.59 1.744-2.238 4.705-3.473 8.801-3.67 4.095.197 7.056 1.432 8.8 3.67 1.644 2.107 1.595 4.342 1.584 4.59-.041.918-.37 1.682-.927 2.152-.616.519-1.373.646-2.25.377-2.634-.809-7.005-1.01-7.19-1.019-.218.008-4.582.208-7.225 1.019A3 3 0 0 1 0 0m8.062-11.664H8.06c-.001.002-.012 0-.019.001-4.328.206-7.478 1.536-9.363 3.953-1.805 2.317-1.75 4.801-1.739 5.077.051 1.126.473 2.079 1.189 2.682C-1.309.525-.34 1 1.069.568c2.554-.784 6.964-.986 7.008-.987.149.008 4.429.206 6.975.987 1.412.433 2.378-.044 2.941-.519.716-.604 1.138-1.556 1.189-2.682.011-.276.066-2.76-1.74-5.077-1.884-2.417-5.034-3.747-9.362-3.953z" style="fill:#37292a;fill-opacity:1;fill-rule:nonzero;stroke:none;stroke-width:.422785" transform="translate(128.73 678.928)"/></g><g style="stroke-width:.422785"><path d="M0 0c1.05.001 2.542.232 2.542.232 1.646.368 2.766.965 3.443 1.429l.05.035C4.179 3.214.01 3.067-.002 3.067s-4.181.147-6.037-1.371l.05-.035C-5.311 1.197-4.192.6-2.545.232c0 0 1.491-.231 2.542-.232" style="fill:#c62d19;fill-opacity:1;fill-rule:nonzero;stroke:none;stroke-width:.422785" transform="translate(136.792 669.217)"/></g><g style="stroke-width:.422785"><path d="M0 0s-.259-.293-.817-.675c-.677-.465-1.797-1.062-3.444-1.429 0 0-1.491-.232-2.542-.233-1.05.001-2.542.233-2.542.233-1.647.367-2.766.964-3.444 1.429-.557.382-.816.675-.816.675-1.465 1.416-2.256-.047-2.289-.109 1.449-1.858 4.133-3.576 9.091-3.813 4.959.237 7.642 1.955 9.091 3.813C2.255-.047 1.464 1.416 0 0" style="fill:#fff;fill-opacity:1;fill-rule:nonzero;stroke:none;stroke-width:.422785" transform="translate(143.593 671.958)"/></g><g style="stroke-width:.422785"><path d="M0 0c-.09-1.566-.54-4.466-2.495-5.713l-6.461.009s-1.367.548-2.51 2.575z" style="fill:#fff;fill-opacity:1;fill-rule:nonzero;stroke:none;stroke-width:.422785" transform="translate(152.109 691.771)"/></g><g style="stroke-width:.422785"><path d="M0 0a.369.369 0 0 0-.096.725l11.853 3.193c.2.054.398-.064.452-.26a.37.37 0 0 0-.26-.452L.096.013A.4.4 0 0 0 0 0" style="fill:#37292a;fill-opacity:1;fill-rule:nonzero;stroke:none;stroke-width:.422785" transform="translate(140.382 688.371)"/></g><g style="stroke-width:.422785"><path d="M0 0h-.001l-6.83.008a.37.37 0 0 0 .001.737L.001.737A.368.368 0 0 0 0 0" style="fill:#a07a6f;fill-opacity:1;fill-rule:nonzero;stroke:none;stroke-width:.422785" transform="translate(149.754 685.465)"/></g><g style="stroke-width:.422785"><path d="M0 0c.086-1.566.529-4.467 2.481-5.719l6.461-.007s1.368.545 2.516 2.569z" style="fill:#fff;fill-opacity:1;fill-rule:nonzero;stroke:none;stroke-width:.422785" transform="translate(121.342 691.81)"/></g><g style="stroke-width:.422785"><path d="M0 0a.4.4 0 0 0-.097.013l-11.845 3.223a.367.367 0 0 0-.258.452c.053.196.25.313.452.259L.097.724A.369.369 0 0 0 0 0" style="fill:#37292a;fill-opacity:1;fill-rule:nonzero;stroke:none;stroke-width:.422785" transform="translate(133.062 688.38)"/></g><g style="stroke-width:.422785"><path d="M0 0h-.001l-6.83.008a.37.37 0 0 0 .001.737L.001.737A.368.368 0 0 0 0 0" style="fill:#a07a6f;fill-opacity:1;fill-rule:nonzero;stroke:none;stroke-width:.422785" transform="translate(130.513 685.489)"/></g><g style="stroke-width:.422785"><path d="M0 0a1.505 1.505 0 0 1 2.916.528q0 .13-.021.254Z" style="fill:#37292a;fill-opacity:1;fill-rule:nonzero;stroke:none;stroke-width:.422785" transform="translate(143.073 689.117)"/></g><g style="stroke-width:.422785"><path d="M0 0a1.507 1.507 0 0 0-2.893.789z" style="fill:#37292a;fill-opacity:1;fill-rule:nonzero;stroke:none;stroke-width:.422785" transform="translate(130.373 689.132)"/></g><g style="stroke-width:.422785"><path d="M0 0c.151.016.3.064.422.135l9.303 6.028c.36.233.349.586.115.947-.233.36-.6.59-.959.358L.371 1.85s-.521.695-.911.678c-.489-.023-.422-.848-.43-1.416C-.976.61-.797.141-.333.02A.9.9 0 0 1 0 0" style="fill:#37292a;fill-opacity:1;fill-rule:nonzero;stroke:none;stroke-width:.422785" transform="translate(139.207 691.662)"/></g><g style="stroke-width:.422785"><path d="M0 0c-.151.016-.3.065-.422.136L-9.71 6.187c-.36.234-.348.587-.113.947s.602.589.961.355l8.495-5.638s.523.694.913.675c.489-.023.42-.848.426-1.416C.977.607.797.138.334.02A.9.9 0 0 0 0 0" style="fill:#37292a;fill-opacity:1;fill-rule:nonzero;stroke:none;stroke-width:.422785" transform="translate(134.249 691.668)"/></g><g style="stroke-width:.422785"><path d="M0 0c-1.414 0-2.799-.218-4.128-.649A6.45 6.45 0 0 1-6.952 0a6.4 6.4 0 0 1-3.335-.929A6.4 6.4 0 0 1-13.621 0a6.45 6.45 0 0 1-2.825-.649A13.3 13.3 0 0 1-20.574 0a13.44 13.44 0 0 1-9.461-3.916A11.105 11.105 0 0 1-43.13-1.011a11.18 11.18 0 0 1-7.269.693A6.456 6.456 0 0 1-57.2-2.14a7.53 7.53 0 0 1-3.922 2.02c.734 2.024 1.041 4.412 1.041 7.723 0 8.199-6.67 14.87-14.87 14.87S-89.82 15.802-89.82 7.603c0-3.311.306-5.699 1.04-7.723-3.522-.635-6.203-3.723-6.203-7.426v-2.372c0-3.692 2.667-6.775 6.176-7.421a7.6 7.6 0 0 1-1.256-3.734c-.005-.261-.04-2.57-.011-3.198a7.52 7.52 0 0 1 2.199-4.972 7.5 7.5 0 0 1 5.336-2.212c2.015 0 3.91.785 5.335 2.211l2.253 2.252 2.253-2.253a7.5 7.5 0 0 1 5.336-2.207c2.017 0 3.912.784 5.335 2.208a7.5 7.5 0 0 1 2.21 5.335c0 .592-.016 2.801-.016 2.801l-.005.109a7.6 7.6 0 0 1-1.255 3.659c.786.144 1.536.41 2.225.784v-5.775a6.474 6.474 0 0 1 6.468-6.467c1.786 0 3.444.74 4.635 1.962a6.48 6.48 0 0 1 4.635-1.962 6.48 6.48 0 0 1 4.636 1.962 6.47 6.47 0 0 1 4.635-1.962c1.985 0 3.831.933 5.038 2.426a13.45 13.45 0 0 1 8.247-2.842c1.611 0 3.175.281 4.662.834a6.5 6.5 0 0 1 2.291-.418c1.189 0 2.335.323 3.334.928a6.4 6.4 0 0 1 3.335-.928 6.474 6.474 0 0 1 6.467 6.467c0 .268.218.486.485.486a.486.486 0 0 0 .485-.486 6.475 6.475 0 0 1 6.468-6.467 6.475 6.475 0 0 1 6.468 6.467v8.91C13.421-6.021 7.4 0 0 0" style="fill:#37292a;fill-opacity:1;fill-rule:nonzero;stroke:none;stroke-width:.422785" transform="translate(175.426 655.16)"/></g><g style="stroke-width:.422785"><path d="M0 0a11.7 11.7 0 0 1-4.286-.808A4.8 4.8 0 0 1-6.953 0a4.8 4.8 0 0 1-3.334-1.352A4.79 4.79 0 0 1-13.621 0a4.8 4.8 0 0 1-2.667-.808A11.7 11.7 0 0 1-20.574 0c-3.961 0-7.469-1.971-9.601-4.982C-31.77-2.019-34.9 0-38.494 0a9.37 9.37 0 0 1-4.636-1.214A9.36 9.36 0 0 1-47.765 0a9.5 9.5 0 0 1-2.717-.4c-.597.26-1.249.4-1.918.4a4.81 4.81 0 0 1-4.646-3.592A5.89 5.89 0 0 1-62.465 0h-1.24c1.236 2.009 1.963 4.398 1.963 9.264 0 7.284-5.926 13.209-13.209 13.209S-88.16 16.548-88.16 9.264c0-4.866.727-7.255 1.963-9.264h-1.24a5.89 5.89 0 0 1-5.884-5.885v-2.372a5.89 5.89 0 0 1 5.884-5.885h2.309l-1.573-1.572a5.9 5.9 0 0 1-1.702-3.725s-.04-2.499-.012-3.091a5.86 5.86 0 0 1 1.714-3.879 5.85 5.85 0 0 1 4.161-1.724h.001c1.572 0 3.049.613 4.161 1.724l3.428 3.427 3.426-3.427a5.89 5.89 0 0 1 8.323 0 5.85 5.85 0 0 1 1.723 4.161c0 .589-.016 2.789-.016 2.789a5.9 5.9 0 0 1-1.707 3.745l-1.573 1.572h2.309a5.89 5.89 0 0 1 5.258 3.247v-9.774a4.813 4.813 0 0 1 4.807-4.808 4.815 4.815 0 0 1 4.635 3.532 4.815 4.815 0 0 1 4.635-3.532 4.816 4.816 0 0 1 4.636 3.532 4.814 4.814 0 0 1 4.635-3.532 4.81 4.81 0 0 1 4.601 3.424 11.73 11.73 0 0 1 8.684-3.839c1.636 0 3.224.334 4.694.977a4.8 4.8 0 0 1 5.593.791 4.8 4.8 0 0 1 3.334-1.353 4.813 4.813 0 0 1 4.807 4.808c0 1.183.963 2.146 2.146 2.146a2.15 2.15 0 0 0 2.146-2.146 4.813 4.813 0 0 1 4.807-4.808 4.813 4.813 0 0 1 4.807 4.808v8.909C11.76-5.276 6.484 0 0 0" style="fill:#ef381f;fill-opacity:1;fill-rule:nonzero;stroke:none;stroke-width:.422785" transform="translate(175.426 653.498)"/></g><g style="stroke-width:.422785"><path d="M0 0a6.47 6.47 0 0 1-4.635-1.952 6.474 6.474 0 0 1-7.747 1.156 1.858 1.858 0 0 1-3.382-1.063v-13.49a1.858 1.858 0 0 1 3.717 0v8.855A2.78 2.78 0 0 0-9.27-3.717a2.78 2.78 0 0 0 2.776-2.777v-8.855a1.858 1.858 0 0 1 3.717 0v8.855A2.78 2.78 0 0 0 0-3.717a2.78 2.78 0 0 0 2.777-2.777v-8.855a1.858 1.858 0 0 1 3.717 0v8.855A6.5 6.5 0 0 1 0 0" style="fill:#fff;fill-opacity:1;fill-rule:nonzero;stroke:none;stroke-width:.422785" transform="translate(136.932 650.55)"/></g><g style="stroke-width:.422785"><path d="M0 0a3.205 3.205 0 0 0 3.202-3.202v-8.854c0-.79.643-1.434 1.433-1.434.791 0 1.434.644 1.434 1.434v8.854A6.076 6.076 0 0 1 0 2.867a6.02 6.02 0 0 1-4.332-1.824.44.44 0 0 0-.607 0A6.02 6.02 0 0 1-9.27 2.867a6.07 6.07 0 0 1-2.908-.743.424.424 0 0 0-.552.129 1.435 1.435 0 0 1-2.609-.819v-13.49c0-.79.643-1.434 1.433-1.434.791 0 1.434.644 1.434 1.434v8.854A3.205 3.205 0 0 0-9.27 0a3.205 3.205 0 0 0 3.201-3.202v-8.854c0-.79.643-1.434 1.434-1.434s1.433.644 1.433 1.434v8.854A3.205 3.205 0 0 0 0 0m4.635-14.339a2.285 2.285 0 0 0-2.283 2.283v8.854A2.355 2.355 0 0 1 0-.85a2.355 2.355 0 0 1-2.352-2.352v-8.854a2.285 2.285 0 0 0-2.283-2.283 2.286 2.286 0 0 0-2.284 2.283v8.854A2.354 2.354 0 0 1-9.27-.85a2.355 2.355 0 0 1-2.352-2.352v-8.854a2.286 2.286 0 0 0-2.284-2.283 2.286 2.286 0 0 0-2.283 2.283v13.49a2.286 2.286 0 0 0 2.283 2.283 2.3 2.3 0 0 0 1.632-.687c.932.45 1.964.687 3.004.687 1.73 0 3.36-.631 4.635-1.787A6.85 6.85 0 0 0 0 3.717a6.927 6.927 0 0 0 6.919-6.919v-8.854a2.286 2.286 0 0 0-2.284-2.283" style="fill:#fff;fill-opacity:1;fill-rule:nonzero;stroke:none;stroke-width:.422785" transform="translate(136.932 647.257)"/></g><g style="stroke-width:.422785"><path d="M0 0h-24.971a2.936 2.936 0 1 1 0-5.873H0A2.937 2.937 0 1 1 0 0" style="fill:#fff;fill-opacity:1;fill-rule:nonzero;stroke:none;stroke-width:.422785" transform="translate(112.96 650.55)"/></g><g style="stroke-width:.422785"><path d="M0 0a2.514 2.514 0 0 1-2.512-2.511A2.515 2.515 0 0 1 0-5.023h24.971a2.514 2.514 0 0 1 2.512 2.512A2.514 2.514 0 0 1 24.971 0Zm24.971-5.873H0a3.366 3.366 0 0 0-3.362 3.362A3.365 3.365 0 0 0 0 .85h24.971a3.365 3.365 0 0 0 3.362-3.361 3.366 3.366 0 0 0-3.362-3.362" style="fill:#fff;fill-opacity:1;fill-rule:nonzero;stroke:none;stroke-width:.422785" transform="translate(87.99 650.125)"/></g><g style="stroke-width:.422785"><path d="M0 0a4.39 4.39 0 0 0 4.387-4.387A4.39 4.39 0 0 0 0-8.774a4.39 4.39 0 0 0-4.387 4.387A4.39 4.39 0 0 0 0 0m0-14.647c5.658 0 10.26 4.603 10.26 10.26S5.658 5.873 0 5.873-10.26 1.27-10.26-4.387-5.658-14.647 0-14.647" style="fill:#fff;fill-opacity:1;fill-rule:nonzero;stroke:none;stroke-width:.422785" transform="translate(100.475 667.15)"/></g><g style="stroke-width:.422785"><path d="M0 0a3.967 3.967 0 0 1-3.962-3.962A3.966 3.966 0 0 1 0-7.924a3.966 3.966 0 0 1 3.962 3.962A3.967 3.967 0 0 1 0 0m0-8.774a4.817 4.817 0 0 0-4.812 4.812A4.817 4.817 0 0 0 0 .85a4.82 4.82 0 0 0 4.812-4.812A4.817 4.817 0 0 0 0-8.774M0 5.873c-5.424 0-9.836-4.412-9.836-9.835S-5.424-13.797 0-13.797c5.423 0 9.836 4.412 9.836 9.835S5.423 5.873 0 5.873m0-20.52c-5.892 0-10.685 4.793-10.685 10.685S-5.892 6.723 0 6.723 10.685 1.93 10.685-3.962 5.892-14.647 0-14.647" style="fill:#fff;fill-opacity:1;fill-rule:nonzero;stroke:none;stroke-width:.422785" transform="translate(100.475 666.725)"/></g><g style="stroke-width:.422785"><path d="M0 0a2.936 2.936 0 0 1-4.153 0l-7.588-7.588a2.936 2.936 0 0 1 4.152-4.153l5.513 5.512 5.511-5.512a2.936 2.936 0 1 1 4.153 4.153z" style="fill:#fff;fill-opacity:1;fill-rule:nonzero;stroke:none;stroke-width:.422785" transform="translate(102.552 643.287)"/></g><g style="stroke-width:.422785"><path d="M0 0a2.5 2.5 0 0 1-1.776-.734l-7.588-7.588a2.5 2.5 0 0 1-.736-1.776c0-.671.261-1.301.736-1.776a2.49 2.49 0 0 1 1.774-.735h.001c.672 0 1.302.26 1.776.735l5.512 5.512a.426.426 0 0 0 .602 0l5.511-5.512a2.515 2.515 0 0 1 3.552 0 2.515 2.515 0 0 1 0 3.552L1.776-.734A2.5 2.5 0 0 1 0 0m-7.59-13.459c-.898 0-1.741.349-2.376.984a3.34 3.34 0 0 0-.984 2.377c0 .897.35 1.742.985 2.377l7.588 7.588a3.367 3.367 0 0 0 4.754 0l7.588-7.588a3.367 3.367 0 0 0 0-4.754 3.365 3.365 0 0 0-4.754 0L0-7.264l-5.212-5.211a3.34 3.34 0 0 0-2.376-.984z" style="fill:#fff;fill-opacity:1;fill-rule:nonzero;stroke:none;stroke-width:.422785" transform="translate(100.476 643.72)"/></g><g style="stroke-width:.422785"><path d="M0 0a8.77 8.77 0 0 1-5.109-1.639 1.857 1.857 0 0 1-3.702-.22v-13.49a1.858 1.858 0 0 1 3.717 0v6.538A5.1 5.1 0 0 0 0-3.717a5.1 5.1 0 0 0 5.094-5.094v-6.538a1.858 1.858 0 0 1 3.717 0v6.538C8.811-3.953 4.858 0 0 0" style="fill:#fff;fill-opacity:1;fill-rule:nonzero;stroke:none;stroke-width:.422785" transform="translate(175.426 650.55)"/></g><g style="stroke-width:.422785"><path d="M0 0a5.525 5.525 0 0 0 5.519-5.519v-6.537c0-.79.643-1.434 1.434-1.434s1.433.644 1.433 1.434v6.537C8.386-.895 4.624 2.867 0 2.867a8.32 8.32 0 0 1-4.862-1.559.425.425 0 0 0-.669.296 1.43 1.43 0 0 1-1.422 1.263c-.79 0-1.433-.643-1.433-1.433v-13.49c0-.79.643-1.434 1.433-1.434.791 0 1.434.644 1.434 1.434v6.537A5.525 5.525 0 0 0 0 0m6.953-14.339a2.286 2.286 0 0 0-2.284 2.283v6.537A4.674 4.674 0 0 1 0-.85a4.674 4.674 0 0 1-4.669-4.669v-6.537a2.286 2.286 0 0 0-2.284-2.283 2.285 2.285 0 0 0-2.283 2.283v13.49a2.283 2.283 0 0 0 4.381.9A9.16 9.16 0 0 0 0 3.717c5.093 0 9.236-4.143 9.236-9.236v-6.537a2.285 2.285 0 0 0-2.283-2.283" style="fill:#fff;fill-opacity:1;fill-rule:nonzero;stroke:none;stroke-width:.422785" transform="translate(175.426 647.257)"/></g><g style="stroke-width:.422785"><path d="M0 0a5.1 5.1 0 0 0-5.094 5.094A5.1 5.1 0 0 0 0 10.188a5.1 5.1 0 0 0 5.094-5.094A5.1 5.1 0 0 0 0 0m6.953 13.906a1.86 1.86 0 0 1-1.844-1.639A8.76 8.76 0 0 1 0 13.906c-4.858 0-8.811-3.953-8.811-8.812C-8.811.236-4.858-3.717 0-3.717c1.938 0 3.731.63 5.188 1.695a1.858 1.858 0 0 1 3.623.579v13.49a1.86 1.86 0 0 1-1.858 1.859" style="fill:#fff;fill-opacity:1;fill-rule:nonzero;stroke:none;stroke-width:.422785" transform="translate(154.852 636.644)"/></g><g style="stroke-width:.422785"><path d="M0 0a4.674 4.674 0 0 1-4.669-4.669A4.674 4.674 0 0 1 0-9.339a4.675 4.675 0 0 1 4.669 4.67A4.675 4.675 0 0 1 0 0m0-10.188a5.525 5.525 0 0 0-5.519 5.519A5.525 5.525 0 0 0 0 .85a5.525 5.525 0 0 0 5.519-5.519A5.525 5.525 0 0 0 0-10.188M0 3.717c-4.624 0-8.386-3.762-8.386-8.386 0-4.625 3.762-8.386 8.386-8.386 1.786 0 3.493.557 4.936 1.613a.427.427 0 0 0 .655-.211c.194-.59.741-.987 1.362-.987.79 0 1.433.643 1.433 1.433V2.284c0 .79-.643 1.433-1.433 1.433a1.43 1.43 0 0 1-1.422-1.264.426.426 0 0 0-.669-.295A8.32 8.32 0 0 1 0 3.717m0-17.622c-5.093 0-9.236 4.143-9.236 9.236S-5.093 4.567 0 4.567a9.16 9.16 0 0 0 4.855-1.384 2.282 2.282 0 0 0 4.381-.899v-13.491a2.286 2.286 0 0 0-2.283-2.283c-.801 0-1.525.414-1.935 1.072A9.15 9.15 0 0 0 0-13.905" style="fill:#fff;fill-opacity:1;fill-rule:nonzero;stroke:none;stroke-width:.422785" transform="translate(154.852 646.408)"/></g></g><g style="stroke-width:.422785"><path d="M85.171 646.833a2.93 2.93 0 0 1 2.817-2.158h24.973a2.93 2.93 0 0 1 2.819 2.158z" style="fill:url(#d);stroke:none;stroke-width:.422785" transform="matrix(5.26333 0 0 -5.26333 -414.454 3878.772)"/></g><g style="stroke-width:.422785"><path d="m98.399 643.289-7.589-7.59a2.936 2.936 0 0 1 0-4.153 2.92 2.92 0 0 1 2.077-.859c.753 0 1.503.286 2.077.859l5.511 5.512 5.512-5.512a2.937 2.937 0 0 1 4.152 0 2.934 2.934 0 0 1 0 4.153l-7.588 7.59a2.938 2.938 0 0 1-4.152 0" style="fill:url(#e);stroke:none;stroke-width:.422785" transform="matrix(5.26333 0 0 -5.26333 -414.454 3878.772)"/></g><g style="stroke-width:.422785"><path d="M121.167 644.675v-9.474a1.859 1.859 0 0 1 3.718 0v8.855c0 .213.03.421.076.619z" style="fill:url(#f);stroke:none;stroke-width:.422785" transform="matrix(5.26333 0 0 -5.26333 -414.454 3878.772)"/></g><g style="stroke-width:.422785"><path d="M130.361 644.675c.047-.198.077-.406.077-.619v-8.855a1.858 1.858 0 0 1 3.717 0v8.855c0 .213.031.421.075.619z" style="fill:url(#g);stroke:none;stroke-width:.422785" transform="matrix(5.26333 0 0 -5.26333 -414.454 3878.772)"/></g><g style="stroke-width:.422785"><path d="M139.631 644.675a2.6 2.6 0 0 0 .077-.619v-8.855a1.86 1.86 0 0 1 3.718 0v8.855c0 .211-.016.416-.039.619z" style="fill:url(#h);stroke:none;stroke-width:.422785" transform="matrix(5.26333 0 0 -5.26333 -414.454 3878.772)"/></g><g style="stroke-width:.422785"><path d="M179.573 644.675c.592-.83.948-1.84.948-2.935v-6.539c0-1.026.832-1.857 1.858-1.857s1.858.831 1.858 1.857v6.539a8.6 8.6 0 0 1-.525 2.935z" style="fill:url(#i);stroke:none;stroke-width:.422785" transform="matrix(5.26333 0 0 -5.26333 -414.454 3878.772)"/></g><g style="stroke-width:.422785"><path d="M166.613 644.675v-9.474a1.86 1.86 0 0 1 1.861-1.857c1.026 0 1.858.831 1.858 1.857v6.539c0 1.095.356 2.105.948 2.935z" style="fill:url(#j);stroke:none;stroke-width:.422785" transform="matrix(5.26333 0 0 -5.26333 -414.454 3878.772)"/></g><g style="stroke-width:.422785"><path d="M158.999 644.675c.592-.83.947-1.84.947-2.935a5.1 5.1 0 0 0-5.094-5.095 5.1 5.1 0 0 0-5.094 5.095c0 1.095.356 2.105.947 2.935h-4.14a8.7 8.7 0 0 1-.524-2.935c0-4.86 3.952-8.812 8.811-8.812 1.938 0 3.732.63 5.188 1.694a1.857 1.857 0 0 1 3.624.579v9.474z" style="fill:url(#k);stroke:none;stroke-width:.422785" transform="matrix(5.26333 0 0 -5.26333 -414.454 3878.772)"/></g><g clip-path="url(#l)" style="stroke-width:.422785" transform="matrix(5.26333 0 0 -5.26333 -414.454 3878.772)"><g style="stroke-width:.422785"><path d="M0 0a2.94 2.94 0 0 0 2.937-2.937v-8.854a1.7 1.7 0 0 1 1.699-1.699 1.7 1.7 0 0 1 1.698 1.699v8.854A6.34 6.34 0 0 1 0 3.397a6.3 6.3 0 0 1-4.522-1.904.16.16 0 0 0-.113-.047.16.16 0 0 0-.114.047 6.28 6.28 0 0 1-4.52 1.904 6.3 6.3 0 0 1-3.035-.775.16.16 0 0 0-.208.048 1.7 1.7 0 0 1-3.092-.971v-13.49a1.7 1.7 0 0 1 1.699-1.699 1.7 1.7 0 0 1 1.699 1.699v8.854A2.94 2.94 0 0 0-9.269 0a2.94 2.94 0 0 0 2.935-2.937v-8.854a1.7 1.7 0 0 1 1.699-1.699c.936 0 1.699.762 1.699 1.699v8.854A2.94 2.94 0 0 0 0 0m4.636-13.809a2.02 2.02 0 0 0-2.018 2.018v8.854A2.62 2.62 0 0 1 0-.319a2.62 2.62 0 0 1-2.616-2.618v-8.854a2.02 2.02 0 0 0-2.019-2.018 2.02 2.02 0 0 0-2.018 2.018v8.854A2.62 2.62 0 0 1-9.269-.319a2.62 2.62 0 0 1-2.618-2.618v-8.854a2.02 2.02 0 0 0-2.018-2.018 2.02 2.02 0 0 0-2.018 2.018v13.49a2.02 2.02 0 0 0 2.018 2.018c.609 0 1.186-.279 1.569-.75.941.49 2 .75 3.067.75a6.6 6.6 0 0 0 4.634-1.885A6.6 6.6 0 0 0 0 3.717a6.66 6.66 0 0 0 6.653-6.654v-8.854a2.02 2.02 0 0 0-2.017-2.018" style="fill:#fff;fill-opacity:1;fill-rule:nonzero;stroke:none;stroke-width:.422785" transform="translate(136.931 646.992)"/></g><g style="stroke-width:.422785"><path d="M0 0a2.78 2.78 0 0 1-2.776-2.777A2.78 2.78 0 0 1 0-5.553h24.971a2.78 2.78 0 0 1 2.778 2.776A2.78 2.78 0 0 1 24.971 0Zm24.971-5.872H0a3.1 3.1 0 0 0-3.095 3.095A3.1 3.1 0 0 0 0 .319h24.971a3.1 3.1 0 0 0 3.097-3.096 3.1 3.1 0 0 0-3.097-3.095" style="fill:#fff;fill-opacity:1;fill-rule:nonzero;stroke:none;stroke-width:.422785" transform="translate(87.989 650.39)"/></g><g style="stroke-width:.422785"><path d="M0 0a4.233 4.233 0 0 1-4.227-4.228A4.23 4.23 0 0 1 0-8.455a4.23 4.23 0 0 1 4.228 4.227A4.233 4.233 0 0 1 0 0m0-8.775a4.55 4.55 0 0 0-4.546 4.547A4.55 4.55 0 0 0 0 .319a4.55 4.55 0 0 0 4.547-4.547A4.55 4.55 0 0 0 0-8.775M0 5.872c-5.57 0-10.1-4.531-10.1-10.1 0-5.57 4.53-10.101 10.1-10.101S10.102-9.798 10.102-4.228c0 5.569-4.532 10.1-10.102 10.1m0-20.52c-5.746 0-10.419 4.674-10.419 10.42S-5.746 6.191 0 6.191 10.421 1.517 10.421-4.228c0-5.746-4.675-10.42-10.421-10.42" style="fill:#fff;fill-opacity:1;fill-rule:nonzero;stroke:none;stroke-width:.422785" transform="translate(100.475 666.99)"/></g><g style="stroke-width:.422785"><path d="M0 0a2.77 2.77 0 0 1-1.964-.81l-7.589-7.589a2.76 2.76 0 0 1-.813-1.964c0-.742.289-1.439.813-1.964a2.76 2.76 0 0 1 1.964-.813c.742 0 1.44.288 1.964.813l5.513 5.512a.16.16 0 0 0 .224 0l5.511-5.512a2.778 2.778 0 0 1 3.928 3.928L1.964-.81C1.422-.27.711 0 0 0m-7.589-13.459c-.827 0-1.604.321-2.188.907a3.07 3.07 0 0 0-.908 2.189c0 .827.322 1.605.908 2.189l7.588 7.588a3.097 3.097 0 0 0 4.378 0l7.587-7.588a3.07 3.07 0 0 0 .908-2.189 3.098 3.098 0 0 0-5.285-2.189L0-7.153l-5.4-5.399a3.07 3.07 0 0 0-2.189-.907" style="fill:#fff;fill-opacity:1;fill-rule:nonzero;stroke:none;stroke-width:.422785" transform="translate(100.476 643.985)"/></g><g style="stroke-width:.422785"><path d="M0 0a5.26 5.26 0 0 0 5.254-5.254v-6.537a1.7 1.7 0 0 1 1.699-1.699 1.7 1.7 0 0 1 1.699 1.699v6.537c0 4.77-3.881 8.651-8.652 8.651a8.57 8.57 0 0 1-5.014-1.609.16.16 0 0 0-.159-.015.15.15 0 0 0-.093.126 1.7 1.7 0 0 1-3.386-.2v-13.49a1.7 1.7 0 0 1 3.399 0v6.537A5.26 5.26 0 0 0 0 0m6.953-13.809a2.02 2.02 0 0 0-2.018 2.018v6.537A4.94 4.94 0 0 1 0-.319a4.94 4.94 0 0 1-4.934-4.935v-6.537a2.02 2.02 0 0 0-2.019-2.018 2.02 2.02 0 0 0-2.018 2.018v13.49a2.02 2.02 0 0 0 2.018 2.018c.934 0 1.736-.641 1.958-1.527A8.9 8.9 0 0 0 0 3.717c4.947 0 8.971-4.024 8.971-8.971v-6.537a2.02 2.02 0 0 0-2.018-2.018" style="fill:#fff;fill-opacity:1;fill-rule:nonzero;stroke:none;stroke-width:.422785" transform="translate(175.426 646.992)"/></g><g style="stroke-width:.422785"><path d="M0 0a4.94 4.94 0 0 1-4.935-4.935A4.94 4.94 0 0 1 0-9.87a4.94 4.94 0 0 1 4.934 4.935A4.94 4.94 0 0 1 0 0m0-10.188a5.26 5.26 0 0 0-5.254 5.253A5.26 5.26 0 0 0 0 .319a5.26 5.26 0 0 0 5.253-5.254A5.26 5.26 0 0 0 0-10.188M0 3.717c-4.771 0-8.652-3.882-8.652-8.652S-4.771-13.586 0-13.586c1.842 0 3.603.576 5.093 1.664a.15.15 0 0 0 .142.023.16.16 0 0 0 .104-.102c.23-.699.878-1.17 1.613-1.17.936 0 1.7.762 1.7 1.698V2.018c0 .937-.764 1.699-1.7 1.699a1.7 1.7 0 0 1-1.686-1.499.16.16 0 0 0-.093-.126.15.15 0 0 0-.158.015A8.6 8.6 0 0 1 0 3.717m0-17.622c-4.947 0-8.971 4.024-8.971 8.97S-4.947 4.036 0 4.036c1.79 0 3.512-.528 4.995-1.527a2.02 2.02 0 0 0 1.957 1.527 2.02 2.02 0 0 0 2.019-2.018v-13.491a2.02 2.02 0 0 0-2.019-2.017c-.802 0-1.516.471-1.839 1.191A8.9 8.9 0 0 0 0-13.905" style="fill:#fff;fill-opacity:1;fill-rule:nonzero;stroke:none;stroke-width:.422785" transform="translate(154.852 646.673)"/></g><g style="stroke-width:.422785"><path d="M0 0q-.095 0-.128.021A.2.2 0 0 0-.191.12l-1.875 4.815q-.045.107-.015.171c.015.043.057.064.143.064h.767a.6.6 0 0 0 .135-.014.2.2 0 0 0 .056-.078L.369 1.527l1.349 3.551a.16.16 0 0 0 .065.078.4.4 0 0 0 .127.014h.767q.118 0 .15-.064.02-.064-.022-.171L.931.12A.5.5 0 0 0 .867.021.3.3 0 0 0 .739 0Z" style="fill:#37292a;fill-opacity:1;fill-rule:nonzero;stroke:none;stroke-width:.422785" transform="translate(103.482 614.102)"/></g><g style="stroke-width:.422785"><path d="M0 0c.256 0 .497.036.717.121q.32.117.554.341.225.213.355.532.128.308.128.689c0 .249-.043.476-.128.689a1.6 1.6 0 0 1-.355.533 1.8 1.8 0 0 1-.554.34q-.331.12-.717.121a2 2 0 0 1-.717-.121 1.7 1.7 0 0 1-.554-.34 1.5 1.5 0 0 1-.355-.533 1.8 1.8 0 0 1-.128-.689q0-.381.128-.689c.085-.212.198-.39.355-.532q.224-.224.554-.341C-.504.036-.27 0 0 0m0 4.41c.426 0 .816-.071 1.171-.199q.534-.2.917-.561c.255-.241.454-.532.596-.859q.214-.511.214-1.108A2.7 2.7 0 0 0 2.684.582a2.5 2.5 0 0 0-.596-.866 2.7 2.7 0 0 0-.917-.561A3.5 3.5 0 0 0 0-1.044c-.426 0-.816.072-1.171.199a2.7 2.7 0 0 0-.917.561 2.5 2.5 0 0 0-.596.866 2.7 2.7 0 0 0-.213 1.101q0 .597.213 1.108c.142.327.341.618.596.859q.383.361.917.561c.355.128.745.199 1.171.199" style="fill:#37292a;fill-opacity:1;fill-rule:nonzero;stroke:none;stroke-width:.422785" transform="translate(109.463 615.003)"/></g><g style="stroke-width:.422785"><path d="M0 0q0 .17.17.17h.767q.171 0 .171-.17v-4.027h2.244q.17 0 .171-.17v-.632Q3.523-5 3.352-5H.327q-.192 0-.256.065c-.05.049-.071.141-.071.27Z" style="fill:#37292a;fill-opacity:1;fill-rule:nonzero;stroke:none;stroke-width:.422785" transform="translate(113.267 619.101)"/></g><g style="stroke-width:.422785"><path d="M0 0q0 .17.17.17h.767q.171 0 .171-.17v-4.027h2.244q.171 0 .171-.17v-.632Q3.523-5 3.352-5H.327q-.192 0-.256.065c-.05.049-.071.141-.071.27Z" style="fill:#37292a;fill-opacity:1;fill-rule:nonzero;stroke:none;stroke-width:.422785" transform="translate(117.504 619.101)"/></g><g style="stroke-width:.422785"><path d="M0 0q.17 0 .17-.17v-.633q0-.17-.17-.169h-2.386v-1.087h2.315q.17 0 .171-.171v-.632q0-.17-.171-.17h-2.315v-1.165H.035q.171 0 .171-.17V-5q0-.17-.171-.169h-3.202q-.193 0-.256.063-.073.077-.071.27v4.502q-.002.194.071.27.063.064.256.064Z" style="fill:#37292a;fill-opacity:1;fill-rule:nonzero;stroke:none;stroke-width:.422785" transform="translate(125.237 619.271)"/></g><g style="stroke-width:.422785"><path d="M0 0v-1.776q0-.147-.064-.219-.064-.064-.213-.064h-.554q-.148 0-.213.064-.064.072-.064.219V0l-1.775 2.933q-.064.096-.022.17.023.064.15.064h.752a.5.5 0 0 0 .121-.014c.022-.014.043-.043.071-.078L-.554.98.703 3.075a.2.2 0 0 0 .071.078.4.4 0 0 0 .121.014h.752q.117 0 .157-.064a.22.22 0 0 0-.028-.17Z" style="fill:#37292a;fill-opacity:1;fill-rule:nonzero;stroke:none;stroke-width:.422785" transform="translate(128.89 616.161)"/></g><g style="stroke-width:.422785"><path d="M0 0q.415-.002.596.135.171.128.171.447c0 .213-.057.362-.171.455-.121.085-.319.134-.596.134h-1.52V0Zm.532 2.684c0 .355-.227.54-.667.54H-1.52v-1.08h1.385c.44 0 .667.178.667.54M-2.301-.973q-.192 0-.256.064-.072.077-.071.27v4.502q-.001.193.071.27.064.064.256.064h2.258q.812 0 1.25-.362c.284-.249.433-.583.433-.995a1.4 1.4 0 0 0-.163-.646 1.2 1.2 0 0 0-.476-.49q.396-.17.632-.49c.149-.227.227-.461.227-.717q0-.768-.468-1.122C1.079-.853.604-.973-.029-.973Z" style="fill:#37292a;fill-opacity:1;fill-rule:nonzero;stroke:none;stroke-width:.422785" transform="translate(134.02 615.075)"/></g><g style="stroke-width:.422785"><path d="M0 0h1.271L.639 1.662Zm1.008 3.195a.3.3 0 0 0 .128-.021.4.4 0 0 0 .064-.099L3.075-1.74q.042-.107.022-.17-.033-.065-.15-.065H2.18a.4.4 0 0 0-.128.015.14.14 0 0 0-.064.078l-.348.909H-.369l-.341-.909a.2.2 0 0 0-.057-.078.6.6 0 0 0-.135-.015h-.767c-.085 0-.128.022-.142.065q-.03.063.014.17L.078 3.075a.2.2 0 0 0 .064.099q.032.021.127.021z" style="fill:#37292a;fill-opacity:1;fill-rule:nonzero;stroke:none;stroke-width:.422785" transform="translate(138.112 616.076)"/></g><g style="stroke-width:.422785"><path d="M0 0q0 .17.17.17h.767q.171 0 .171-.17v-4.027h2.244q.171 0 .171-.17v-.632Q3.523-5 3.352-5H.327q-.192 0-.256.065c-.05.049-.071.141-.071.27Z" style="fill:#37292a;fill-opacity:1;fill-rule:nonzero;stroke:none;stroke-width:.422785" transform="translate(141.86 619.101)"/></g><g style="stroke-width:.422785"><path d="M0 0q0 .17.17.17h.767q.171 0 .171-.17v-4.027h2.244q.171 0 .171-.17v-.632Q3.523-5 3.352-5H.327q-.192 0-.256.065c-.05.049-.071.141-.071.27Z" style="fill:#37292a;fill-opacity:1;fill-rule:nonzero;stroke:none;stroke-width:.422785" transform="translate(146.1 619.101)"/></g><g style="stroke-width:.422785"><path d="M0 0c0 .405.071.774.227 1.108.142.326.348.61.604.852q.37.351.88.554.492.191 1.058.192c.171 0 .356-.015.54-.043.177-.036.355-.078.526-.128q.253-.085.475-.192c.143-.07.27-.149.384-.227.049-.043.078-.071.085-.093a.3.3 0 0 0-.043-.12l-.355-.596c-.042-.071-.077-.1-.114-.1-.042-.007-.099.014-.155.057a2.4 2.4 0 0 1-.626.305 3 3 0 0 1-.717.093q-.3 0-.589-.107a1.565 1.565 0 0 1-.895-.838 1.7 1.7 0 0 1-.142-.724q-.001-.416.135-.725c.085-.213.199-.391.355-.532.142-.142.32-.249.519-.32q.285-.115.625-.114.488 0 .837.107c.227.071.434.178.611.334q.073.064.156.064a.15.15 0 0 0 .114-.071l.334-.604c.05-.092.035-.163-.035-.22a2.9 2.9 0 0 0-.945-.504 4 4 0 0 0-1.072-.157c-.384 0-.739.064-1.073.185a2.6 2.6 0 0 0-.881.54 2.4 2.4 0 0 0-.596.866C.071-.824 0-.441 0 0" style="fill:#37292a;fill-opacity:1;fill-rule:nonzero;stroke:none;stroke-width:.422785" transform="translate(152.205 616.708)"/></g><g style="stroke-width:.422785"><path d="M0 0q0 .17.17.17h.767q.171 0 .171-.17v-4.027h2.244q.17 0 .171-.17v-.632Q3.523-5 3.352-5H.327q-.192 0-.256.065c-.05.049-.071.141-.071.27Z" style="fill:#37292a;fill-opacity:1;fill-rule:nonzero;stroke:none;stroke-width:.422785" transform="translate(157.717 619.101)"/></g><g style="stroke-width:.422785"><path d="M0 0c0-.327-.057-.604-.156-.845a1.8 1.8 0 0 0-.44-.625 2 2 0 0 0-.675-.376 2.9 2.9 0 0 0-.873-.129c-.32 0-.612.043-.867.129a1.8 1.8 0 0 0-.681.376q-.29.253-.441.625A2.1 2.1 0 0 0-4.289 0v3.167q0 .17.17.17h.767q.17 0 .17-.17V.106c0-.213.022-.383.079-.525A.7.7 0 0 1-2.89-.76a.74.74 0 0 1 .326-.184c.121-.043.263-.058.42-.058s.298.015.426.058a.9.9 0 0 1 .326.184q.127.128.213.341c.043.142.071.312.071.525v3.061q0 .17.171.17h.767q.17 0 .17-.17Z" style="fill:#37292a;fill-opacity:1;fill-rule:nonzero;stroke:none;stroke-width:.422785" transform="translate(166.163 615.934)"/></g><g style="stroke-width:.422785"><path d="M0 0q.415-.002.596.135.171.128.171.447c0 .213-.057.362-.171.455-.121.085-.319.134-.596.134h-1.52V0Zm.532 2.684c0 .355-.227.54-.667.54H-1.52v-1.08h1.385c.44 0 .667.178.667.54M-2.301-.973q-.192 0-.256.064-.072.077-.071.27v4.502q-.001.193.071.27.064.064.256.064h2.258q.812 0 1.25-.362c.284-.249.433-.583.433-.995a1.4 1.4 0 0 0-.163-.646 1.2 1.2 0 0 0-.476-.49q.396-.17.632-.49c.149-.227.227-.461.227-.717q0-.768-.468-1.122C1.079-.853.604-.973-.029-.973Z" style="fill:#37292a;fill-opacity:1;fill-rule:nonzero;stroke:none;stroke-width:.422785" transform="translate(169.892 615.075)"/></g></g></g></svg>