<svg xmlns="http://www.w3.org/2000/svg" width="240mm" height="154.06061mm" viewBox="0 0 239.99999 154.0606"><defs><linearGradient id="b" x1="0" x2="1" y1="0" y2="0" gradientTransform="matrix(0 -30.68395 30.68395 0 81.34 102.174)" gradientUnits="userSpaceOnUse" spreadMethod="pad"><stop offset="0" style="stop-opacity:1;stop-color:#007cc5"/><stop offset="0.994624" style="stop-opacity:1;stop-color:#bfe5fb"/><stop offset="1" style="stop-opacity:1;stop-color:#bfe5fb"/></linearGradient><linearGradient id="c" x1="0" x2="1" y1="0" y2="0" gradientTransform="matrix(0 35.33376 35.33376 0 261.833 273.366)" gradientUnits="userSpaceOnUse" spreadMethod="pad"><stop offset="0" style="stop-opacity:1;stop-color:#007cc5"/><stop offset="0.994624" style="stop-opacity:1;stop-color:#bfe5fb"/><stop offset="1" style="stop-opacity:1;stop-color:#bfe5fb"/></linearGradient><linearGradient id="d" x1="0" x2="1" y1="0" y2="0" gradientTransform="matrix(22.26457 0 0 -22.26457 197.315 367.123)" gradientUnits="userSpaceOnUse" spreadMethod="pad"><stop offset="0" style="stop-opacity:1;stop-color:#45c1f1"/><stop offset="0.64486922" style="stop-opacity:1;stop-color:#dbeff7"/><stop offset="0.99996" style="stop-opacity:1;stop-color:#dbeff7"/><stop offset="1" style="stop-opacity:1;stop-color:#dbeff7"/></linearGradient><clipPath id="a" clipPathUnits="userSpaceOnUse"><path d="M0 595.276h841.89V0H0Z"/></clipPath></defs><g style="stroke-width:.4206"><path d="m0 0-24.559-10.773 29.183.115-26.209-9.122 8.601-.029-36.172-15.639 8.92 35.127z" style="fill:#fff;fill-opacity:1;fill-rule:nonzero;stroke:none;stroke-width:.4206" transform="matrix(.86848 0 0 -.86848 233.497 34.032)"/></g><g clip-path="url(#a)" style="stroke-width:.4206" transform="matrix(.86848 0 0 -.86848 -66.13 339.588)"><g style="stroke-width:.4206"><path d="M0 0v24.552c-10.299 3.019-35.086 9.446-59.256 9.446h-.24c-23.412 0-47.756-6.076-59.502-9.462V5.605l-.413-5.157h-12.848v33.603l4.606 1.444c8.604 2.688 38.939 11.46 68.157 11.46h.24c29.225 0 59.556-8.772 68.156-11.46l4.609-1.444V0Z" style="fill:#fff;fill-opacity:1;fill-rule:nonzero;stroke:none;stroke-width:.4206" transform="translate(273.5 344.059)"/></g><g style="stroke-width:.4206"><path d="M0 0c13.214-12.735 30.717-24.595 52.037-35.264 20.849 9.86 38.471 21.845 52.404 35.651 7.213 7.15 11.592 17.042 12.245 27.476v19.211H-12.707V27.863C-12.026 17.24-7.482 7.208 0 0" style="fill:#1c0c43;fill-opacity:1;fill-rule:nonzero;stroke:none;stroke-width:.4206" transform="translate(162.309 251.435)"/></g><g style="stroke-width:.4206"><path d="M0 0c.667-10.136 4.929-19.471 12.006-26.288C24.84-38.656 41.817-50.214 62.479-60.65c20.175 9.656 37.249 21.337 50.765 34.728 6.818 6.76 10.923 15.964 11.565 25.921v16.846H0Zm62.422-65.75-.996.499C39.896-54.478 22.199-42.479 8.824-29.589.904-21.962-3.855-11.53-4.581-.22l-.004.145v21.504h133.978l-.005-21.646c-.697-11.108-5.284-21.392-12.918-28.961-14.108-13.983-31.953-26.127-53.039-36.095Z" style="fill:#c7c7c6;fill-opacity:1;fill-rule:nonzero;stroke:none;stroke-width:.4206" transform="translate(151.894 279.373)"/></g><g style="stroke-width:.4206"><path d="M0 0h-.24c-28.089 0-57.114-8.33-66.129-11.149v-72.86H66.134v72.86C57.117-8.33 28.092 0 0 0" style="fill:#fff;fill-opacity:1;fill-rule:nonzero;stroke:none;stroke-width:.4206" transform="translate(214.244 384.532)"/></g><g style="stroke-width:.4206"><path d="M0 0c-16.575 0-30.062 13.484-30.062 30.06 0 16.577 13.487 30.065 30.062 30.065 16.579 0 30.064-13.488 30.064-30.065C30.064 13.484 16.579 0 0 0" style="fill:#fff;fill-opacity:1;fill-rule:nonzero;stroke:none;stroke-width:.4206" transform="translate(218.158 274.56)"/></g><g style="stroke-width:.4206"><path d="M0 0h-55.141l-14.674 53.334-7.384 23.58h35.271l3.793-14.57h54.449z" style="fill:#fff;fill-opacity:1;fill-rule:nonzero;stroke:none;stroke-width:.4206" transform="translate(196.536 274.594)"/></g><g style="stroke-width:.4206"><path d="m0 0-5.414-22.13-4.544 7.561h-31.583v-62.345h55.074l14.14 53.474L34.517 0h-4.655z" style="fill:#fff;fill-opacity:1;fill-rule:nonzero;stroke:none;stroke-width:.4206" transform="translate(272.47 351.507)"/></g><g style="stroke-width:.4206"><path d="m0 0-14.398 52.34-5.228 18.413H8.482l3.794-14.567h52.839L50.416 0Z" style="fill:#1c0c43;fill-opacity:1;fill-rule:nonzero;stroke:none;stroke-width:.4206" transform="translate(143.743 277.673)"/></g><g style="stroke-width:.4206"><path d="m0 0-2.17 3.911V0h-27.221v56.186h26.759l7.499-12.485 6.617 27.052h28.625l-5.993-18.226L20.228 0Z" style="fill:#1c0c43;fill-opacity:1;fill-rule:nonzero;stroke:none;stroke-width:.4206" transform="translate(263.055 277.673)"/></g><g style="stroke-width:.4206"><path d="M0 0v21.727c10.157 3.066 37.365 10.458 63.452 10.458h.24c26.088 0 53.299-7.392 63.206-10.458V-1.812h5.608v27.198l-1.836.576c-8.464 2.645-38.304 11.28-66.978 11.28h-.24c-28.671 0-58.512-8.635-66.975-11.28l-1.837-.576V-1.365h5.251z" style="fill:#1c0c43;fill-opacity:1;fill-rule:nonzero;stroke:none;stroke-width:.4206" transform="translate(150.552 349.822)"/></g><g style="stroke-width:.4206"><path d="M0 0c-15.62 0-28.328 12.707-28.328 28.327C-28.328 43.949-15.62 56.66 0 56.66c15.622 0 28.331-12.711 28.331-28.333C28.331 12.707 15.622 0 0 0" style="fill:#1c0c43;fill-opacity:1;fill-rule:nonzero;stroke:none;stroke-width:.4206" transform="translate(218.073 277.646)"/></g><g style="stroke-width:.4206"><path d="m0 0-4.264-16.327L-7.745 0h-16.608l-3.52-16.36-8.055 30.928h-19.878l3.427-11.066 14.193-51.578h19.207l2.888 13.051 2.858-13.051h19.24L18.586 0Z" style="fill:#0057a5;fill-opacity:1;fill-rule:nonzero;stroke:none;stroke-width:.4206" transform="translate(185.02 329.805)"/></g><g style="stroke-width:.4206"><path d="m0 0-8.2-33.532-11.393 18.964h-20.409v-48.076h19.112v15.519l8.611-15.519H2.442l13.695 51.798L19.536 0Z" style="fill:#0057a5;fill-opacity:1;fill-rule:nonzero;stroke:none;stroke-width:.4206" transform="translate(277.72 344.373)"/></g><g style="stroke-width:.4206"><path d="M0 0h13.771l10.508-40.373h.107l5.555 25.805h11.904l5.503-25.805h.105l6.738 25.805h12.573L55.706-56.829H41.051l-5.132 23.437h-.106L30.63-56.829H15.975L1.976-5.945Z" style="fill:#fff;fill-opacity:1;fill-rule:nonzero;stroke:none;stroke-width:.4206" transform="translate(133.075 341.464)"/></g><g style="stroke-width:.4206"><path d="M0 0h15.857l14.08-23.437h.148l9.295 38.005h13.312L50.816 8.87 37.297-42.261H26.528L13.392-18.586h-.097v-23.675H0Z" style="fill:#fff;fill-opacity:1;fill-rule:nonzero;stroke:none;stroke-width:.4206" transform="translate(240.625 326.897)"/></g><g style="stroke-width:.4206"><path d="M0 0h-4.449L-6.05 9.724h-.043L-7.652 0h-4.469l-4.034 15.958h4.491l1.808-9.856h.042l1.789 9.856h4.032l1.745-9.992h.043l1.851 9.992h4.511z" style="fill:#2a3087;fill-opacity:1;fill-rule:nonzero;stroke:none;stroke-width:.4206" transform="translate(193.065 337.108)"/></g><g style="stroke-width:.4206"><path d="M0 0c0-.898.1-1.626.3-2.19.202-.568.448-1.013.742-1.333.289-.319.608-.544.957-.672a2.85 2.85 0 0 1 .954-.186c.291 0 .61.063.958.186.345.128.664.353.954.672.291.32.538.765.738 1.333.202.564.302 1.292.302 2.19 0 .895-.1 1.623-.302 2.19-.2.568-.447 1.008-.738 1.33-.29.32-.609.542-.954.672-.348.124-.667.19-.958.19-.291 0-.612-.066-.954-.19a2.431 2.431 0 0 1-.957-.672C.748 3.198.502 2.758.3 2.19.1 1.623 0 .895 0 0m-4.572 0c0 1.222.179 2.34.539 3.364.362 1.019.87 1.9 1.529 2.636a6.9 6.9 0 0 0 2.38 1.732c.927.418 1.953.625 3.077.625 1.122 0 2.147-.207 3.078-.625A6.953 6.953 0 0 0 8.41 6c.659-.736 1.166-1.617 1.528-2.636.361-1.024.542-2.142.542-3.364 0-1.225-.181-2.345-.542-3.366-.362-1.021-.869-1.898-1.528-2.638a7.008 7.008 0 0 0-2.379-1.733C5.1-8.152 4.075-8.36 2.953-8.36c-1.124 0-2.15.208-3.077.623a6.954 6.954 0 0 0-2.38 1.733c-.659.74-1.167 1.617-1.529 2.638-.36 1.021-.539 2.141-.539 3.366" style="fill:#2a3087;fill-opacity:1;fill-rule:nonzero;stroke:none;stroke-width:.4206" transform="translate(202.399 345.088)"/></g><g style="stroke-width:.4206"><path d="M0 0c0-.898.1-1.626.302-2.19.2-.568.447-1.013.737-1.333.293-.319.61-.544.957-.672.345-.123.664-.186.955-.186.293 0 .611.063.957.186.345.128.664.353.957.672.29.32.536.765.739 1.333.198.564.301 1.292.301 2.19 0 .895-.103 1.623-.301 2.19-.203.568-.449 1.008-.739 1.33a2.49 2.49 0 0 1-.957.672c-.346.124-.664.19-.957.19-.291 0-.61-.066-.955-.19a2.475 2.475 0 0 1-.957-.672c-.29-.322-.537-.762-.737-1.33C.1 1.623 0 .895 0 0m-4.574 0c0 1.222.179 2.34.54 3.364.36 1.019.869 1.9 1.528 2.636A6.926 6.926 0 0 0-.124 7.732c.928.418 1.954.625 3.075.625 1.123 0 2.148-.207 3.077-.625A6.932 6.932 0 0 0 8.409 6c.658-.736 1.167-1.617 1.528-2.636.361-1.024.541-2.142.541-3.364 0-1.225-.18-2.345-.541-3.366-.361-1.021-.87-1.898-1.528-2.638a6.987 6.987 0 0 0-2.381-1.733c-.929-.415-1.954-.623-3.077-.623-1.121 0-2.147.208-3.075.623a6.981 6.981 0 0 0-2.382 1.733c-.659.74-1.168 1.617-1.528 2.638-.361 1.021-.54 2.141-.54 3.366" style="fill:#2a3087;fill-opacity:1;fill-rule:nonzero;stroke:none;stroke-width:.4206" transform="translate(218.949 345.088)"/></g><g style="stroke-width:.4206"><path d="M0 0h2.391c.209 0 .432.015.675.046.242.029.462.098.658.209.191.116.355.273.487.484.132.205.197.49.197.847 0 .509-.16.9-.478 1.174-.32.278-.916.415-1.789.415H0Zm-4.573 6.973h8.71c.653 0 1.267-.096 1.851-.288a4.582 4.582 0 0 0 1.538-.863 4.115 4.115 0 0 0 1.06-1.42c.265-.564.395-1.227.395-1.987 0-.42-.044-.832-.135-1.241A4.651 4.651 0 0 0 8.44.021a3.695 3.695 0 0 0-.696-.961 2.84 2.84 0 0 0-.989-.648c.627-.251 1.125-.73 1.499-1.431.375-.7.604-1.547.687-2.548.014-.193.026-.448.04-.761.013-.311.04-.636.073-.971.035-.334.08-.659.135-.962.056-.304.138-.548.25-.724H4.866a9.08 9.08 0 0 0-.251 1.216c-.055.41-.096.824-.124 1.241-.027.372-.066.743-.114 1.117a3.373 3.373 0 0 1-.282 1.006 1.737 1.737 0 0 1-.592.717c-.256.178-.613.27-1.069.27H0v-5.567h-4.573z" style="fill:#2a3087;fill-opacity:1;fill-rule:nonzero;stroke:none;stroke-width:.4206" transform="translate(235.935 346.093)"/></g><path d="M246.766 353.066h4.574v-15.958h-4.574z" style="fill:#2a3087;fill-opacity:1;fill-rule:nonzero;stroke:none;stroke-width:.4206"/></g><path d="m93.782 69.521-2.435 9.33H89.84l-1.857-8.709a219.758 219.758 0 0 0-6.614.897l4.449 20.31h11.315l5.891-22.514a235.777 235.777 0 0 0-9.24.686m-21.079 3.016-1.358 6.314h-1.508l-1.412-5.423c-3.015.66-5.958 1.381-8.767 2.149l4.339 15.772h11.327l4.437-20.06a194.237 194.237 0 0 0-7.058 1.248" style="fill:url(#b);stroke:none;stroke-width:.365283"/><g style="stroke-width:.4206"><path d="M241.656 285.831h11.233v23.673h1.737l13.135-23.673h9.369l4.879 18.454c-3.103.83-6.294 1.601-9.513 2.301l-.977-3.994h-1.541l-3.081 5.131c-8.09 1.539-16.572 2.692-25.241 3.439z" style="fill:url(#c);stroke:none;stroke-width:.4206" transform="matrix(.86848 0 0 -.86848 -66.13 339.588)"/></g><g style="stroke-width:.4206"><path d="M206.502 376.307c-5.053 0-9.187-4.131-9.187-9.183 0-5.053 4.134-9.186 9.187-9.186h13.077v18.369z" style="fill:url(#d);stroke:none;stroke-width:.4206" transform="matrix(.86848 0 0 -.86848 -66.13 339.588)"/></g><g style="stroke-width:.4206"><path d="M0 0c0-6.272-5.083-11.354-11.357-11.354-6.268 0-11.353 5.082-11.353 11.354 0 6.271 5.085 11.356 11.353 11.356C-5.083 11.356 0 6.271 0 0" style="fill:#2a3087;fill-opacity:1;fill-rule:nonzero;stroke:none;stroke-width:.4206" transform="matrix(.86848 0 0 -.86848 134.433 20.749)"/></g><g style="stroke-width:.4206"><path d="M0 0h34.751L-2.471-14.904" style="fill:#1c0c43;fill-opacity:1;fill-rule:nonzero;stroke:none;stroke-width:.4206" transform="matrix(.86848 0 0 -.86848 193.641 36.989)"/></g><g style="stroke-width:.4206"><path d="M0 0h37.338L-7.877-15.213" style="fill:#1c0c43;fill-opacity:1;fill-rule:nonzero;stroke:none;stroke-width:.4206" transform="matrix(.86848 0 0 -.86848 193.942 45.44)"/></g><g style="stroke-width:.4206"><path d="M0 0h27.106L-2.78-12.742" style="fill:#1c0c43;fill-opacity:1;fill-rule:nonzero;stroke:none;stroke-width:.4206" transform="matrix(.86848 0 0 -.86848 190.69 52.85)"/></g><g style="stroke-width:.4206"><path d="M0 0h22.241L-2.471-9.923" style="fill:#0057a5;fill-opacity:1;fill-rule:nonzero;stroke:none;stroke-width:.4206" transform="matrix(.86848 0 0 -.86848 190.824 40.51)"/></g><g style="stroke-width:.4206"><path d="M0 0h30.272L-.772-9.344" style="fill:#0057a5;fill-opacity:1;fill-rule:nonzero;stroke:none;stroke-width:.4206" transform="matrix(.86848 0 0 -.86848 188.275 47.484)"/></g><g style="stroke-width:.4206"><path d="M0 0h20.194L-2.471-9.383" style="fill:#0057a5;fill-opacity:1;fill-rule:nonzero;stroke:none;stroke-width:.4206" transform="matrix(.86848 0 0 -.86848 186.665 54.595)"/></g><g style="stroke-width:.4206"><path d="M0 0c0-13.307-10.787-24.088-24.093-24.088S-48.186-13.307-48.186 0s10.787 24.097 24.093 24.097S0 13.307 0 0" style="fill:#0057a5;fill-opacity:1;fill-rule:nonzero;stroke:none;stroke-width:.4206" transform="matrix(.86848 0 0 -.86848 144.186 73.857)"/></g><g style="stroke-width:5.92147" transform="matrix(.16859 0 0 .16917 65.108 65.927)"><ellipse cx="345.65393" cy="47.429962" rx="111.31963" ry="111.96935" style="fill:#fff;fill-opacity:1;stroke:none;stroke-width:1.56672"/><path d="M313.045 36.68c-14.108 23.268-30.538 64.27-11.298 110.767-12.656-5.37-24.513-13.213-34.832-23.531a111.162 111.162 0 0 1-10.692-12.391c-4.217-41.664 16.335-75.489 27.512-90.478 11.041 3.328 20.939 9.185 29.31 15.633M412.515 89.884c18.703-8.092 32.103-19.165 41.703-30.95-2.23 18.994-9.395 37.519-21.498 53.5-6.752 5.074-14.583 9.705-23.664 13.633-22.546 9.755-42.801 12.082-59.784 10.857-7.74-14.156-10.785-27.298-11.539-38.271 19.488 4.044 45.157 4.046 74.782-8.769" style="fill:#fdc400;fill-opacity:1;fill-rule:evenodd;stroke:none;stroke-width:2.08895"/><g style="fill:#fdc400;stroke-width:5.92147"><path d="M364.29-40.482c28.74 13.51 45.644 32.361 55.573 49.432-6.4 12.15-15.954 24.342-30.07 35.2-8.885-19.185-26.322-42.78-60.472-58.834-26.988-12.687-51.252-12.633-70.571-8.078a111.595 111.595 0 0 1 8.166-9.113c5.252-5.252 10.9-9.86 16.85-13.83 20.611-6.976 48.672-9.752 80.525 5.223" style="fill:#fdc400;fill-opacity:1;fill-rule:evenodd;stroke-width:5.92147"/><path d="m330.695-46.49.58.08.58.085.581.087.584.09.586.095.586.098.588.102.59.105.591.11.593.113.593.12.595.12.596.126.598.13.599.132.602.139.6.14.604.147.604.15.605.154.607.159.61.162.61.165.61.173.613.173.614.18.615.183.616.189.617.193.619.197.62.202.62.204.623.21.624.216.625.218.625.225.628.228.63.235.63.237.63.242.631.246.635.253.634.256.635.263.635.265.18.076c-8.306 7.846-15.51 15.622-21.691 23.302a155.126 155.126 0 0 0-5.578-2.76c-12.792-6.014-24.99-9.263-36.374-10.565a106.046 106.046 0 0 0-25.249.13l.341-.346.96-.948.016-.016.114-.109a106.636 106.636 0 0 1 14.755-11.989l.498-.165.513-.165.516-.164.018-.006.502-.158.027-.007.495-.153.036-.01.49-.149.043-.013.485-.144.052-.015.48-.14.06-.018.474-.134.07-.02.468-.129.08-.023.461-.125.088-.024.454-.122.548-.142.105-.029.444-.113.115-.03.437-.107.554-.136.136-.034.423-.1.145-.035.415-.095.565-.127.164-.037.402-.09.174-.038.394-.084.185-.038.388-.08.541-.112.034-.006.203-.04.375-.074.214-.041.366-.07.225-.042.358-.066.235-.042.35-.064.247-.043.342-.057.257-.044.334-.054.268-.045.326-.051.279-.043.317-.05.29-.043.309-.046.302-.043.301-.041.312-.044.292-.039.555-.072.052-.007.335-.041.275-.035.346-.04.266-.03.357-.04.258-.03.369-.039.249-.025.378-.038.243-.022.39-.037.232-.021.403-.035.222-.018.415-.033.213-.017.426-.031.204-.015.439-.029.194-.011.45-.029.185-.01.462-.026.174-.008.64-.029.488-.02.155-.007.085-.002.561-.019.51-.015.137-.002.523-.012.127-.001.652-.008.548-.005h.107l.56-.002.096.001.575.004h.085l.585.008h.075l.599.013.066.001.611.016.055.004.623.02.044.002.64.025.033.001.65.032h.024l.662.036.011.002.679.042.56.038.563.042.565.044.566.047.566.052.57.055.57.058.573.063.574.065.576.068.575.073zm-.58-.077zm-.575-.073zm-.575-.068zm-.574-.065zm-.572-.063zm-.57-.059zm-.57-.053zM326.11-47zm-.563-.047zm-.566-.046zm-.563-.041zm-.56-.039zm-37.78 4.89zm68.228 1.865zm-5.006-1.774zm-.62-.202zm-.618-.196zm-1.233-.382zm-.615-.184zm-1.227-.352zm-1.22-.338zm-.61-.163zm-1.212-.312zm-.604-.15zm-1.204-.287zm-.602-.14zm-.6-.131zm-.597-.13zm-1.191-.246zm-.593-.12zm-.593-.113zm-.592-.11zm-.59-.106zm-.587-.1zm-1.172-.195zm-.584-.09zm-.583-.087zm-.578-.084" style="fill:#fdc400;fill-opacity:1;fill-rule:evenodd;stroke-width:5.92147"/></g><path d="M255.72-21.167c-2.242 2.502-5.235 6.556-7.916 10.778-2.68 4.223-5.31 9.102-7.207 13.895-1.897 4.792-3.835 12.203-.455 14.851 3.381 2.649 11.759 1.766 19.553 1.773 7.793.007 15.002.903 22.425 3.22 7.423 2.318 15.058 6.057 22.106 10.65 7.048 4.593 13.507 10.04 18.452 14.584 4.944 4.544 8.374 8.186 11.024 11.022 2.65 2.835 4.521 4.864 6.338 6.242 1.816 1.379 3.578 2.107 9.64.116 6.063-1.99 16.425-6.7 23.84-10.567 7.416-3.868 11.884-6.895 11.847-12.523-.036-5.628-4.578-13.858-13.023-23.16C363.9 10.41 351.554.038 339.06-7.504c-12.493-7.541-25.133-12.25-38.178-14.789-13.044-2.538-26.493-2.906-33.962-2.615-7.47.29-8.959 1.24-11.2 3.741zM311.455-52.506c3.41 1.066 9.654 2.074 17.144 3.644 7.49 1.57 16.225 3.702 24.455 6.765 8.23 3.062 15.954 7.055 24.31 12.463 8.357 5.408 17.345 12.231 24.388 19.204 7.044 6.973 12.144 14.096 16.48 13.518 4.337-.578 7.91-8.856 9.672-14.448 1.76-5.592 1.71-8.498-2.859-14.035-4.569-5.537-13.655-13.706-23.584-20.066-9.928-6.36-20.7-10.91-33.155-13.404-12.456-2.495-26.595-2.933-37.111-2.084-10.516.85-17.407 2.988-20.566 4.62-3.158 1.632-2.584 2.756.826 3.823z" style="fill:#e6200a;fill-opacity:1;stroke:none;stroke-width:1.56672px;stroke-linecap:butt;stroke-linejoin:miter;stroke-opacity:1"/><path d="m327.048-58.666.153-.026zm.153-.026 17.61-1.463c-2.076 0-4.154.06-6.23.182l-.134.009-1.21.077-.062.005-1.27.1h-.01l-1.26.113-.084.008c-1.239.12-2.477.262-3.712.425h-.01c-1.212.16-2.422.342-3.629.544zM242.36 18.08c6.414-2.247 12.677-3.438 18.742-3.777 7.37-.409 14.42.435 21.074 2.172l.035-.044 2.667.805 5.44 1.638-.129.175a89.525 89.525 0 0 1 11.118 5.165c3.721 2.04 7.264 4.3 10.597 6.678l.044-.071 3.122 2.407.205.156.204.158 2.806 2.16-.028.045c13.294 10.854 22.413 22.716 25.704 27.292a118.608 118.608 0 0 0 17.786-6.537c7.261-3.337 14.716-7.605 22.247-12.999l.791-.574a110.627 110.627 0 0 0-18.64-26.639c-9.432-9.978-21.94-19.587-38.52-27.383-11.91-5.6-23.278-8.626-33.888-9.84-11.977-1.372-22.983-.43-32.713 1.727a105.497 105.497 0 0 0-18.664 37.286zm9.37 79.068c-8.728-15.87-13.093-33.5-13.094-51.129 0-6.219.546-12.442 1.633-18.586 7.347-3.21 14.463-4.82 21.272-5.199 5.368-.3 10.576.17 15.576 1.223l-.248.362-.115.17-.367.544-.019.024-.252.378-.1.15-.154.23-.219.331-.036.053-.256.39-.085.128-.378.58-.053.083c-4.75 7.327-10.033 16.811-14.342 27.96-4.748 12.276-8.328 26.588-8.764 42.308zm42.9 42.467a105.922 105.922 0 0 1-20.895-14.716l-.04-.037a93.493 93.493 0 0 1-1.998-1.853l-.099-.092-.824-.796-.063-.061-.047-.047-.233-.227-.696-.69-.802-.812-.09-.09-.072-.074-.016-.017-.088-.09-.845-.88-.025-.025a107.067 107.067 0 0 1-7.725-9.1l-.064-.725-.004-.043-.054-.695-.103-1.469-.04-.632-.004-.102-.038-.73-.058-1.361-.007-.2-.02-.618-.018-.679.001-.045-.015-.72v-.15l-.006-.571-.002-.017v-1.416l.004-.713v-.01l.012-.703.002-.199.011-.509.012-.391.01-.318.019-.58.037-.89.028-.64.014-.252c.725-13.619 3.945-26.09 8.127-36.907 4.296-11.106 9.597-20.46 14.264-27.533l.249-.376.047-.072.276-.413.02-.029.294-.435.01-.013.282-.418.036-.052.253-.37.063-.094.223-.323.09-.132.195-.28.117-.168.165-.235.145-.204.136-.194.167-.24.11-.15.193-.273c4.279 1.479 8.364 3.34 12.223 5.456a99.258 99.258 0 0 1 10.335 6.554l-.139.24-.229.405-.169.294-.202.357-.195.35-.173.31-.369.667-.254.463-.114.21-.283.522-.086.16-.311.58-.056.11-.34.64-.028.054-.365.703-.001.001-.365.71-.029.057-.336.66-.057.115-.306.609-.085.173-.278.558-.113.231-.246.506-.141.293-.217.453-.169.354-.19.397-.194.418-.16.341-.222.48-.131.284-.248.547-.348.774-.027.064-.076.168-.068.156-.277.63-.325.745-.02.046-.34.798-.006.017-.331.788-.033.08-.303.73-.059.145-.273.674-.084.211-.243.614-.11.276-.216.554-.132.346-.188.49-.043.11-.275.733-.18.484-.055.15-.241.665-.04.104-.108.303-.08.224-.213.599-.013.037-.243.698-.058.17-.264.77-.033.103-.282.846-.01.034-.29.884-.01.036-.272.857-.033.105-.245.792-.055.177-.048.162c-.17.558-.336 1.12-.499 1.684l-.032.111-.17.59-.11.398-.05.172-.192.699-.033.124-.123.453-.146.547-.035.14-.182.702-.043.166-.078.312-.06.238-.16.649-.014.056-.189.78-.038.168-.202.86-.02.092-.211.94-.004.019-.208.963-.012.058-.188.91-.028.135-.167.84-.042.21-.035.184-.153.82-.012.054-.126.695-.024.138-.138.797-.015.085-.142.851-.042.264-.097.61-.101.66-.029.188-.059.395-.034.246-.107.763-.103.774-.032.24-.106.859-.019.16-.11.943-.009.08-.108 1.028-.069.687-.011.127-.053.561-.022.254-.039.437v.021l-.053.655-.002.017-.04.508-.012.185-.045.64-.005.058-.044.699-.005.07-.036.63-.01.198-.026.502-.017.33-.001.061-.028.67-.006.105-.01.245-.02.591-.002.117-.02.71v.014l-.015.697-.003.144-.01.572-.001.273-.005.44-.002.407v.394l.003.635.006.675v.047l.011.722v.085l.017.64.005.216.015.509.011.354.016.373.018.49.01.241.03.621.004.11.041.732.001.027.043.71.01.16.013.189.045.666.004.042.055.732.01.115.025.308.049.572.015.17.066.707.004.036.073.744.011.102.069.645.025.238.059.508.044.377.045.375.064.515.031.234.087.654.013.099.105.753.006.04.105.715.027.18.089.577.05.32.07.439.077.459.051.3.103.601.03.162.133.74.003.022.145.765.022.117.029.146.144.738.006.022.103.508.083.402.077.368.117.541.05.228.153.685.018.086.178.773.013.055.173.718.047.198.142.579.084.339.023.093.157.615.055.212.078.295.166.628.04.149.212.774.003.007.22.782.038.136.189.647.168.57.063.215.127.423.112.361.176.57.068.218.227.713zm59.385 12.182c-3.06.266-6.131.399-9.204.397a106.284 106.284 0 0 1-40.005-7.796c-.222-.557-.437-1.115-.65-1.67l-.012-.03-.114-.303-.207-.554-.023-.062c-.196-.53-.388-1.062-.576-1.592l-.035-.101-.277-.798-.006-.015-.252-.743-.035-.099-.137-.414-.143-.436-.067-.203a110.216 110.216 0 0 1-3.062-11.513l-.152-.74-.016-.083-.15-.764-.012-.06-.149-.784-.006-.035-.145-.805v-.015c-.096-.545-.189-1.09-.276-1.632l-.006-.03-.12-.783-.122-.812-.012-.074-.1-.736-.109-.807-.015-.119-.086-.685-.016-.141-.077-.663-.019-.163-.069-.639-.02-.186-.064-.614.001-.006-.073-.792-.023-.228-.048-.567-.003-.042-.048-.61-.012-.142-.02-.27-.037-.52-.018-.292-.032-.499v-.005l-.04-.702-.009-.143a87.54 87.54 0 0 1-.065-1.461l-.003-.085c-.03-.758-.05-1.509-.063-2.262v-.032l-.008-.435-.003-.339-.004-.455v-1.088l.004-.492.004-.274.008-.513.005-.252v-.038l.017-.724.016-.552.006-.21.02-.57.01-.188.025-.59.008-.165.03-.609.007-.143.036-.63.007-.122.042-.645.008-.103.046-.665.007-.081.053-.683.003-.061.06-.702.004-.04.064-.718.004-.019.072-.736.1-.944.013-.099.095-.84.025-.197.091-.737.038-.293.085-.638.02-.136.068-.498.095-.655.033-.226.118-.77.037-.24.116-.705.033-.209.042-.238.131-.768.026-.142.163-.904.17-.899.01-.05.167-.845.03-.143.153-.748.05-.236.03-.138c.122-.573.248-1.14.377-1.708l.023-.104.106-.457.12-.51.03-.13.16-.652.061-.254c.15-.604.304-1.205.46-1.802l.007-.025.023-.085.228-.853.002-.005.231-.843.027-.093.211-.75.054-.182.048-.168.213-.728.024-.074c.166-.558.335-1.113.507-1.663l.073-.235.223-.702.03-.09.095-.293.197-.606.069-.207.229-.685.042-.121.26-.765.014-.038.28-.794.016-.049.265-.742.047-.132.238-.656.079-.21.212-.568.11-.291.183-.484.142-.37.011-.029.277-.715.041-.103.125-.314.208-.526.094-.23.244-.603.062-.15.279-.675.029-.072.31-.74.005-.006.31-.73.036-.083c.347-.804.697-1.597 1.052-2.379l.007-.014.183-.403.175-.38.15-.325.21-.45.117-.25.246-.519.082-.175.282-.587.048-.099.319-.654.013-.027.028-.056.326-.662.314-.626.057-.113.277-.55.093-.181.243-.475.129-.248.21-.4.164-.314.173-.33.2-.378.14-.259.237-.44.374-.692.066-.123.31-.561.37-.667.006-.008.334-.596c12.219 10.17 20.498 21.028 23.383 25.061l-.037.109-.055.157-.056.162v.005l-.055.164-.06.173-.044.137-.015.04c-.911 2.77-2.175 7.344-2.946 13.264a84.986 84.986 0 0 0-.7 11.79l-.155-.033.359 5.232.02.29.187 2.733.053.012a92.373 92.373 0 0 0 3.032 15.732 99.856 99.856 0 0 0 5.5 14.768l-.276-.02 3.496 6.398.078.143.08.144.078.143.804 1.471h.023a116.684 116.684 0 0 0 4.548 7.319 125.439 125.439 0 0 0 2.625 3.747zm55.523-21.601a105.597 105.597 0 0 1-46.437 20.419l-.135-.168-.119-.153-.084-.11-.086-.109c-.368-.476-.729-.95-1.086-1.426l-.081-.11-.49-.656-.081-.11-.08-.111-.082-.11-.08-.11-.32-.437-.08-.11-.08-.11-.078-.109c-.343-.477-.68-.952-1.013-1.427l-.076-.111-.077-.109c-.33-.476-.656-.952-.976-1.428a105.93 105.93 0 0 1-1.576-2.407h.186l.127.002.308.002h.324l.547.002.086-.001h.318l.034-.002.284-.002h.156l.164-.002.275-.002h.045l.319-.007h.078l.242-.006.2-.003.123-.002.32-.007.322-.008.123-.002.202-.008.244-.007h.08l.324-.012h.043l.282-.01.167-.007.157-.007.29-.01.037-.003.328-.015.087-.004.24-.013.21-.01.117-.006.657-.034.133-.008.197-.012.257-.014.072-.007.33-.019.054-.005.278-.018.332-.022.304-.022.028-.002.334-.024.098-.008.233-.018.226-.018.11-.009.334-.027h.02l.315-.027.144-.014.192-.017.272-.024.063-.006.337-.031.065-.007.272-.027.194-.017.145-.015.32-.031.018-.003.34-.036.108-.011.23-.025.24-.026.101-.011.34-.037.028-.004.314-.037.156-.018.185-.022.287-.034.056-.008.343-.042.074-.01.268-.034.205-.027.14-.016.334-.045.01-.001.346-.047.12-.016.224-.032.252-.035.095-.013.692-.1.17-.024.178-.028.3-.046.048-.008.35-.053.083-.014.266-.041.216-.036.134-.02.349-.058.467-.078.017-.002.454-.077.03-.006.44-.077.046-.007.425-.076.061-.01.411-.076.077-.014.396-.075.092-.017.383-.072.108-.02.367-.071.124-.025.352-.07.14-.028.336-.069.155-.03.324-.066.17-.036.308-.065.187-.04.293-.063.202-.042.279-.061.219-.048.264-.058.233-.053.249-.056.25-.057.233-.054.267-.06.218-.051.283-.066.203-.048.298-.073.188-.045.316-.077.171-.043.333-.082.156-.038.347-.088.141-.035.365-.094.125-.032.383-.098.108-.03.4-.105.091-.025.416-.11.077-.022.432-.117.063-.016.448-.125.046-.012.465-.13.03-.01.483-.136.014-.004.497-.143.003-.003.495-.143.02-.005.515-.154.464-.139.051-.016.45-.137.068-.02.433-.134.084-.027.42-.13.1-.033.402-.126.117-.038.387-.124.136-.043.371-.12.15-.051.355-.117.168-.055.339-.114.184-.06.324-.11.2-.069.308-.106.218-.075.293-.1.234-.082.275-.096.253-.089.259-.092.268-.097.243-.086.286-.105.228-.082.303-.109.21-.078.32-.12.195-.07.337-.127.178-.067.355-.135.16-.061.373-.141.145-.057.389-.15.13-.051.406-.159.112-.043.424-.17.095-.037.443-.176.078-.031.458-.186.063-.026.477-.194.044-.02.495-.202.029-.013.512-.214.011-.004zm38.339-58.614a105.504 105.504 0 0 1-18.028 38.027l-.255.189-.043.033-.104.077-.594.434-.077.056-.222.159-.09.065-.061.042-.097.072-.793.559-.017.012-.302.212h-.003l-.463.32-.017.012-.137.093-.023.018-.286.194-.04.027-.115.08-.047.03-.11.072-.053.038-.26.174-.068.045-.09.06-.24.158-.072.05-.091.06-.167.11-.06.04-.106.068-.053.034-.112.075-.047.029-.12.08-.039.024-.129.084-.031.02-.137.089-.024.014-.144.093-.016.01-.152.099-.009.006-.16.1-.003.002-.16.103-.006.004-.158.097-.013.008-.148.095-.02.015-.144.087-.028.018-.135.085-.035.023-.128.079-.044.027-.121.074-.051.032-.113.069-.058.038-.106.064-.067.041-.098.06-.075.046-.091.055-.081.051-.085.05-.09.054-.077.047-.097.059-.07.04-.105.065-.061.036-.114.068-.053.032-.167.1-.131.078-.039.022-.137.081-.03.02-.146.085-.024.012-.153.09-.016.01-.162.094-.008.006-.17.098a117.562 117.562 0 0 1-12.287 6.167c-10.95 4.738-21.337 7.67-31.042 9.269l-.414.067-.04.007-.374.059-.08.013-.333.051-.118.019-.294.043-.158.024-.253.037-.196.03-.213.03-.237.035-.172.023-.277.038-.446.061-.093.013-.353.047-.053.006-.392.05-.014.002-.404.05-.025.004-.379.045-.065.007-.338.04-.102.012-.3.034-.14.016-.26.028-.18.02-.222.023-.217.023-.182.017-.256.027-.142.014-.295.028-.102.01-.331.03-.066.007-.37.033-.025.003-.397.033-.01.001-.383.031-.05.005-.343.026-.086.008-.306.024-.124.009-.267.019-.162.012-.228.014-.2.013-.19.013-.236.015-.152.01-.274.015-.114.006-.31.018-.077.005-.345.018-.04.002-.382.019-.002-.001-.383.018h-.036l-.347.015-.074.004-.31.012-.108.005-.272.008-.145.005-.234.007-.183.007-.198.003-.217.007-.16.002-.253.005-.124.004-.29.007h-.088l-.324.005h-.05l-.36.004h-.016l-.373.002-.02.002-.724.001-.093.001h-.277l-.128-.002h-.242l-.164-.002h-.204l-.2-.003-.169-.002-.232-.004-.403-.007-.098-.001-.302-.005-.062-.004-.336-.009h-.028l-.362-.01-.01.001-.714-.026h-.078l-.282-.012-.112-.003-.246-.013-.147-.006-.211-.01-.18-.008-.177-.008-.216-.01-.14-.009c-3.18-6.12-5.451-12.017-7.032-17.59a84.648 84.648 0 0 1-2.489-11.98l.46.074.085.014.377.057.17.025.006.001.545.08.207.032.345.048.122.017.435.06.035.005.471.063.051.007.423.055.14.017.335.042.228.027.249.03.317.037.162.02.409.047.071.007.483.052.018.003.467.048.108.01.378.04.198.018.29.028.29.027.2.018.383.033.109.01.475.041.02.001.495.04.073.005.424.033.166.012.334.022.258.018.242.016.355.023.15.008.447.027.057.003.507.028.037.003.47.022.133.006.379.016.227.01.285.011.324.014.19.007.42.013.095.002.519.016.518.012.098.003.424.008.193.004.33.005.29.003.235.004.389.003h1.254l.474-.004.158-.001.374-.006.259-.002.276-.005.359-.007.18-.003.457-.011.08-.002.541-.016.02-.002.522-.017.122-.003.422-.018.222-.008.324-.014.325-.014.222-.012.427-.02.121-.008.532-.03h.021l.55-.034.084-.005.471-.029.185-.014.371-.025.289-.02.268-.022.394-.03.665-.054.061-.006.562-.05.042-.003.523-.048.147-.012.418-.041.253-.026.315-.033.359-.037.21-.023.465-.05.107-.013.571-.066c11.98-1.405 24.981-4.67 38.757-10.63 9.638-4.168 17.942-9.13 25.09-14.583l.147-.113.146-.113.043-.03.102-.08.145-.113.085-.064.06-.048.144-.112.126-.098.019-.014.144-.112.144-.113.022-.02.12-.093.144-.113.065-.052.076-.062.143-.112.107-.084.036-.03.142-.113.14-.113.005-.006.135-.11.141-.113.046-.037.094-.077.14-.114.087-.071.053-.042.14-.114.126-.106.013-.01.138-.114.14-.114.027-.023.11-.093.139-.114.066-.057.07-.058.137-.117.107-.09.03-.023.136-.116.134-.116.013-.008.124-.108.136-.115.05-.043.086-.072.136-.117.087-.076.046-.04.135-.118.126-.11.007-.004.267-.233.033-.03.1-.088.132-.117.071-.06.061-.056.132-.117.109-.098.023-.018.132-.118.13-.117.016-.015.3-.27.076-.07.13-.115.09-.084.04-.036.128-.116.128-.119h.002l.128-.119.128-.118.036-.033.093-.085.127-.12.072-.067.055-.05.127-.119.109-.104.017-.015.127-.118zm-15.216-85.219a108.441 108.441 0 0 1-7.914 21.75l-.117.237-.235.477.013.023-.898 1.703-.134.258-.131.246-.028.053-3.184 6.043-.136-.238-.117.189-.007.011-.124.2-.124.198-.056.094-.069.108-.126.197-.122.197-.004.004-.125.199-.127.199-.646.995-.11.168-.023.033-.132.197-.13.2c-6.404 9.633-14.94 19.075-26.26 27.674l-3.326 2.558-.04-.084c-7.86 5.59-15.605 10.015-23.133 13.475-6.977 3.208-13.779 5.603-20.322 7.345-.786 2.37-1.915 6.432-2.626 11.868a77.707 77.707 0 0 0-.603 12.393l.448.078H342l.453.08.043.008.414.068.09.016.368.058.14.024.32.05.19.03.273.042.465.07.29.044.177.024.34.05.127.017.392.055.08.01.443.06.03.003.475.062.02.003.457.057.07.009.408.047.122.015.359.042.483.054.225.025.26.027.277.028.208.021.331.033.158.015.383.036.108.01.438.039.056.004.495.043.495.039.05.004.45.034.102.008.398.028.154.01.347.023.209.014.296.017.262.015.245.015.316.016.192.01.51.025.427.018.086.004.482.02h.03l.516.019h.025l.493.015h.078l.44.01.134.005.388.008.19.004.332.004.245.003.282.003.301.003h.224l.36.002h.169l.416-.003h.115l.473-.005.06.002.53-.007h.004l.535-.009h.054l.483-.012.112-.003.428-.012.169-.004.373-.012.226-.009.317-.01.285-.013.26-.011.342-.015.204-.01.403-.02.146-.007.461-.026.089-.006.521-.03.031-.003.554-.036.028-.002.528-.037.087-.006.47-.036.144-.012.62-.05.354-.03.266-.023.296-.028.327-.03.237-.024.075-.006.492-.05.448-.047.12-.013.509-.055.06-.007.571-.065c11.205-1.313 23.438-4.4 36.51-10.056 9.063-3.92 16.815-8.543 23.438-13.596l.294-.224.016-.012.276-.213.032-.025.259-.201.047-.037.242-.19.063-.05.226-.176.077-.064.208-.163.094-.076.19-.154.11-.088.175-.14.123-.1.159-.128.139-.114.142-.117.153-.125.126-.105.167-.14.11-.09.183-.154.093-.077.197-.167.08-.065.21-.179.063-.056.225-.19.048-.041.237-.205.034-.029.252-.217.017-.017.266-.231.002-.003.267-.235.013-.01.252-.225.028-.023.236-.213.042-.037.222-.198.055-.05.205-.188.07-.062.19-.175.084-.074.175-.163.097-.088.161-.15.11-.102.146-.137.123-.115.131-.124.136-.13.118-.11.15-.14.102-.1.163-.154.088-.085.176-.17.073-.07.189-.184.06-.058.2-.196.046-.045.212-.21.032-.031.483-.48.006-.005.241-.244.008-.008.23-.235.024-.023.216-.22.036-.037.203-.207.047-.05.189-.196.059-.06.175-.184.072-.076.161-.17.086-.089.148-.156.097-.103.133-.144.11-.117.12-.127.122-.131.106-.116.134-.145.094-.104.145-.156.081-.09.155-.172.07-.074.167-.186.056-.062.18-.2.042-.048.191-.214.03-.035.202-.227.018-.02.212-.242.008-.009.216-.249.004-.006.211-.244.017-.02.197-.229.03-.034.186-.216.04-.047.17-.203.054-.06.159-.19.063-.076.126-.151c.4-3.76.602-7.535.602-11.31 0-20.855-6.11-41.713-18.324-59.657zm-87.85-46.518-20.268 1.942-.01.001c-3.97.771-7.906 1.769-11.786 2.996l.039-.003.3-.012.18-.008.225-.009.128-.005.178-.006.178-.007.176-.005.047-.003.133-.003.179-.005.356-.01h.042l.673-.016h.04l.14-.003.179-.002.18-.001.181-.003.036-.001.145-.002h.179l.18-.003.18-.001.035.002.148-.002h.361l.181-.001h.03l.151.002h.183l.363.002.027.002h.156l.365.004.182.004h.024l.159.002.366.009.184.004h.02l.163.003.183.005.37.01.017.002.166.004.184.006.185.005.185.008.012.001.173.005.369.016.187.008h.009l.175.008.371.017.186.008.008.001.179.01.186.01.372.021h.004l.745.045.001.002.603.041.605.043v.001l.606.047.001.002.609.05.61.055v.002l.611.058.001.002.612.061.001.002.614.064v.002l.615.068.002.002.617.073.62.078v.001l.621.081.623.086v.001l.624.09.001-.002.624.094.627.097.63.102.629.107.632.108.634.114.635.118v-.001l.635.122v.001l.638.125h.003l.637.131.642.135.64.139.001.001.644.143v-.001l.645.148v.002l.645.149.001.001.647.157h.003l.646.16.652.166.65.169.002.001.652.174.001.001.654.177.657.184.657.188.66.192.66.196.66.203.001.001.661.205.001.002.665.21.663.215.001.002.667.22h.001l.668.224.67.23.67.238.67.24.674.244.675.25.676.255.676.262.678.264.68.27.68.275.682.281.683.285.684.29.685.296.687.302.688.307.69.31.689.317.692.324c14.777 6.949 26.532 15.284 35.874 24.086l.335.318.1.096.234.223.2.192.132.126.3.29.03.028.328.32.069.068.255.251.168.166.156.154.68.68.277.281.136.138.182.184.228.235.084.087.312.32.011.012.297.312.307.322.197.207.109.115.287.303.017.02.3.323.075.08.225.243.165.177.132.146.253.276.043.047.293.324.046.052.245.273.134.148.155.176.222.248.065.076.287.324.02.022.264.303.104.12.177.206.28.323.271.318.007.007.277.325.077.091.196.235.16.189.112.137.24.287.032.038.267.325.052.061.214.266.133.16.133.165.262.325.26.325.028.032c.597.75 1.179 1.498 1.749 2.247l.228.3.02.027.244.325.242.325.13.171.111.153.478.651.031.043.204.283.104.141.13.184.173.24.059.084.232.324.009.014.219.311c.304.434.604.866.897 1.297l.059.083.163.24.121.181.096.143.189.279.024.038c3.236-7.398 5.349-14.693 6.68-21.542l.04-.203.002-.019.037-.185.038-.202.032-.168.007-.035.072-.394a107.677 107.677 0 0 0-5.438-6.02l-.03-.03-.035-.037-.794-.804-.135-.135-.856-.846-.496-.48-.48-.462-.408-.387-.53-.497-.425-.393-.48-.438-.504-.458-.532-.474-.333-.294-.775-.675-.177-.154-.094-.08-.895-.759-.04-.034-.103-.083-.916-.757-.105-.085-.834-.673-.36-.283-.61-.48-.435-.336-.676-.516-.244-.187-.865-.644-.17-.126-1.034-.749-.055-.04-.945-.668-.085-.059-.283-.196-.732-.502-.27-.181-.83-.557-.185-.122-.945-.616-.1-.063-.929-.588-.253-.16-.656-.403-.45-.277-.064-.039-.969-.578-.013-.008-.986-.576-.133-.076-.156-.089-.977-.551-.034-.02-1.003-.552-.264-.141-.85-.453-.279-.147-.98-.509-.079-.039c-.755-.386-1.516-.764-2.28-1.13l-.031-.015-.003-.001a107.762 107.762 0 0 0-4.666-2.096l-.104-.044a105.44 105.44 0 0 0-7.176-2.708l-.061-.022-1.034-.34-.244-.08a105.164 105.164 0 0 0-7.25-2.048l-.129-.032-1.001-.238-.28-.065c-1.626-.377-3.26-.71-4.9-1.01l-.042-.007-1.072-.189-.324-.052-.902-.147-.34-.054-.988-.149-.16-.023-1.186-.164-.044-.006-.09-.013a106.678 106.678 0 0 0-6.239-.63l-.029-.004c-.801-.057-1.607-.106-2.412-.146l-.114-.004a105.55 105.55 0 0 0-3.818-.114l-.104-.002zm40.457-.59c-1.08-.409-2.166-.801-3.258-1.175l-.297-.103-.85-.285-.33-.109-.937-.304-.05-.016a114.438 114.438 0 0 0-34.735-5.39c-21.924 0-43.85 6.278-62.847 18.833l-.413.274-.142.096-.143.096-.143.095-.305.202-.005.005-16.487 13.598-.232.232-.727.738-.067.069-.067.067-.066.069-.335.346-.068.068-.066.07-.068.071-.067.07-.068.07a115.313 115.313 0 0 0-7.593 8.735l-6.47 8.076.808-.19a113.473 113.473 0 0 0-16.02 38.38l-.006.002-.081.408a114.613 114.613 0 0 0-2.47 23.669c0 23.542 7.24 47.087 21.718 67.007l.012.014c.426.585.857 1.169 1.294 1.747l7.949 10.722-.15-1.473.04.042.04.043.04.043.04.043.041.043.04.044.041.041.04.045.041.041.04.044.04.041.203.215.04.04.04.044.041.044.04.042.001.002.528.549.042.042.04.043.04.041.041.042.04.043.083.082.04.043.04.043.042.042.739.747.123.124.991.98.06.057c.312.304.625.605.94.905l.12.114.13.125.759.711.18.17.073.065.255.234.256.235.254.231.512.463.258.23.257.23.044.04.473.415.26.226.259.225a113.674 113.674 0 0 0 28.512 18.075l.004.004.178.076c.878.386 1.763.76 2.65 1.124l7.621 3.233-.206-.496a114.259 114.259 0 0 0 15.808 3.99l.341.06.34.06.642.107.04.008.343.056.34.055.341.054.34.051.342.052.342.051.272.041.07.01 1.101.152.267.035.342.045.342.044.454.055.395.047.06.007.454.053.455.05.141.016.314.033.455.048.182.017 1.09.102.095.01.455.037.457.039.456.034c2.93.228 5.862.341 8.8.343 5.005 0 10.01-.328 14.979-.983l.009.012.99-.15c.837-.118 1.675-.245 2.51-.38l5.623-.856-.142-.177a113.473 113.473 0 0 0 47.323-22.455l.007-.007.444-.355.073-.06.368-.301.442-.363.437-.363.407-.342.032-.026.436-.37.084-.072.359-.306.857-.747.131-.112.094-.085.86-.766.136-.12.067-.063.074-.067.777-.71.16-.149.089-.083c.327-.302.652-.606.974-.915l.006-.006.034-.031.997-.96.065-.063 1.014-1.002.768-.775.086-.088.084-.088.1-.099.07-.075.087-.087.085-.09.083-.087.085-.088.085-.088.085-.089.085-.088.084-.088.084-.09.423-.446.085-.089.085-.09.084-.09.084-.09a114.763 114.763 0 0 0 8.564-10.276l10.46-17.149a113.974 113.974 0 0 0 11.188-38.994l1.38-11.751-.797.979.005-.8c.002-24.843-8.06-49.688-24.177-70.27l.002-.007-.207-.256a108.055 108.055 0 0 0-1.863-2.3l-4.637-5.739-.069.416c-.35-.373-.705-.742-1.06-1.111l-.04-.042-.037-.038-.04-.042-.076-.081-.272-.279-.04-.039-.037-.04-.038-.04-.116-.116-.61-.62-.114-.114-.912-.902-.138-.133-.22-.215-.743-.711-.324-.308-.63-.594-.505-.465-.48-.441-.485-.439-.737-.656-.232-.206-.997-.867-.05-.044-1.028-.87-.026-.024-.045-.038-.34-.28-.694-.573-.333-.27-.724-.584-.439-.348-.634-.496-.396-.307-.763-.583-.338-.254-.604-.452-.577-.426-.232-.167-.814-.59-1.015-.716-.763-.528-.326-.223-.64-.432-.465-.312-.682-.448-.379-.247-.664-.428-.563-.358-.55-.343-.616-.38-.398-.245-.169-.102-1.042-.624-.012-.007-1.063-.618-1.037-.59-.037-.021-.788-.436-.47-.26-.629-.339-.501-.268-.655-.344-.475-.246-.769-.394-.07-.035-1.039-.519-1.093-.532-1.015-.481-.094-.043-.785-.361-.438-.2-.726-.323-.388-.173-.842-.366-.306-.132-.881-.369-.214-.089-.951-.389-.11-.044-1.03-.408zm-22.673 23.854c13.957 6.563 25.029 14.408 33.804 22.677l.377.356.03.03.344.328.062.058.31.3.091.088.278.269.121.121.245.238.15.15.212.21.57.569.148.15.238.241.116.12.266.271.087.09.29.301.06.06.316.333.03.03.684.724.03.03.31.334.056.059.28.303.083.091.25.273.33.365.137.15.191.212.163.18.163.185.187.212.137.153.212.243.108.121.236.274.08.091.263.304.052.062.286.334.027.032.308.364.308.366.026.03.28.335.048.06.253.306.075.092.226.274.098.122.198.244.122.153.173.214.146.182.146.184.169.212.121.154.19.243.097.123.213.274.072.092.235.304.047.062.255.335.026.033.275.363.001.001.274.367.023.03.25.336.045.059.226.307.065.09.204.275.085.12.18.245.109.153.154.214.13.18.13.184.15.212.107.154.171.24.086.123.19.274.065.092.208.304.043.061.227.333.021.031.246.362.002.002.244.364.017.03.224.333.04.06.2.304.06.089.178.274.078.118.158.245.096.147.137.213.114.182.117.181.133.21.096.152.15.238.077.122.166.27.058.09.184.3.039.06.2.33.018.03-.135.245-.138.244-.054.1-.083.143-.14.244-.122.218-.015.026-.142.244-.142.243-.05.091-.092.154-.141.243-.124.207-.02.037-.147.243-.146.245-.047.078-.1.164-.147.243-.12.197-.029.046-.15.244-.15.243-.043.07-.26.415-.119.188-.036.057-.155.243-.118.185-.036.057c-5.2 8.098-12.018 16.09-20.905 23.536-4.489-8.688-10.692-18.037-19.266-27.107-10.044-10.627-23.333-20.843-40.9-29.104-12.792-6.014-24.99-9.263-36.374-10.565a106.046 106.046 0 0 0-25.249.13l.342-.346.96-.948.015-.015.114-.11a106.636 106.636 0 0 1 14.755-11.989l.498-.163v-.001l.513-.165.516-.165.018-.006.502-.158.027-.007.495-.153.036-.01.49-.148.043-.014.485-.144.052-.015.48-.14.06-.017.474-.135.07-.02.468-.129.08-.023.461-.125.088-.024.454-.122.548-.142.105-.029.444-.113.115-.03.437-.107.555-.136.135-.034.423-.1.145-.034.415-.096.565-.127.164-.037.402-.09.174-.037.394-.085.185-.038.388-.08.542-.112.033-.006.203-.04.375-.074.215-.041.365-.07.225-.042.358-.066.235-.042.35-.064.247-.042.342-.057.257-.045.334-.054.268-.045.326-.051.279-.043.318-.05.289-.043.31-.046.301-.043.301-.041.312-.044.292-.039.555-.072.052-.007.335-.041.275-.034.346-.04.266-.031.358-.04.257-.03.369-.039.249-.024.378-.039.243-.022.39-.037.232-.02.403-.036.222-.018.415-.033.213-.016.426-.032.204-.015.439-.029.194-.011.45-.029.185-.01.462-.025.174-.009.64-.028.488-.02.156-.008.085-.001.56-.02.511-.015.136-.002.523-.011.127-.002.652-.008.549-.005h.106l.56-.002.096.001.575.004h.085l.585.008h.075l.599.013.066.002.611.015.054.004.624.02.044.002.64.026h.033l.65.032.024.001.662.035.011.002.678.04v.002l.56.038h.002l.561.042h.001l.563.045h.002l.564.047h.003l.566.053.569.052v.002l.57.06v-.002l.572.062v.001l.572.063.001.001.574.067.001.002.574.071v.002l.577.076h.003l.577.08h.003l.578.083.001.002.582.085v.002l.584.089.586.096.585.098h.002l.587.101v.001l.59.106.59.111.001-.001.591.114.001-.001.592.12h.002l.595.12.594.126h.003l.597.13.598.133.001-.001.6.14.003-.001.6.141.6.146h.004l.604.15.605.154.607.158v.001l.608.161.001.002.61.165.61.172.614.174.613.18h.001l.613.184.001-.001.616.188.617.193.618.197.001.001.62.2v.002l.621.204.623.21.623.217.625.217.626.225.628.228.629.235.629.238.632.24.63.247.635.253.634.256.636.264.634.264.64.272.638.275.64.283.642.285.642.29.643.296.645.301" style="fill:#0057a5;fill-opacity:1;fill-rule:evenodd;stroke:none;stroke-width:2.08895"/></g><g style="fill:#fff"><g style="fill:#fff;stroke-width:1.09862"><path d="M31.149 150.743h2.628q1.197 0 1.853.204.662.203 1.11.921.448.712.448 1.769 0 1.016-.361 1.68-.361.664-1.003.962-.636.292-1.96.292h-.709v3.422H31.15zm2.006 1.498v2.737h.622q.823 0 1.057-.386.24-.386.24-1.003 0-.522-.187-.84-.18-.325-.428-.413-.24-.095-.682-.095zM38.15 150.743h2.87q.836 0 1.277.082.448.074.903.42.455.339.71.935.26.59.26 1.328 0 1.735-1.284 2.44l1.679 4.045h-2.187l-1.218-3.66h-1.003v3.66h-2.006zm2.007 1.498v2.595h.883q1.177 0 1.177-1.335 0-.46-.174-.752-.174-.298-.408-.4-.227-.108-.675-.108zM51.861 155.365q0 4.77-3.31 4.77-1.646 0-2.482-1.213-.836-1.22-.836-3.557 0-4.764 3.31-4.764 1.62 0 2.469 1.193.849 1.192.849 3.57zm-2.113 0q0-1.87-.288-2.487-.288-.624-.916-.624-.622 0-.91.624-.287.623-.287 2.487 0 1.83.28 2.473.288.644.917.644.622 0 .91-.617.294-.617.294-2.5z" style="font-weight:700;font-size:24px;font-family:&quot;Franklin Gothic Demi Cond&quot;;fill:#fff;stroke-width:.290675" transform="matrix(.88087 0 0 .94057 84.261 -36.134)"/></g><path d="M90.573 118.144h1.91l1.272 5.848 1.315-5.848h1.558l-2.03 7.716-2.037-.04zM102.943 121.98q0 3.958-3 3.958-1.49 0-2.248-1.006-.758-1.013-.758-2.953 0-3.953 3-3.953 1.467 0 2.237.99t.77 2.963zm-1.915 0q0-1.553-.26-2.065-.261-.517-.83-.517-.564 0-.825.517-.26.518-.26 2.064 0 1.519.254 2.053.26.534.83.534.564 0 .824-.512.267-.511.267-2.075zM103.681 118.144h1.818v6.236h2.667v1.44h-4.485ZM108.966 118.144h1.818v6.236h2.667v1.44h-4.485zM114.251 118.144h5.03v1.316h-3.211v1.782h2.497v1.322h-2.497v1.884h3.212v1.372h-5.03zM120.098 118.144h2l1.17 2.8 1.248-2.8h1.776l-2.297 4.431v3.245h-1.818v-3.245zM126.728 118.144h2.825q.994 0 1.497.146.51.146.848.641.346.495.346 1.232 0 1.287-1.182 1.653 1.406.461 1.406 1.884 0 .748-.382 1.265-.381.512-.945.686-.558.17-1.588.17h-2.825zm1.746 3.098h.588q.879 0 1.103-.292.23-.292.23-.67 0-.348-.23-.618-.224-.275-.97-.275h-.72zm0 3.257h.891q1.255 0 1.255-1.001 0-.557-.316-.782-.309-.23-.939-.23h-.89zM135.165 118.144h1.83l2.365 7.676h-1.861l-.412-1.586h-2.328l-.406 1.586h-1.673zm1.576 4.774-.83-3.132-.806 3.132zM140.05 118.144h1.819v6.236h2.667v1.44h-4.486zM145.336 118.144h1.818v6.236h2.667v1.44h-4.485z" style="font-weight:700;font-size:24px;font-family:&quot;Franklin Gothic Demi Cond&quot;;fill:#fff;stroke-width:.264583"/><g style="fill:#fff;stroke-width:1.18719"><path d="m127.433 156.625 1.853.115q-.1 1.504-.943 2.453-.843.942-2.227.942-1.686 0-2.568-1.267-.883-1.267-.883-3.49 0-2.243.876-3.51t2.602-1.267q2.855 0 3.11 3.578l-1.833.135q-.074-2.06-1.27-2.06-.63 0-1.004.664-.368.664-.368 2.575 0 1.708.341 2.352.341.637 1.024.637 1.096 0 1.29-1.857zM130.463 150.743h2.006v7.515h2.943v1.735h-4.95zM136.295 150.743h2.006v5.286q0 1.118.1 1.558.1.44.415.67.321.225.782.225.502 0 .796-.251.295-.25.361-.664.067-.414.067-1.538v-5.286h1.679v5.204q0 1.559-.18 2.324-.174.766-.903 1.315-.723.549-1.993.549-1.19 0-1.873-.4-.682-.406-.97-1.132-.287-.731-.287-2.574zM144.226 150.743h3.117q1.097 0 1.652.177.562.176.936.772.381.596.381 1.484 0 1.552-1.304 1.992 1.552.556 1.552 2.27 0 .901-.422 1.525-.42.616-1.043.826-.615.204-1.752.204h-3.117zm1.926 3.734h.65q.969 0 1.216-.352.255-.353.255-.807 0-.42-.255-.745-.247-.332-1.07-.332h-.796zm0 3.923h.984q1.384 0 1.384-1.206 0-.67-.348-.942-.34-.278-1.036-.278h-.984z" style="font-weight:700;font-size:24px;font-family:&quot;Franklin Gothic Demi Cond&quot;;fill:#fff;stroke-width:.31411" transform="matrix(.82123 0 0 .86397 7.775 -.476)"/></g></g><path d="M186.498 43.069a121.567 121.567 0 0 1-.891 4.729l13.664-4.84zm8.808 13.263-10.95.125c-.725 1.939-.286 3.5-1.044 4.811zm-10.44-6.917c-.437 1.798-.228 3.48-.711 5.035l18.708-5.032z" style="fill:#fff;fill-opacity:1;fill-rule:nonzero;stroke:none;stroke-width:.365283"/></svg>