<svg xmlns="http://www.w3.org/2000/svg" width="984.4661254882812px" height="974.6275634765625px" style="shape-rendering:geometricPrecision;text-rendering:geometricPrecision;image-rendering:optimizeQuality;fill-rule:evenodd;clip-rule:evenodd" viewBox="0 0 984.4661254882812 974.6275634765625"><path fill="none" d="M0 0h984.466v974.628H0z" style="fill:#0e6660;fill-opacity:0;pointer-events:none"/><path d="m186.59 689.09-9.73 22.48h-5.14l-9.7-22.48h5.62l6.84 16.06 6.94-16.06h5.17Z" class="cls-1" style="fill:#606060" transform="matrix(1.94208 0 0 1.94208 6.867 14.157)"/><path d="M453.64 960.44h-13.07c.48 2.15 2.31 3.46 4.94 3.46a5.85 5.85 0 0 0 4.34-1.67l2.66 2.89c-1.6 1.83-4 2.8-7.13 2.8-6 0-9.85-3.76-9.85-8.9s4-8.89 9.21-8.89c5.08 0 9 3.4 9 9 0 .38-.06.93-.09 1.35m-13.14-2.93H449a4.32 4.32 0 0 0-8.51 0M455.79 959c0-5.2 4-8.89 9.63-8.89 3.63 0 6.49 1.57 7.74 4.4l-3.89 2.08a4.31 4.31 0 0 0-3.88-2.37 4.79 4.79 0 0 0 0 9.57 4.25 4.25 0 0 0 3.88-2.38l3.89 2.12c-1.25 2.76-4.11 4.37-7.74 4.37-5.62 0-9.63-3.7-9.63-8.9M487.45 966.83a7.24 7.24 0 0 1-4.08 1.09c-4.08 0-6.45-2.09-6.45-6.2v-7.1h-2.67v-3.85h2.67v-4.21h5v4.21h4.3v3.85h-4.3v7a2 2 0 0 0 2.15 2.28 3.38 3.38 0 0 0 2-.65ZM521.83 950.38V955c-.42 0-.74-.07-1.12-.07-2.77 0-4.6 1.51-4.6 4.82v8.16h-5v-17.27h4.79v2.28c1.22-1.67 3.27-2.54 5.94-2.54M523.27 965.32l1.73-3.92a13.21 13.21 0 0 0 7.42 2.34c3.08 0 4.33-1 4.33-2.41 0-4.2-13.07-1.31-13.07-9.66 0-3.82 3.09-7 9.48-7a15.06 15.06 0 0 1 7.8 2l-1.61 4a12.64 12.64 0 0 0-6.23-1.77c-3.08 0-4.27 1.16-4.27 2.57 0 4.14 13.07 1.29 13.07 9.54 0 3.76-3.11 7-9.53 7-3.57 0-7.17-1.06-9.16-2.6M562 960.44h-13.07c.48 2.15 2.31 3.46 5 3.46a5.82 5.82 0 0 0 4.33-1.67l2.67 2.89a9.07 9.07 0 0 1-7.13 2.8c-6 0-9.86-3.76-9.86-8.9s4-8.89 9.21-8.89c5.08 0 9 3.4 9 9 0 .38-.07.93-.1 1.35m-13.13-2.93h8.51a4.32 4.32 0 0 0-8.51 0M582.26 960.44h-13.07c.48 2.15 2.31 3.46 4.95 3.46a5.82 5.82 0 0 0 4.33-1.67l2.67 2.89a9.07 9.07 0 0 1-7.13 2.8c-6 0-9.86-3.76-9.86-8.9s4-8.89 9.22-8.89c5.07 0 9 3.4 9 9 0 .38-.07.93-.1 1.35m-13.13-2.93h8.51a4.32 4.32 0 0 0-8.51 0" class="cls-1" style="fill:#606060" transform="matrix(1.94208 0 0 1.94208 -478.654 -483.696)"/><path d="m343.11 704.8-2.41 2.37v4.4h-5v-23.83h5v13.49l7.33-6.94H354l-7.19 7.33 7.83 9.95h-6.07l-5.46-6.77Z" class="cls-1" style="fill:#606060" transform="matrix(1.94208 0 0 1.94208 6.867 14.157)"/><path d="m511.55 970.27-5-5a10.6 10.6 0 0 1-2.69 2.25c-.16.12-.32.24-.49.35l5.29 5.29a2 2 0 1 0 2.89-2.88" class="cls-1" style="fill:#606060" transform="matrix(1.94208 0 0 1.94208 -478.654 -483.696)"/><path d="M500 949.06a2.29 2.29 0 0 1 1.4-.49h.21a2.26 2.26 0 0 0-3.05.37h-.26a.93.93 0 0 0 .11-.44 1 1 0 0 0-.61-.91 1.29 1.29 0 0 1 .1 1.37 9.48 9.48 0 1 0 2.1.08m-3.5 2.48a4.26 4.26 0 0 1 2.1.54 4.1 4.1 0 0 1 2.27-.68 4.15 4.15 0 0 1 3.12 1.41 4.32 4.32 0 0 0-2.84-1.07 4.25 4.25 0 0 0-2.16.58c-.14.08-.27.17-.4.26l-.36-.23a4.25 4.25 0 0 0-2.2-.61 4.38 4.38 0 0 0-1.5.27 4.34 4.34 0 0 1 2-.47m6.63 7.77a4.86 4.86 0 1 1-9.09 0 3.79 3.79 0 1 1 4.55-6 3.79 3.79 0 1 1 4.54 6" class="cls-2" style="fill:#f84d10" transform="matrix(1.94208 0 0 1.94208 -478.654 -483.696)"/><path d="M502.92 955.75a1.58 1.58 0 1 1-1.58-1.58 1.64 1.64 0 0 1 .5.08.86.86 0 0 0 .79 1.22 1 1 0 0 0 .25 0 1.46 1.46 0 0 1 0 .31M497 955.75a1.2 1.2 0 1 1-1.2-1.2 1.12 1.12 0 0 1 .38.07.76.76 0 0 0-.06.27.66.66 0 0 0 .66.65.58.58 0 0 0 .19 0 .93.93 0 0 1 0 .24" class="cls-3" style="fill:#444" transform="matrix(1.94208 0 0 1.94208 -478.654 -483.696)"/><path d="M237.59 700.74h1.08v1.08h-1.08v-1.08ZM258.45 700.74h1.08v1.08h-1.08v-1.08Z" class="cls-1" style="fill:#606060" transform="matrix(1.94208 0 0 1.94208 6.867 14.157)"/><path d="M509.11 957.53h-.25a10.31 10.31 0 1 0-20.61 0H488a10.56 10.56 0 0 1 21.11 0" class="cls-1" style="fill:#606060" transform="matrix(1.94208 0 0 1.94208 -478.654 -483.696)"/><path d="M248.02 690.22h1.08v1.08h-1.08v-1.08Z" class="cls-1" style="fill:#606060" transform="matrix(1.94208 0 0 1.94208 6.867 14.157)"/><path d="M241.16 690.63h14.79v.24h-14.79v-.24Z" class="cls-1" style="fill:#606060" transform="matrix(1.94208 0 0 1.94208 6.867 14.157)"/><path d="M491.55 947.15a.34.34 0 1 1-.34-.34.34.34 0 0 1 .34.34M506.29 947.15a.34.34 0 1 1-.34-.34.34.34 0 0 1 .34.34M612.62 966.85a2.07 2.07 0 0 1-4.13 0 2.07 2.07 0 0 1 4.13 0ZM345.54 954.85l3.11 10.65 3.24-10.65h3.88l-4.94 14.24h-4.08l-1.46-4.19-1.29-4.74-1.26 4.74-1.47 4.19h-4.07l-5-14.24h3.9l3.25 10.65 3.07-10.65ZM371.75 954.85l3.1 10.65 3.25-10.65h3.9l-5 14.24h-4l-1.46-4.19-1.26-4.74-1.28 4.74-1.46 4.19h-4.08l-5-14.24h3.91l3.24 10.65 3.08-10.65ZM398 954.85l3.1 10.65 3.25-10.65h3.88l-4.94 14.24h-4.08l-1.47-4.19-1.26-4.74-1.26 4.74-1.47 4.19h-4.08l-5-14.24h3.9l3.25 10.65 3.07-10.65ZM414.09 967.05a2.07 2.07 0 0 1-4.14 0 2.07 2.07 0 0 1 4.14 0ZM627.24 966.85a7.26 7.26 0 0 1-5.45 2.24c-4.11 0-7.53-2.46-7.53-7.49s3.42-7.5 7.53-7.5a6.73 6.73 0 0 1 5.11 2.1l-2.21 2.33a4.3 4.3 0 0 0-2.84-1.12 4 4 0 0 0-4.08 4.19 3.85 3.85 0 0 0 4 4.13 4.25 4.25 0 0 0 3.1-1.17ZM643.16 961.71a7.37 7.37 0 1 1-7.41-7.37 7.15 7.15 0 0 1 7.41 7.37Zm-11.23 0c0 2.16 1.29 4.17 3.85 4.17s3.85-2 3.85-4.17a4 4 0 0 0-3.85-4.19 3.89 3.89 0 0 0-3.85 4.19ZM655 969.09v-7.58c0-1.86-1-3.56-2.9-3.56s-3 1.7-3 3.56v7.58h-3.5v-14.18h3.25l.25 1.72a4.13 4.13 0 0 1 3.74-2 4.24 4.24 0 0 1 4.19 2.64 5.12 5.12 0 0 1 4.74-2.58c4 0 6 2.47 6 6.72v7.63h-3.5v-7.63c0-1.87-.78-3.45-2.67-3.45a3.23 3.23 0 0 0-3.08 3.5v7.58ZM333.08 934.35V923.6h3.29a5.39 5.39 0 0 1 4 1.49 5.82 5.82 0 0 1 0 7.78 5.38 5.38 0 0 1-4 1.48Zm1.38-9.43V933h1.91a4.06 4.06 0 1 0 0-8.11ZM342.57 930.67a3.92 3.92 0 0 1 1.07-2.81 3.86 3.86 0 0 1 5.42 0 3.89 3.89 0 0 1 1.08 2.81 3.84 3.84 0 0 1-1.08 2.81 3.86 3.86 0 0 1-5.42 0 3.9 3.9 0 0 1-1.07-2.81Zm1.38 0a2.69 2.69 0 0 0 .69 1.92 2.26 2.26 0 0 0 1.71.74 2.29 2.29 0 0 0 1.72-.74 2.69 2.69 0 0 0 .69-1.92 2.66 2.66 0 0 0-.69-1.9 2.27 2.27 0 0 0-1.72-.76 2.24 2.24 0 0 0-1.71.76 2.66 2.66 0 0 0-.64 1.9ZM361.67 927l-2.37 7.36h-1.42l-1.83-5.64-1.81 5.64h-1.4l-2.37-7.36h1.44l1.64 5.56 1.82-5.56h1.42l1.82 5.56 1.62-5.56ZM362.57 927h1.32v1h.11a2.43 2.43 0 0 1 1-.9 2.77 2.77 0 0 1 1.36-.36 2.71 2.71 0 0 1 2.08.78 3.1 3.1 0 0 1 .73 2.2v4.62h-1.47v-4.53a1.63 1.63 0 0 0-1.81-1.81 1.74 1.74 0 0 0-1.38.67 2.44 2.44 0 0 0-.56 1.6v4.07h-1.38ZM372.09 923.6v10.75h-1.38V923.6ZM373.27 930.67a3.92 3.92 0 0 1 1.07-2.81 3.64 3.64 0 0 1 2.72-1.11 3.58 3.58 0 0 1 2.7 1.11 3.89 3.89 0 0 1 1.08 2.81 3.84 3.84 0 0 1-1.08 2.81 3.58 3.58 0 0 1-2.7 1.11 3.64 3.64 0 0 1-2.72-1.11 3.9 3.9 0 0 1-1.07-2.81Zm1.39 0a2.69 2.69 0 0 0 .69 1.92 2.35 2.35 0 0 0 3.42 0 2.69 2.69 0 0 0 .69-1.92 2.66 2.66 0 0 0-.69-1.9 2.3 2.3 0 0 0-3.42 0 2.66 2.66 0 0 0-.69 1.9ZM384.9 926.75a3.43 3.43 0 0 1 2.41.82 2.93 2.93 0 0 1 .89 2.25v4.53h-1.32v-1h-.06a2.63 2.63 0 0 1-2.28 1.26 3 3 0 0 1-2-.72 2.32 2.32 0 0 1-.82-1.8 2.19 2.19 0 0 1 .87-1.82 3.62 3.62 0 0 1 2.3-.67 4.09 4.09 0 0 1 2 .45v-.32a1.56 1.56 0 0 0-.57-1.22A2 2 0 0 0 385 928a2.12 2.12 0 0 0-1.83 1l-1.22-.77a3.39 3.39 0 0 1 2.95-1.48Zm-1.79 5.35a1.09 1.09 0 0 0 .46.9 1.67 1.67 0 0 0 1.07.36 2.19 2.19 0 0 0 1.55-.65 2 2 0 0 0 .69-1.51 2.83 2.83 0 0 0-1.8-.51 2.37 2.37 0 0 0-1.41.4 1.22 1.22 0 0 0-.56 1.01ZM392.76 934.59a3.22 3.22 0 0 1-2.47-1.14 4.3 4.3 0 0 1 0-5.56 3.22 3.22 0 0 1 2.47-1.14 3.17 3.17 0 0 1 1.48.35 2.55 2.55 0 0 1 1 .91h.06l-.06-1v-3.41h1.38v10.75h-1.32v-1h-.06a2.57 2.57 0 0 1-1 .92 3.16 3.16 0 0 1-1.48.32Zm.23-1.26a2.13 2.13 0 0 0 1.67-.74 3.06 3.06 0 0 0 0-3.82A2.11 2.11 0 0 0 393 928a2.14 2.14 0 0 0-1.67.76 3 3 0 0 0 0 3.81 2.16 2.16 0 0 0 1.67.76ZM401.88 934.35V923.6h3.78a4 4 0 0 1 1.43.25 3.44 3.44 0 0 1 1.17.7 3.21 3.21 0 0 1 .78 1.07 3.35 3.35 0 0 1-.78 3.84 3.42 3.42 0 0 1-1.17.69 4 4 0 0 1-1.43.25h-1.76v4Zm3.81-5.87a1.48 1.48 0 0 0 1.61-1.48 1.72 1.72 0 0 0-.1-.55 1.5 1.5 0 0 0-.3-.48 1.59 1.59 0 0 0-.5-.32 2 2 0 0 0-.71-.12h-1.79v3ZM410.76 923.6h2.36l4.33 7.21h.12l-.12-2.07v-5.14h2v10.75h-2.13l-4.57-7.61h-.12l.12 2.07v5.54h-2ZM426.57 928.45h5.27a3.21 3.21 0 0 1 .08.44 4.36 4.36 0 0 1 0 .51 6 6 0 0 1-.32 2 4.5 4.5 0 0 1-1 1.63 4.83 4.83 0 0 1-1.72 1.19 5.93 5.93 0 0 1-2.3.42 5.83 5.83 0 0 1-2.21-.42 5.49 5.49 0 0 1-1.8-1.17 5.65 5.65 0 0 1 0-8 5.49 5.49 0 0 1 1.8-1.17 5.83 5.83 0 0 1 2.21-.42 5.73 5.73 0 0 1 2.33.45 5.22 5.22 0 0 1 1.77 1.25l-1.4 1.36a3.62 3.62 0 0 0-1.17-.84 3.66 3.66 0 0 0-1.55-.3 3.81 3.81 0 0 0-1.39.26 3.62 3.62 0 0 0-1.16.75 3.67 3.67 0 0 0-.79 1.16A4 4 0 0 0 423 929a3.92 3.92 0 0 0 .29 1.52 3.43 3.43 0 0 0 .8 1.16 3.62 3.62 0 0 0 1.16.75 3.88 3.88 0 0 0 1.41.26 3.66 3.66 0 0 0 1.45-.25 3.28 3.28 0 0 0 1-.64 2.25 2.25 0 0 0 .51-.68 3.58 3.58 0 0 0 .34-.92h-3.38ZM436.93 934.35V923.6h3.79a4 4 0 0 1 1.43.25 3.4 3.4 0 0 1 1.16.7 3.11 3.11 0 0 1 .79 1.07 3.54 3.54 0 0 1 0 2.76 3.15 3.15 0 0 1-.79 1.08 3.38 3.38 0 0 1-1.16.69 4 4 0 0 1-1.43.25H439v4Zm3.82-5.87A1.53 1.53 0 0 0 442 928a1.51 1.51 0 0 0 .4-1 1.71 1.71 0 0 0-.09-.55 1.5 1.5 0 0 0-.3-.48 1.64 1.64 0 0 0-.51-.32 1.86 1.86 0 0 0-.7-.12H439v3ZM449.11 934.59a4.44 4.44 0 0 1-1.32-.19 3.85 3.85 0 0 1-1.16-.59 4.11 4.11 0 0 1-.91-.95 4.73 4.73 0 0 1-.62-1.32l1.91-.75a3 3 0 0 0 .73 1.35 1.87 1.87 0 0 0 1.38.53 2.43 2.43 0 0 0 .61-.08 2.14 2.14 0 0 0 .53-.24 1.28 1.28 0 0 0 .37-.4 1.13 1.13 0 0 0 .13-.56 1.33 1.33 0 0 0-.1-.54 1.23 1.23 0 0 0-.36-.45 3.08 3.08 0 0 0-.64-.4 10.38 10.38 0 0 0-1-.41l-.66-.24a4.81 4.81 0 0 1-.87-.4 3.78 3.78 0 0 1-.81-.62 2.87 2.87 0 0 1-.59-.85 2.43 2.43 0 0 1-.23-1.1 2.9 2.9 0 0 1 .24-1.18 2.79 2.79 0 0 1 .71-1 3.34 3.34 0 0 1 1.1-.65 4.17 4.17 0 0 1 1.41-.23 4 4 0 0 1 1.41.22 3.41 3.41 0 0 1 1 .55 3.12 3.12 0 0 1 .67.75 3.59 3.59 0 0 1 .38.76l-1.79.75a1.86 1.86 0 0 0-.55-.81 1.56 1.56 0 0 0-1.09-.36 1.8 1.8 0 0 0-1.09.31 1 1 0 0 0-.44.8 1 1 0 0 0 .42.82 4.5 4.5 0 0 0 1.34.65l.68.23a7 7 0 0 1 1.17.52 3.44 3.44 0 0 1 .92.7 2.79 2.79 0 0 1 .59.92 3.33 3.33 0 0 1 .2 1.19 2.88 2.88 0 0 1-.34 1.45 3 3 0 0 1-.86 1 3.79 3.79 0 0 1-1.19.59 4.53 4.53 0 0 1-1.28.23ZM454.46 923.6h3.63a6.41 6.41 0 0 1 2.3.39 5 5 0 0 1 1.74 1.1 4.79 4.79 0 0 1 1.1 1.71 6.47 6.47 0 0 1 0 4.37 4.63 4.63 0 0 1-1.1 1.69 5 5 0 0 1-1.74 1.1 6.41 6.41 0 0 1-2.3.39h-3.63Zm3.54 8.83a4.4 4.4 0 0 0 1.56-.25 3 3 0 0 0 1.13-.7 2.82 2.82 0 0 0 .67-1.09 4.17 4.17 0 0 0 .23-1.41 4.23 4.23 0 0 0-.23-1.42 2.82 2.82 0 0 0-.67-1.09 3.14 3.14 0 0 0-1.13-.7 4.4 4.4 0 0 0-1.56-.25h-1.52v6.91ZM471.39 934.59a4.44 4.44 0 0 1-1.32-.19 3.85 3.85 0 0 1-1.16-.59 4.11 4.11 0 0 1-.91-.95 4.73 4.73 0 0 1-.62-1.32l1.91-.75a3 3 0 0 0 .73 1.35 1.88 1.88 0 0 0 1.39.53 2.35 2.35 0 0 0 .6-.08 2.14 2.14 0 0 0 .53-.24 1.28 1.28 0 0 0 .37-.4 1.13 1.13 0 0 0 .13-.56 1.33 1.33 0 0 0-.1-.54 1.23 1.23 0 0 0-.36-.45 3.08 3.08 0 0 0-.64-.4 10.08 10.08 0 0 0-1-.41l-.67-.24a4.81 4.81 0 0 1-.87-.4 3.78 3.78 0 0 1-.81-.62 2.87 2.87 0 0 1-.59-.85 2.43 2.43 0 0 1-.23-1.1 2.86 2.86 0 0 1 .95-2.14 3.34 3.34 0 0 1 1.1-.65 4.19 4.19 0 0 1 1.42-.23 4 4 0 0 1 1.4.22 3.61 3.61 0 0 1 1 .55 3.29 3.29 0 0 1 .66.75 3.59 3.59 0 0 1 .38.76l-1.79.75a1.86 1.86 0 0 0-.55-.81 1.53 1.53 0 0 0-1.08-.36 1.81 1.81 0 0 0-1.1.31 1 1 0 0 0-.44.8 1 1 0 0 0 .42.82 4.5 4.5 0 0 0 1.34.65l.68.23a7.5 7.5 0 0 1 1.18.52 3.55 3.55 0 0 1 .91.7 2.79 2.79 0 0 1 .59.92 3.33 3.33 0 0 1 .2 1.19 2.88 2.88 0 0 1-.34 1.45 3 3 0 0 1-.86 1 3.79 3.79 0 0 1-1.19.59 4.53 4.53 0 0 1-1.26.19ZM475.69 923.6h2.19l2.22 6.47.39 1.38h.12l.42-1.38 2.31-6.47h2.19l-3.91 10.75h-2.14ZM491.45 928.45h5.27a3.4 3.4 0 0 1 .07.44 4.36 4.36 0 0 1 0 .51 6 6 0 0 1-.31 2 4.5 4.5 0 0 1-1 1.63 4.87 4.87 0 0 1-1.73 1.19 5.9 5.9 0 0 1-2.3.42 5.78 5.78 0 0 1-2.2-.42 5.49 5.49 0 0 1-1.8-1.17 5.65 5.65 0 0 1 0-8 5.49 5.49 0 0 1 1.8-1.17 6.14 6.14 0 0 1 4.54 0 5.28 5.28 0 0 1 1.76 1.25l-1.39 1.36a3.62 3.62 0 0 0-1.17-.84 3.66 3.66 0 0 0-1.55-.3 3.87 3.87 0 0 0-1.4.26 3.58 3.58 0 0 0-1.15.75 3.51 3.51 0 0 0-.79 1.16 3.79 3.79 0 0 0-.29 1.53 3.75 3.75 0 0 0 .29 1.52 3.41 3.41 0 0 0 .79 1.16 3.78 3.78 0 0 0 1.17.75 3.88 3.88 0 0 0 1.41.26 3.69 3.69 0 0 0 1.45-.25 3.35 3.35 0 0 0 1-.64 2.45 2.45 0 0 0 .52-.68 4 4 0 0 0 .34-.92h-3.38ZM503.84 925.52V928h4.31v1.93h-4.31v2.49h4.79v1.92h-6.82V923.6h6.82v1.92ZM510.49 934.35V923.6h3.78a4 4 0 0 1 1.44.25 3.5 3.5 0 0 1 1.16.7 3.21 3.21 0 0 1 .78 1.07 3.35 3.35 0 0 1-.78 3.84 3.47 3.47 0 0 1-1.16.69 4 4 0 0 1-1.44.25h-1.76v4Zm3.81-5.87a1.48 1.48 0 0 0 1.61-1.49 1.49 1.49 0 0 0-.4-1 1.59 1.59 0 0 0-.5-.32 1.92 1.92 0 0 0-.71-.12h-1.79v3ZM522.66 934.59a4.44 4.44 0 0 1-1.32-.19 3.8 3.8 0 0 1-1.15-.59 4.16 4.16 0 0 1-.92-.95 4.72 4.72 0 0 1-.61-1.32l1.9-.75a3 3 0 0 0 .74 1.35 1.87 1.87 0 0 0 1.38.53 2.49 2.49 0 0 0 .61-.08 2.07 2.07 0 0 0 .52-.24 1.18 1.18 0 0 0 .37-.4 1.13 1.13 0 0 0 .14-.56 1.33 1.33 0 0 0-.11-.54 1.31 1.31 0 0 0-.35-.45 3.18 3.18 0 0 0-.65-.4 9.12 9.12 0 0 0-1-.41l-.66-.24a4.9 4.9 0 0 1-.88-.4 3.73 3.73 0 0 1-.8-.62 3.1 3.1 0 0 1-.6-.85 2.57 2.57 0 0 1-.23-1.1 2.86 2.86 0 0 1 1-2.14 3.34 3.34 0 0 1 1.1-.65 4.27 4.27 0 0 1 1.42-.23 3.92 3.92 0 0 1 1.4.22 3.47 3.47 0 0 1 1 .55 3.35 3.35 0 0 1 .67.75 3.51 3.51 0 0 1 .37.76l-1.78.75a2 2 0 0 0-.55-.81 1.58 1.58 0 0 0-1.09-.36 1.83 1.83 0 0 0-1.1.31.94.94 0 0 0-.43.8 1 1 0 0 0 .42.82 4.42 4.42 0 0 0 1.33.65l.68.23a7.5 7.5 0 0 1 1.18.52 3.55 3.55 0 0 1 .91.7 2.79 2.79 0 0 1 .59.92 3.13 3.13 0 0 1 .2 1.19 2.88 2.88 0 0 1-.34 1.45 3 3 0 0 1-.86 1 3.74 3.74 0 0 1-1.18.59 4.65 4.65 0 0 1-1.32.19ZM536 929.74v4.61h-1.38V923.6h6.27v1.32H536v3.53h4.41v1.29ZM541.34 930.67a3.92 3.92 0 0 1 1.07-2.81 3.86 3.86 0 0 1 5.42 0 3.89 3.89 0 0 1 1.08 2.81 3.84 3.84 0 0 1-1.08 2.81 3.86 3.86 0 0 1-5.42 0 3.9 3.9 0 0 1-1.07-2.81Zm1.38 0a2.69 2.69 0 0 0 .69 1.92 2.36 2.36 0 0 0 3.43 0 2.69 2.69 0 0 0 .69-1.92 2.66 2.66 0 0 0-.69-1.9 2.32 2.32 0 0 0-3.43 0 2.66 2.66 0 0 0-.69 1.9ZM551.4 934.35H550V927h1.32v1.2h.06a2 2 0 0 1 .86-1 2.4 2.4 0 0 1 1.29-.42 2.59 2.59 0 0 1 1 .18l-.42 1.34a2.26 2.26 0 0 0-.81-.11 1.79 1.79 0 0 0-1.36.64 2.09 2.09 0 0 0-.58 1.47ZM556.85 934.35h-1.38V927h1.32v1h.06a2.43 2.43 0 0 1 1-.9 2.68 2.68 0 0 1 2.72 0 2.2 2.2 0 0 1 .91 1 2.85 2.85 0 0 1 2.53-1.42 2.5 2.5 0 0 1 2 .78 3.25 3.25 0 0 1 .69 2.23v4.59h-1.38V930a2.39 2.39 0 0 0-.38-1.5 1.56 1.56 0 0 0-1.26-.46 1.64 1.64 0 0 0-1.33.68 2.47 2.47 0 0 0-.54 1.59v4.07h-1.39V930a2.4 2.4 0 0 0-.37-1.5 1.56 1.56 0 0 0-1.26-.46 1.66 1.66 0 0 0-1.34.68 2.47 2.47 0 0 0-.54 1.59ZM571 926.75a3.46 3.46 0 0 1 2.42.82 2.92 2.92 0 0 1 .88 2.25v4.53H573v-1h-.06a2.63 2.63 0 0 1-2.28 1.26 3 3 0 0 1-2-.72 2.31 2.31 0 0 1-.81-1.8 2.18 2.18 0 0 1 .86-1.82 3.64 3.64 0 0 1 2.3-.67 4.09 4.09 0 0 1 2 .45v-.32a1.56 1.56 0 0 0-.57-1.22 2 2 0 0 0-1.34-.51 2.12 2.12 0 0 0-1.83 1l-1.21-.77a3.39 3.39 0 0 1 2.94-1.48Zm-1.79 5.35a1.09 1.09 0 0 0 .46.9 1.69 1.69 0 0 0 1.07.36 2.23 2.23 0 0 0 1.56-.65 2 2 0 0 0 .68-1.51 2.83 2.83 0 0 0-1.8-.51 2.32 2.32 0 0 0-1.4.4 1.21 1.21 0 0 0-.59 1.01ZM578.61 934.47a2 2 0 0 1-2.11-2.1v-4.12h-1.29V927h1.29v-2.25h1.39V927h1.8v1.26h-1.8v3.67a1.36 1.36 0 0 0 .28 1 1 1 0 0 0 .65.26 1.12 1.12 0 0 0 .32 0 1.24 1.24 0 0 0 .29-.1l.44 1.24a3.71 3.71 0 0 1-1.26.14ZM586.79 932.31a2 2 0 0 1-.84 1.62 3.65 3.65 0 0 1-4.07.08 3.15 3.15 0 0 1-1.2-1.52l1.23-.53a2.23 2.23 0 0 0 .79 1 1.87 1.87 0 0 0 1.13.37 2 2 0 0 0 1.1-.29.8.8 0 0 0 .45-.67c0-.47-.36-.82-1.08-1l-1.26-.31c-1.44-.36-2.15-1-2.15-2.07a1.91 1.91 0 0 1 .82-1.62 3.43 3.43 0 0 1 2.09-.61 3.38 3.38 0 0 1 1.76.47 2.51 2.51 0 0 1 1.11 1.24l-1.23.52a1.52 1.52 0 0 0-.69-.73 2.05 2.05 0 0 0-1-.27 1.75 1.75 0 0 0-1 .27.78.78 0 0 0-.43.67c0 .42.39.72 1.19.9l1.11.28c1.44.35 2.17 1.09 2.17 2.2ZM592.91 934.35h-1.38V923.6h1.38ZM594.83 927h1.33v1h.06a2.47 2.47 0 0 1 1-.9 2.8 2.8 0 0 1 1.36-.36 2.7 2.7 0 0 1 2.08.78 3.06 3.06 0 0 1 .73 2.2v4.62H600v-4.53a1.63 1.63 0 0 0-1.82-1.81 1.74 1.74 0 0 0-1.38.67 2.43 2.43 0 0 0-.55 1.6v4.07h-1.39ZM612.7 931.48a2.8 2.8 0 0 1-1 2.27 4 4 0 0 1-2.56.84 3.76 3.76 0 0 1-2.35-.78 4 4 0 0 1-1.42-2.13l1.33-.54a3.4 3.4 0 0 0 .37.87 3.07 3.07 0 0 0 .56.67 2.65 2.65 0 0 0 .72.43 2.07 2.07 0 0 0 .82.16 2.36 2.36 0 0 0 1.55-.49 1.59 1.59 0 0 0 .6-1.3 1.55 1.55 0 0 0-.5-1.15 4.71 4.71 0 0 0-1.74-.9 13.93 13.93 0 0 1-1.6-.64 2.75 2.75 0 0 1-1.71-2.56 2.62 2.62 0 0 1 .94-2 3.46 3.46 0 0 1 2.36-.84 3.62 3.62 0 0 1 2.13.63 3 3 0 0 1 1.2 1.55l-1.29.54a1.92 1.92 0 0 0-.71-1 2.31 2.31 0 0 0-2.67 0 1.32 1.32 0 0 0-.55 1.1 1.26 1.26 0 0 0 .43 1 7.54 7.54 0 0 0 2.09 1 5.23 5.23 0 0 1 2.33 1.36 2.86 2.86 0 0 1 .67 1.91ZM615.92 924.46a1 1 0 1 1-.29-.69.94.94 0 0 1 .29.69Zm-.29 2.53v7.36h-1.38V927ZM617.43 927h1.32v1h.06a2.43 2.43 0 0 1 1-.9 2.8 2.8 0 0 1 1.36-.36 2.71 2.71 0 0 1 2.08.78 3.1 3.1 0 0 1 .73 2.2v4.62h-1.38v-4.53a1.63 1.63 0 0 0-1.82-1.81 1.74 1.74 0 0 0-1.38.67 2.44 2.44 0 0 0-.56 1.6v4.07h-1.38ZM628.75 937.83a4.39 4.39 0 0 1-1.16-.15 4 4 0 0 1-1-.45 3.27 3.27 0 0 1-.76-.67 2.85 2.85 0 0 1-.48-.87l1.31-.54a2.05 2.05 0 0 0 .78 1 2.19 2.19 0 0 0 1.29.39 2.29 2.29 0 0 0 1.76-.67 2.62 2.62 0 0 0 .63-1.86v-.71h-.06a2.71 2.71 0 0 1-1.06.92 3.13 3.13 0 0 1-1.45.34 3.23 3.23 0 0 1-2.48-1.13 4.31 4.31 0 0 1 0-5.57 3.27 3.27 0 0 1 3.93-.8 2.79 2.79 0 0 1 1.06.92h.06v-1h1.32v7a3.74 3.74 0 0 1-1 2.77 3.65 3.65 0 0 1-2.69 1.08Zm0-4.5a2.11 2.11 0 0 0 1.66-.74 3 3 0 0 0 0-3.82 2.09 2.09 0 0 0-1.66-.76 2.14 2.14 0 0 0-1.67.76 3 3 0 0 0 0 3.81 2.16 2.16 0 0 0 1.72.75ZM635.52 923.6v10.75h-1.38V923.6ZM640.43 934.59a3.52 3.52 0 0 1-2.67-1.11 3.93 3.93 0 0 1-1-2.81 4 4 0 0 1 1-2.8 3.67 3.67 0 0 1 5.22-.06 4.28 4.28 0 0 1 1 3v.15h-5.78a2.39 2.39 0 0 0 .72 1.74 2.34 2.34 0 0 0 3.73-.66l1.23.6a3.73 3.73 0 0 1-1.38 1.46 3.79 3.79 0 0 1-2.07.49Zm-2.2-4.8h4.22a1.81 1.81 0 0 0-.63-1.27 2.16 2.16 0 0 0-1.51-.51 1.94 1.94 0 0 0-1.34.49 2.26 2.26 0 0 0-.74 1.29ZM655.51 934.35h-7.39v-1.44l5.72-8h-5.48v-1.31h7.09v1.4l-5.72 8h5.78ZM658.74 924.46a1 1 0 1 1-.29-.69.94.94 0 0 1 .29.69Zm-.29 2.53v7.36h-1.38V927ZM664.08 934.59a3.19 3.19 0 0 1-1.48-.34 2.64 2.64 0 0 1-1-.92h-.06l.06 1v3.24h-1.38V927h1.32v1h.06a2.62 2.62 0 0 1 1-.91 3.2 3.2 0 0 1 1.48-.35 3.16 3.16 0 0 1 2.46 1.14 4 4 0 0 1 1 2.78 4 4 0 0 1-1 2.78 3.16 3.16 0 0 1-2.46 1.15Zm-.23-1.26a2.16 2.16 0 0 0 1.67-.75 3 3 0 0 0 0-3.81 2.23 2.23 0 0 0-3.35 0 2.76 2.76 0 0 0-.66 1.9 2.8 2.8 0 0 0 .66 1.92 2.19 2.19 0 0 0 1.68.74Z" class="cls-1" style="fill:#606060" transform="matrix(1.94208 0 0 1.94208 -478.654 -483.696)"/><path d="M507.42 743.65c92.17-90.16 199.7-154.65 180.44-394.34C619.48 334.76 554.75 297 507.42 297S395.35 334.76 327 349.31C307.71 589 415.25 653.49 507.42 743.65Z" class="cls-4" style="fill:#a7a9ac" transform="matrix(1.94208 0 0 1.94208 -478.654 -483.696)"/><path d="M418.83 335.25c-25.13 9.32-51.09 18.74-78.24 25.41-1 14.86-1.59 29.19-1.59 42.66 0 164.27 70.41 229.49 144.56 298.18l23.86 22.5 23.86-22.51c74.14-68.69 144.56-133.91 144.56-298.18 0-13.47-.61-27.8-1.6-42.66-27.14-6.65-53.1-16.08-78.24-25.4-33.23-12.31-64.62-23.94-88.58-23.94s-55.35 11.63-88.59 23.94Z" class="cls-5" style="fill:#fff" transform="matrix(1.94208 0 0 1.94208 -478.654 -483.696)"/><path d="M421.32 342c-22.69 8.4-47.94 17.58-73.91 24.36-.75 12.68-1.25 25-1.25 36.64 0 161.52 69.29 225.71 142.26 293.3l19 17.92 19-17.92c73-67.59 142.25-131.78 142.25-293.3 0-11.63-.5-24-1.24-36.64-26-6.78-51.22-16-73.91-24.36-32.61-12.09-63.42-23.51-86.1-23.51s-53.49 11.38-86.1 23.51Z" class="cls-6" style="fill:#0066b3" transform="matrix(1.94208 0 0 1.94208 -478.654 -483.696)"/><path d="M852.14 269.21c-76.985 0-135.422 62.885-135.752 63.235 86.15-123.517 222.99-3.884 239.128-318.288-78.46 160.688-110.038 136.723-162.882 175.642 0 0 32.141-47.076 2.175-104.29-18.275 96.91-94.308 97.415-111.029 161.193-3.049 8.856-6.234 23.053-9.458 44.221 0-42.512-68.536-117.107-181.293-117.107a251.286 251.286 0 0 0-92.812 18.216s-.874-52.047-52.922-83.276c17.673 83.975-36.298 116.078-67.002 189.838l.583-7.146c12.312-111.884-91.53-90.443-113.302-205.861-29.966 57.214 2.176 104.29 2.176 104.29-52.845-38.842-84.442-14.954-162.883-175.642C22.404 315.918 148.97 217.959 235.295 318.637a178.128 178.128 0 0 1 25.247 85.102c0 196.908 152.667 160.474 219.455 375.599 0 0 16.47-33.016 16.47-67.662 0-35.56-17.344-71.139-17.344-71.139s50.32 28.626 100.62 28.626c70.264 0 122.351-41.638 122.351-41.638s-58.554 3.884-106.698-9.536c234.176-54.727 93.142-349.147 382.513-313.2 0 0-42.513-35.578-125.77-35.578ZM538.123 505.155c-65.507 0-124.895-50.494-124.895-117.107 0-42.493 36.433-86.734 98.871-86.734 49.445 0 74.615 40.784 74.615 68.517 0 42.512-36.434 71.993-69.41 71.993-32.083 0-64.186-23.421-64.186-23.421s16.488 77.197 97.104 77.197c28.607 0 65.914-19.07 65.914-19.07s-22.489 28.625-78.013 28.625Z"/><path d="M514.55 483.26c24.78 0 40.9-22 40.9-41.29 0-26.75-18.09-45.62-46.41-45.62-19.66 0-35.19 11.6-35.19 11.6 10-15.53 25.36-25.36 25.36-25.36S441 398.31 441 456.13c0 48.76 47.19 84.15 75.11 84.15a24.78 24.78 0 0 0 10.23-2s-52.31-8.26-67.64-55.85c0 0 26 35.79 64.88 35.79 56.63 0 64.15-49.11 91.63-85.68 16.3-21.7 40.28-39 77.47-39a59.29 59.29 0 0 1 27.13 6.29c-73.53 0-79.79 53.82-101.52 98.38-17.69 36.26-46.73 63.64-88.41 63.64a26.8 26.8 0 0 1-13.37-3.54c23.2 23.2 66.85 18.09 66.85 18.09a58.24 58.24 0 0 1-30.28 8.26c-53.48 0-79.44-27.53-79.44-27.53s24 28.32 19.66 74.33c-21.62-88.49-105.78-83-105.78-177 0-62.14 56.92-102.27 46-134.5 13.76 8.65 10.62 41.69 10.62 41.69s29.1-14.95 54.27-14.95c48 0 92.41 33.82 92.41 83.77 0 33-27.53 66.06-57 66.06-30.28 0-44.44-21.23-44.44-21.23s13.76 7.96 25.17 7.96ZM255.87 284.52c31.85 126 84 64.41 126.82 138.49 0 0-5.92-54.74-60.57-76.22-49.19-19.33-66.25-62.27-66.25-62.27ZM332.64 311c-5.64 45.75 39.53 44.32 49.77 79 0 0 5.58-28.74-24.74-44.65-16.49-8.63-25.03-34.35-25.03-34.35Zm333.7 35.83C611.69 368.27 605.77 423 605.77 423c42.8-74.08 95-12.52 126.83-138.49 0 .01-17.06 42.95-66.26 62.28Zm-35.54-1.42C600.48 361.28 606.06 390 606.06 390c10.23-34.7 55.43-33.27 49.76-79.06 0 .06-8.53 25.78-25.02 34.43Z" class="cls-7" style="fill:#f5821f" transform="matrix(1.94208 0 0 1.94208 -478.654 -483.696)"/><path d="m725.904 756.11-16.566 43.717H686.48l16.566-43.717H585.608a28.704 28.704 0 0 0-6.584.835c.194-.524.33-.835.33-.835H478.211l-3.302 8.76a22.567 22.567 0 0 0-17.809-8.76h-50.882a29.636 29.636 0 0 0-23.305 11.478l-.272-.447a25.577 25.577 0 0 0-21.052-11.03h-72.887l-18.508 48.862a13.09 13.09 0 0 0 3.535 14.352l16.527 14.663h62.904a23.13 23.13 0 0 0 3.282-.253l-.097.253h42.298l9.245-24.373h19.304c-1.942 4.933-9.244 24.373-9.244 24.373h42.298l2.39-6.292a19.596 19.596 0 0 0 14.351 6.292h72.867l3.457-9.089a25.519 25.519 0 0 0 19.42 9.089h54.38a23.17 23.17 0 0 0 16.934-7.497 19.518 19.518 0 0 0 15.362 7.497h63.137a23.305 23.305 0 0 0 21.654-14.954l23.966-62.924Zm-386.106 43.717h-25.363c1.806-4.758 2.37-6.254 3.631-9.555h25.345c-1.593 4.233-2.72 7.166-3.613 9.555Z"/><path d="M432.66 643.79h-33.8l-8.22 21.67a1.31 1.31 0 0 0 .36 1.44l7 6.19h30.33a6.52 6.52 0 0 0 6.09-4.21l5.53-14.57a7.77 7.77 0 0 0-7.29-10.52Zm-3.14 11L426 664.2a3.27 3.27 0 0 1-3 2.1h-22.45l6-15.72h20.1a3.11 3.11 0 0 1 2.87 4.21ZM481.82 643.79h-26.19a9.79 9.79 0 0 0-9.14 6.32l-8.71 23H448l4.76-12.56h21.49l-4.76 12.56h10.23l7.91-20.88a6.21 6.21 0 0 0-5.81-8.44ZM454.47 656l1.27-3.35a3.26 3.26 0 0 1 3.05-2.1h16.08a2.18 2.18 0 0 1 2 2.95l-1 2.5ZM537 643.79h-40.57l-8.72 23a4.67 4.67 0 0 0 4.36 6.32h33.79l2.58-6.79h-28.52a1.24 1.24 0 0 1-1.16-1.68l.77-2a1.15 1.15 0 0 1 1.07-.74h29.53l2.58-6.79h-28.52a1.24 1.24 0 0 1-1.17-1.68l.78-2a1.13 1.13 0 0 1 1.07-.74h29.53ZM585.05 643.79H548a9.79 9.79 0 0 0-9.14 6.32l-4.73 12.46a7.77 7.77 0 0 0 7.27 10.52h28a6.54 6.54 0 0 0 6.1-4.21l4.68-12.36a1.1 1.1 0 0 0-1-1.48h-26.31v6.79H568l-1.29 3.42a1.64 1.64 0 0 1-1.53 1h-18.84a2.33 2.33 0 0 1-2.18-3.16l4.36-11.51a1.64 1.64 0 0 1 1.53-1h32.42ZM600.64 643.79h-10.22l-8.72 23a4.67 4.67 0 0 0 4.37 6.32h32.51a6.53 6.53 0 0 0 6.1-4.21l9.51-25.09H624l-7.74 20.41a3.26 3.26 0 0 1-3 2.1h-18.9a1.55 1.55 0 0 1-1.45-2.1Z" class="cls-5" style="fill:#fff" transform="matrix(1.94208 0 0 1.94208 -478.654 -483.696)"/><path d="M571.081 873.393h118.642l17.906-47.212H568.4a86.714 86.714 0 0 0-52.048 17.595l6.661-17.595H342.207l-39.483 104.115h61.312s4.777-12.565 6.72-17.731H490.29l1.38-3.67c.349.64.64 1.28 1.029 1.941a41.91 41.91 0 0 0 35.443 19.421h140.024l17.886-47.212H552.903a3.05 3.05 0 0 1-2.544-1.32 3.884 3.884 0 0 1-.64-1.244c.815-1.903 9.787-7.088 21.362-7.088Z"/><path d="M410.17 722.68h20l3.46-9.14h61.54L500.3 700H441a1.56 1.56 0 0 1-1.45-2.1l1.33-3.51a1.63 1.63 0 0 1 1.52-1h60.42l5.12-13.5h-81.55ZM518.41 722.68c-11.11 0-19.28-11-14.36-21a39.22 39.22 0 0 1 35.09-21.79H603l-5.12 13.5h-57.36c-9 0-20.24 5.36-15.11 12.77a6.91 6.91 0 0 0 5.75 3h60.74l-5.12 13.51Z" class="cls-5" style="fill:#fff" transform="matrix(1.94208 0 0 1.94208 -478.654 -483.696)"/></svg>