<svg width="222" height="31" viewBox="0 0 222 31" fill="none" xmlns="http://www.w3.org/2000/svg">
<rect x="0.786621" y="0.67627" width="1.91712" height="29.6089" fill="#222222"/>
<rect x="4.62109" y="0.67627" width="4.79279" height="29.6089" fill="#222222"/>
<rect x="13.248" y="0.67627" width="3.83423" height="29.6089" fill="#222222"/>
<rect x="18.0405" y="0.67627" width="1.91712" height="29.6089" fill="#222222"/>
<rect x="20.9165" y="0.67627" width="1.91712" height="29.6089" fill="#222222"/>
<rect x="25.7095" y="0.67627" width="2.87567" height="29.6089" fill="#222222"/>
<rect x="32.4189" y="0.67627" width="2.87567" height="29.6089" fill="#222222"/>
<rect x="36.2534" y="0.67627" width="3.83423" height="29.6089" fill="#222222"/>
<rect x="41.0464" y="0.67627" width="1.91712" height="29.6089" fill="#222222"/>
<rect x="46.7974" y="0.67627" width="1.91712" height="29.6089" fill="#222222"/>
<rect x="49.6733" y="0.67627" width="3.83423" height="29.6089" fill="#222222"/>
<rect x="56.3833" y="0.67627" width="1.91712" height="29.6089" fill="#222222"/>
<rect x="60.2173" y="0.67627" width="4.79279" height="29.6089" fill="#222222"/>
<rect x="68.8447" y="0.67627" width="3.83423" height="29.6089" fill="#222222"/>
<rect x="73.6372" y="0.67627" width="1.91712" height="29.6089" fill="#222222"/>
<rect x="76.5132" y="0.67627" width="1.91712" height="29.6089" fill="#222222"/>
<rect x="81.3057" y="0.67627" width="2.87567" height="29.6089" fill="#222222"/>
<rect x="88.0156" y="0.67627" width="2.87567" height="29.6089" fill="#222222"/>
<rect x="91.8501" y="0.67627" width="3.83423" height="29.6089" fill="#222222"/>
<rect x="96.6426" y="0.67627" width="1.91712" height="29.6089" fill="#222222"/>
<rect x="102.394" y="0.67627" width="1.91712" height="29.6089" fill="#222222"/>
<rect x="105.27" y="0.67627" width="3.83423" height="29.6089" fill="#222222"/>
<rect x="156.073" y="0.67627" width="1.91712" height="29.6089" fill="#222222"/>
<rect x="159.907" y="0.67627" width="4.79279" height="29.6089" fill="#222222"/>
<rect x="168.535" y="0.67627" width="3.83423" height="29.6089" fill="#222222"/>
<rect x="173.328" y="0.67627" width="1.91712" height="29.6089" fill="#222222"/>
<rect x="176.203" y="0.67627" width="1.91712" height="29.6089" fill="#222222"/>
<rect x="180.996" y="0.67627" width="2.87567" height="29.6089" fill="#222222"/>
<rect x="187.706" y="0.67627" width="2.87567" height="29.6089" fill="#222222"/>
<rect x="191.54" y="0.67627" width="3.83423" height="29.6089" fill="#222222"/>
<rect x="196.333" y="0.67627" width="1.91712" height="29.6089" fill="#222222"/>
<rect x="202.084" y="0.67627" width="1.91712" height="29.6089" fill="#222222"/>
<rect x="204.959" y="0.67627" width="3.83423" height="29.6089" fill="#222222"/>
<rect x="113.896" y="0.67627" width="1.91712" height="29.6089" fill="#222222"/>
<rect x="120.606" y="0.67627" width="3.83423" height="29.6089" fill="#222222"/>
<rect x="125.399" y="0.67627" width="2.87567" height="29.6089" fill="#222222"/>
<rect x="129.233" y="0.67627" width="2.87567" height="29.6089" fill="#222222"/>
<rect x="133.068" y="0.67627" width="3.83423" height="29.6089" fill="#222222"/>
<rect x="140.736" y="0.67627" width="1.91712" height="29.6089" fill="#222222"/>
<rect x="143.612" y="0.67627" width="1.91712" height="29.6089" fill="#222222"/>
<rect x="148.405" y="0.67627" width="2.87567" height="29.6089" fill="#222222"/>
<rect x="152.239" y="0.67627" width="1.91712" height="29.6089" fill="#222222"/>
<rect x="211.669" y="0.67627" width="1.91712" height="29.6089" fill="#222222"/>
<rect x="217.42" y="0.67627" width="3.83423" height="29.6089" fill="#222222"/>
</svg>
