<svg width="450" height="450" viewBox="0 0 93 118" fill="none" xmlns="http://www.w3.org/2000/svg">
<path d="M86.9524 49.1108C84.1588 49.1108 81.873 51.3966 81.873 54.1902C81.873 56.9839 84.1588 59.2696 86.9524 59.2696C89.7461 59.2696 92.0318 56.9839 92.0318 54.1902C92.0318 51.3966 89.7461 49.1108 86.9524 49.1108ZM86.9524 56.7299C85.4286 56.7299 84.4127 55.714 84.4127 54.1902C84.4127 52.6664 85.4286 51.6505 86.9524 51.6505C88.4762 51.6505 89.4921 52.6664 89.4921 54.1902C89.4921 55.714 88.4762 56.7299 86.9524 56.7299Z" fill="#FCB019"/>
<path d="M37.1745 8.98395L42.5079 3.65062C43.0158 3.14268 43.7777 3.14268 44.2857 3.65062L46.0634 5.42839C46.5714 5.93633 46.5714 6.69824 46.0634 7.20617L40.7301 12.5395C39.7142 13.5554 38.4444 14.8252 37.4285 15.8411C38.4444 15.8411 39.4603 16.0951 40.4761 16.349C41.238 15.5871 41.9999 15.0792 42.5079 14.3173L47.8412 8.98395C49.365 7.46014 49.365 5.17443 47.8412 3.65062L46.0634 1.87284C44.5396 0.349028 42.2539 0.349028 40.7301 1.87284L35.3968 7.20617C25.9999 16.603 16.8571 26.7617 8.22217 37.1744C8.98407 37.4284 9.74598 37.6824 10.5079 38.4443C18.8888 28.0316 27.7777 18.1268 37.1745 8.98395Z" fill="#EE2B2F"/>
<path d="M28.0319 24.4761C22.6986 29.5554 17.1113 34.3808 11.27 38.9523L13.0478 40.73C18.3811 36.4126 23.4605 31.8412 28.5399 27.2697C28.2859 26.5078 28.0319 25.4919 28.0319 24.4761Z" fill="#EE2B2F"/>
<path d="M66.6349 91.0158V70.9523C67.9047 69.6825 68.4127 68.1587 68.4127 66.6349C68.4127 64.8571 67.6508 63.3333 66.6349 62.0634L64.3492 59.7777L63.0793 58.5079L43.2698 38.6984C39.9682 35.3968 34.127 35.3968 30.8254 38.6984L20.9206 48.6031L13.3016 40.9841L11.2698 38.9523L10.7619 38.4444C10.5079 38.1904 10.5079 38.1904 10.2539 37.9365C9.49204 37.4285 8.73014 36.9206 7.96823 36.6666C5.93649 36.1587 3.3968 36.6666 1.87299 38.1904C0.857119 39.7142 0.0952148 41.492 0.0952148 43.0158C0.0952148 44.5396 0.857119 46.3174 1.87299 47.5872L16.3492 62.0634C17.619 63.3333 19.1428 63.8412 20.9206 63.8412C22.6984 63.8412 24.2222 63.3333 25.492 62.0634L33.619 53.9365L49.873 70.1904L12.5397 107.016C10.7619 108.794 10.2539 111.587 11.2698 113.873C12.2857 116.413 14.5714 117.682 17.1111 117.682C18.8889 117.682 20.4127 116.921 21.6825 115.905L54.1905 83.3968V93.5555C54.1905 95.3333 54.9524 96.8571 55.9682 98.1269L74 116.159C75.2698 117.429 76.7936 117.936 78.5714 117.936C80.3492 117.936 81.873 117.429 83.1428 116.159C85.6825 113.619 85.6825 109.556 83.1428 107.27L66.6349 91.0158ZM75.5238 114.381L57.492 96.3492C56.7301 95.5872 56.4762 94.5714 56.4762 93.5555V80.8571V79.0793V77.3015V73.746C56.4762 73.492 56.2222 72.9841 56.2222 72.7301H55.9682L55.7143 72.4761L53.1746 69.9365L54.1905 68.9206L55.4603 67.6507L60.0317 63.0793L61.3016 61.8095L62.3174 60.7936L62.8254 61.3015L65.1111 63.5873C65.3651 63.8412 65.619 64.0952 65.873 64.6031V64.8571C66.127 65.1111 66.127 65.619 66.127 65.873V66.1269C66.127 66.6349 66.127 66.8888 65.873 67.3968V67.6507L65.619 67.9047C65.3651 68.1587 65.3651 68.4126 65.1111 68.6666L64.6032 69.4285C64.3492 69.6825 64.3492 69.9365 64.3492 70.4444V71.7142V73.492V91.5238C64.3492 91.7777 64.6032 92.2857 64.6032 92.5396L81.1111 109.048C82.6349 110.571 82.6349 112.857 81.1111 114.381C79.5873 115.905 77.0476 115.905 75.5238 114.381ZM13.5555 113.111C13.0476 112.095 13.0476 110.317 14.3174 109.048L51.3968 71.9682L53.9365 74.5079V80.0952L19.6508 114.381C18.8889 115.143 17.873 115.397 16.8571 115.397C15.0793 115.397 14.0635 114.127 13.5555 113.111ZM37.9365 49.365C38.4444 48.8571 38.4444 48.0952 37.9365 47.5872C37.4285 47.0793 36.9206 47.0793 36.4127 47.3333C36.4127 47.3333 36.1587 47.3333 36.1587 47.5872L33.3651 50.3809L32.3492 51.3968L31.3333 52.4126L23.2063 60.5396C21.6825 62.0634 19.3968 62.0634 17.873 60.5396L3.3968 46.0634C3.14283 45.0476 2.6349 44.0317 2.6349 43.0158C2.6349 41.9999 3.14283 40.9841 3.65077 40.2222C4.41267 39.4603 5.17458 39.2063 6.19045 39.2063C7.20633 39.2063 7.96823 39.4603 8.73013 39.9682C8.73013 39.9682 8.9841 39.9682 8.9841 40.2222L9.23807 40.4761L11.0158 42.2539L19.6508 50.8888C20.1587 51.3968 20.9206 51.3968 21.4285 50.8888L27.7778 44.5396L29.3016 43.0158L32.0952 40.2222L32.3492 39.9682C33.619 38.6984 35.1428 38.1904 36.9206 38.1904C38.6984 38.1904 40.2222 38.9523 41.492 39.9682L60.2857 58.7619L51.3968 67.6507L35.1428 51.3968L37.9365 49.365Z" fill="black"/>
<path d="M36.9206 15.5869C32.0952 15.5869 28.0317 19.3964 28.0317 24.4758C28.0317 25.4917 28.2857 26.5075 28.5397 27.2695C29.8095 30.825 33.1111 33.3647 36.9206 33.3647C41.746 33.3647 45.8095 29.3012 45.8095 24.4758C45.8095 20.6663 43.5238 17.6187 40.2222 16.3488C39.2063 16.0949 38.1905 15.8409 37.1746 15.8409C37.1746 15.8409 37.1746 15.5869 36.9206 15.5869ZM36.9206 30.825C33.619 30.825 31.0794 28.5393 30.5714 25.4917C30.5714 25.2377 30.5714 24.9837 30.5714 24.4758C30.5714 23.206 30.8254 22.1901 31.5873 21.1742C32.0952 20.1583 32.8571 19.3964 33.873 18.8885C34.8889 18.3806 35.9048 18.1266 36.9206 18.1266C37.4286 18.1266 37.6825 18.1266 38.1905 18.3806C40.9841 18.8885 43.2698 21.4282 43.2698 24.4758C43.2698 28.0314 40.4762 30.825 36.9206 30.825Z" fill="black"/>
</svg>
