<svg width="63" height="63" viewBox="0 0 63 63" fill="none" xmlns="http://www.w3.org/2000/svg">
<path d="M58.6246 3.8501H48.9121C48.7371 3.8501 48.6496 3.9376 48.5621 4.0251C48.4746 4.1126 48.4746 4.2876 48.4746 4.4626L50.3996 12.2501C50.4871 12.4251 50.6621 12.6001 50.8371 12.6001H56.6121C56.8746 12.6001 57.0496 12.4251 57.0496 12.2501L58.9746 4.4626C58.9746 4.2876 58.9746 4.2001 58.8871 4.0251C58.8871 3.9376 58.7996 3.8501 58.6246 3.8501ZM56.3496 11.6376H51.2746L49.6121 4.8126H58.0996L56.3496 11.6376Z" fill="#2A76BC"/>
<path d="M50.9252 23.275H28.6127L24.5877 19.25V12.5125C24.5877 12.3375 24.5877 12.1625 24.5002 11.9875C24.2377 12.25 23.8877 12.425 23.5377 12.6V19.425C23.5377 19.5125 23.6252 19.6875 23.7127 19.775L28.0877 24.15C28.1752 24.2375 28.2627 24.325 28.4377 24.325H50.9252C51.7127 24.325 52.4127 24.9375 52.4127 25.8125C52.4127 26.6 51.8002 27.3 50.9252 27.3H35.3502C35.0877 27.3 34.8252 27.475 34.8252 27.825V37.0125H28.0002V28.6125C28.0002 28.525 27.9127 28.35 27.8252 28.2625L21.0002 21.4375C20.7377 21.175 20.5627 20.825 20.5627 20.3875V12.775C20.2127 12.6 19.9502 12.425 19.6002 12.1625C19.6002 12.3375 19.5127 12.5125 19.5127 12.6875V20.475C19.5127 21.0875 19.7752 21.7 20.2127 22.225L26.9502 28.9625V37.625V46.8125H23.5377C22.2252 46.8125 21.0877 47.8625 21.0877 49.2625C21.0877 50.575 22.1377 51.625 23.4502 51.7125L21.0002 54.075C20.5627 54.5125 20.3002 55.125 20.3002 55.825C20.3002 56.525 20.5627 57.0501 21.0002 57.5751C21.4377 58.0126 22.0502 58.275 22.7502 58.275C23.4502 58.275 23.9752 58.0126 24.5002 57.5751L30.6252 51.45H33.5127C34.8252 51.45 35.9627 50.4 35.9627 49V37.275V28.0875H51.0127C52.3252 28.0875 53.4627 27.0375 53.4627 25.6375C53.2877 24.325 52.2377 23.275 50.9252 23.275ZM22.3127 48.9125C22.3127 48.125 22.9252 47.425 23.8002 47.425H27.1252V47.8625L24.6752 50.3125H23.7127C22.9252 50.4 22.3127 49.7875 22.3127 48.9125ZM34.9127 46.9875V48.9125C34.9127 49.7001 34.3002 50.4 33.4252 50.4H31.5002C31.8502 49.9625 32.0252 49.4375 32.0252 48.9125V47.425V46.4625V41.125C32.0252 40.8625 31.8502 40.6 31.5002 40.6C31.2377 40.6 30.9752 40.775 30.9752 41.125V46.4625V47.425V48.9125C30.9752 49.2626 30.8002 49.7 30.5377 49.9625L30.1002 50.4L29.1377 51.3625L23.7127 56.7875C23.1877 57.3125 22.2252 57.3125 21.7002 56.7875C21.4377 56.5251 21.2627 56.175 21.2627 55.7375C21.2627 55.3 21.4377 54.95 21.7002 54.6875L25.1127 51.275L26.0752 50.3125L28.0002 48.3875C28.0877 48.3 28.1752 48.2126 28.1752 48.0375V47.425V46.4625V37.7125H35.0002V46.9875H34.9127Z" fill="black"/>
<path d="M31.5004 22.3125C33.3379 22.3125 34.9129 20.825 34.9129 18.9C34.9129 16.975 33.4254 15.4875 31.5004 15.4875C29.6629 15.4875 28.0879 16.975 28.0879 18.9C28.0879 20.825 29.6629 22.3125 31.5004 22.3125ZM31.5004 16.45C32.8129 16.45 33.9504 17.5 33.9504 18.9C33.9504 20.2125 32.9004 21.35 31.5004 21.35C30.1004 21.35 29.0504 20.3 29.0504 18.9C29.0504 17.5875 30.1879 16.45 31.5004 16.45Z" fill="black"/>
<path d="M22.1375 12.95C22.6625 12.95 23.1875 12.8625 23.625 12.6C23.975 12.425 24.2375 12.25 24.5875 11.9875C25.2 11.375 25.6375 10.5 25.6375 9.5375C25.6375 7.7 24.15 6.125 22.225 6.125C20.3 6.125 18.8125 7.6125 18.8125 9.5375C18.8125 10.5 19.1625 11.375 19.8625 11.9875C20.125 12.25 20.475 12.425 20.825 12.6C21.0875 12.775 21.6125 12.95 22.1375 12.95ZM20.2125 11.025C19.8625 10.5875 19.6875 10.15 19.6875 9.5375C19.6875 8.225 20.7375 7.0875 22.1375 7.0875C23.5375 7.0875 24.5875 8.1375 24.5875 9.5375C24.5875 10.0625 24.4125 10.5875 24.0625 11.025C23.8875 11.2875 23.625 11.4625 23.3625 11.6375C23.0125 11.8125 22.575 11.9875 22.1375 11.9875C21.7 11.9875 21.2625 11.9 20.9125 11.6375C20.65 11.4625 20.3875 11.2875 20.2125 11.025Z" fill="#EE2B2F"/>
</svg>
