<?xml version="1.0" encoding="iso-8859-1"?>
<!-- Uploaded to: SVG Repo, www.svgrepo.com, Generator: SVG Repo Mixer Tools -->
<svg version="1.1" id="Layer_1" xmlns="http://www.w3.org/2000/svg" xmlns:xlink="http://www.w3.org/1999/xlink" 
	 viewBox="0 0 512 512" xml:space="preserve">
<path style="fill:#FBA026;" d="M435.992,453.938H76.008c56.708-140.892,102.513-281.784,137.412-422.674
	c3.013-12.164,13.922-20.707,26.453-20.707h32.253c12.532,0,23.44,8.542,26.453,20.707
	C333.479,172.154,379.283,313.046,435.992,453.938z"/>
<rect x="29.031" y="453.938" style="fill:#EB4E49;" width="453.938" height="47.505"/>
<g>
	<path style="fill:#EFEFEF;" d="M306.714,63.34H205.286c2.776-10.694,5.489-21.388,8.139-32.082
		c3.009-12.161,13.914-20.702,26.445-20.702h32.261c12.531,0,23.436,8.54,26.445,20.702
		C301.225,41.952,303.938,52.646,306.714,63.34z"/>
	<path style="fill:#EFEFEF;" d="M337.719,174.186H174.281c5.278-17.598,10.388-35.196,15.318-52.784h132.803
		C327.332,138.99,332.441,156.588,337.719,174.186z"/>
	<path style="fill:#EFEFEF;" d="M373.232,285.031H138.768c5.996-17.598,11.824-35.196,17.471-52.784h199.522
		C361.409,249.835,367.236,267.433,373.232,285.031z"/>
</g>
<g>
	<path style="fill:#231F20;" d="M482.969,443.381h-39.83C391.589,314.516,309.898,33.05,308.827,28.725
		c-0.77-3.106-1.91-6.037-3.36-8.757C299.018,7.874,286.353,0,272.131,0h-0.004h-32.253h-0.004
		c-14.699,0-27.739,8.411-33.966,21.196c-1.154,2.368-2.075,4.887-2.73,7.529c-1.069,4.318-82.769,285.807-134.312,414.657h-39.83
		c-5.83,0-10.557,4.726-10.557,10.557v47.505c0,5.83,4.726,10.557,10.557,10.557h453.938c5.83,0,10.557-4.726,10.557-10.557v-47.505
		C493.526,448.108,488.8,443.381,482.969,443.381z M146.274,295.588h219.453c4.227,12.321,8.535,24.637,12.923,36.948h-245.3
		C137.74,320.225,142.047,307.908,146.274,295.588z M182.084,184.742h147.832c3.731,12.312,7.547,24.63,11.443,36.948H170.641
		C174.537,209.372,178.353,197.055,182.084,184.742z M213.434,73.897h85.132c3.23,12.305,6.545,24.621,9.949,36.948h-105.03
		C206.889,98.518,210.203,86.202,213.434,73.897z M323.566,163.629H188.434c3.127-10.601,6.189-21.193,9.158-31.67h116.816
		C317.377,142.436,320.439,153.028,323.566,163.629z M358.518,274.474H153.482c3.557-10.597,7.049-21.188,10.445-31.67h184.148
		C351.47,253.286,354.962,263.877,358.518,274.474z M272.126,21.113c5.768,0,10.958,2.934,13.974,7.551
		c1.004,1.539,1.767,3.265,2.229,5.132c1.014,4.096,4.298,17.127,4.772,18.986h-74.199c0.47-1.843,3.759-14.901,4.773-18.989
		c0.385-1.555,0.989-3.005,1.758-4.339c2.923-5.066,8.357-8.342,14.444-8.342h32.251V21.113z M106.016,406.433H256
		c5.83,0,10.557-4.726,10.557-10.557S261.83,385.32,256,385.32H114.047c3.959-10.525,7.877-21.117,11.717-31.67h260.472
		c3.839,10.554,7.758,21.145,11.717,31.67h-54.332c-5.83,0-10.557,4.726-10.557,10.557s4.726,10.557,10.557,10.557h62.365
		c4.727,12.328,9.532,24.646,14.417,36.948H91.598C96.484,431.079,101.288,418.761,106.016,406.433z M472.412,490.887H39.588
		v-26.392h432.825V490.887z"/>
	<path style="fill:#231F20;" d="M299.546,385.32h-1.056c-5.83,0-10.557,4.726-10.557,10.557s4.726,10.557,10.557,10.557h1.056
		c5.83,0,10.557-4.726,10.557-10.557S305.377,385.32,299.546,385.32z"/>
</g>
</svg>