<svg width="193" height="172" viewBox="0 0 193 172" fill="none" xmlns="http://www.w3.org/2000/svg">
<g clip-path="url(#clip0_221_3790)">
<path d="M171.65 86C171.65 127.421 138.071 161 96.6504 161C55.2337 161 21.6504 127.421 21.6504 86C21.6504 44.5833 55.2337 11 96.6504 11C138.071 11 171.65 44.5833 171.65 86Z" fill="#FFCC4D"/>
<path d="M69.5671 94.3332C75.32 94.3332 79.9837 87.804 79.9837 79.7498C79.9837 71.6957 75.32 65.1665 69.5671 65.1665C63.8141 65.1665 59.1504 71.6957 59.1504 79.7498C59.1504 87.804 63.8141 94.3332 69.5671 94.3332Z" fill="#664500"/>
<path d="M123.734 94.3332C129.487 94.3332 134.15 87.804 134.15 79.7498C134.15 71.6957 129.487 65.1665 123.734 65.1665C117.981 65.1665 113.317 71.6957 113.317 79.7498C113.317 87.804 117.981 94.3332 123.734 94.3332Z" fill="#664500"/>
<path d="M119.505 127.162C119.459 126.979 114.734 108.917 96.6505 108.917C78.5672 108.917 73.8422 126.979 73.7964 127.162C73.6928 127.594 73.7308 128.047 73.9049 128.456C74.079 128.864 74.3799 129.205 74.763 129.429C75.1504 129.655 75.5992 129.752 76.0453 129.707C76.4913 129.662 76.9117 129.477 77.2464 129.179C77.2839 129.15 81.4672 125.583 96.6505 125.583C111.609 125.583 115.888 129.042 116.051 129.179C116.372 129.488 116.786 129.685 117.229 129.74C117.672 129.795 118.121 129.705 118.509 129.483C118.906 129.259 119.219 128.91 119.399 128.491C119.578 128.072 119.616 127.605 119.505 127.162Z" fill="#664500"/>
<path d="M63.3171 136C63.3171 147.508 53.9921 156.833 42.4837 156.833C30.9754 156.833 21.6504 147.508 21.6504 136C21.6504 124.492 38.3171 94.3335 42.4837 94.3335C46.6504 94.3335 63.3171 124.492 63.3171 136Z" fill="#99C8ED"/>
<path d="M146.651 65.1665C123.509 65.1665 114.142 46.9707 113.755 46.1957C113.258 45.2083 113.174 44.064 113.521 43.0146C113.868 41.9652 114.617 41.0966 115.605 40.5998C116.592 40.1031 117.736 40.019 118.786 40.3659C119.835 40.7129 120.704 41.4625 121.201 42.4498C121.513 43.0582 128.788 56.8332 146.651 56.8332C147.756 56.8332 148.815 57.2722 149.597 58.0536C150.378 58.835 150.817 59.8948 150.817 60.9998C150.817 62.1049 150.378 63.1647 149.597 63.9461C148.815 64.7275 147.756 65.1665 146.651 65.1665ZM46.6506 65.1665C45.5455 65.1665 44.4857 64.7275 43.7043 63.9461C42.9229 63.1647 42.4839 62.1049 42.4839 60.9998C42.4839 59.8948 42.9229 58.835 43.7043 58.0536C44.4857 57.2722 45.5455 56.8332 46.6506 56.8332C67.8297 56.8332 71.6339 43.8332 71.7881 43.279C72.3922 41.079 74.6631 39.7457 76.8672 40.3248C79.0756 40.904 80.4131 43.129 79.8589 45.3457C79.6547 46.154 74.5839 65.1665 46.6506 65.1665Z" fill="#664500"/>
</g>
<defs>
<clipPath id="clip0_221_3790">
<rect width="150" height="150" fill="white" transform="translate(21.6504 11)"/>
</clipPath>
</defs>
</svg>
