<svg width="28" height="24" viewBox="0 0 28 24" fill="none" xmlns="http://www.w3.org/2000/svg">
<path d="M13.5375 7.5L17.5 11.45V11.25C17.5 10.2554 17.1049 9.30161 16.4017 8.59835C15.6984 7.89509 14.7446 7.5 13.75 7.5H13.5375ZM8.1625 8.5L10.1 10.4375C10.0375 10.7 10 10.9625 10 11.25C10 12.2446 10.3951 13.1984 11.0983 13.9017C11.8016 14.6049 12.7554 15 13.75 15C14.025 15 14.3 14.9625 14.5625 14.9L16.5 16.8375C15.6625 17.25 14.7375 17.5 13.75 17.5C12.0924 17.5 10.5027 16.8415 9.33058 15.6694C8.15848 14.4973 7.5 12.9076 7.5 11.25C7.5 10.2625 7.75 9.3375 8.1625 8.5ZM1.25 1.5875L4.1 4.4375L4.6625 5C2.6 6.625 0.975 8.75 0 11.25C2.1625 16.7375 7.5 20.625 13.75 20.625C15.6875 20.625 17.5375 20.25 19.225 19.575L19.7625 20.1L23.4125 23.75L25 22.1625L2.8375 0M13.75 5C15.4076 5 16.9973 5.65848 18.1694 6.83058C19.3415 8.00269 20 9.5924 20 11.25C20 12.05 19.8375 12.825 19.55 13.525L23.2125 17.1875C25.0875 15.625 26.5875 13.575 27.5 11.25C25.3375 5.7625 20 1.875 13.75 1.875C12 1.875 10.325 2.1875 8.75 2.75L11.4625 5.4375C12.175 5.1625 12.9375 5 13.75 5Z" fill="#222222" fill-opacity="0.5"/>
</svg>
