<svg width="20" height="21" viewBox="0 0 20 21" fill="none" xmlns="http://www.w3.org/2000/svg">
<path d="M3.5 2.88818C2.67 2.88818 2 3.55818 2 4.38618V17.3672C2 18.1952 2.671 18.8652 3.5 18.8652H4.5C5.327 18.8652 5.999 18.1952 5.999 17.3672V4.38618C5.999 3.55818 5.327 2.88818 4.499 2.88818H3.499H3.5ZM8.498 2.88818C7.67 2.88818 6.998 3.55818 6.998 4.38618V17.3672C6.998 18.1952 7.67 18.8652 8.498 18.8652H9.498C10.326 18.8652 10.997 18.1952 10.997 17.3672V4.38618C10.997 3.55918 10.326 2.88818 9.497 2.88818H8.497H8.498ZM15.718 7.04518C15.6723 6.84723 15.5869 6.66061 15.4669 6.49666C15.3469 6.33271 15.1949 6.19485 15.02 6.09142C14.8452 5.988 14.6511 5.92118 14.4496 5.89501C14.2482 5.86884 14.0435 5.88387 13.848 5.93918L13.103 6.14918C12.739 6.25209 12.4275 6.48887 12.2308 6.81198C12.0342 7.1351 11.9671 7.52064 12.043 7.89118L14.046 17.6902C14.0869 17.8888 14.1677 18.0771 14.2834 18.2436C14.3992 18.4101 14.5474 18.5514 14.7193 18.659C14.8912 18.7666 15.0832 18.8382 15.2835 18.8695C15.4839 18.9008 15.6885 18.8912 15.885 18.8412L16.87 18.5912C17.66 18.3912 18.144 17.5972 17.962 16.8042L15.718 7.04418V7.04518Z" fill="white"/>
</svg>
