<svg width="24" height="14" viewBox="0 0 24 14" fill="none" xmlns="http://www.w3.org/2000/svg">
<path d="M7.24043 13.3877C7.40085 13.2273 7.48485 13.0231 7.49243 12.7752C7.49943 12.5273 7.42272 12.3231 7.26231 12.1627L2.97481 7.8752H22.3779C22.6258 7.8752 22.8338 7.79119 23.0018 7.6232C23.1692 7.45578 23.2529 7.24811 23.2529 7.0002C23.2529 6.75228 23.1692 6.54432 23.0018 6.37632C22.8338 6.2089 22.6258 6.1252 22.3779 6.1252H2.97481L7.26231 1.8377C7.42272 1.67728 7.49943 1.47311 7.49243 1.2252C7.48485 0.977279 7.40085 0.773112 7.24043 0.612695C7.08002 0.452278 6.87585 0.37207 6.62793 0.37207C6.38001 0.37207 6.17585 0.452278 6.01543 0.612695L0.240433 6.3877C0.152931 6.46061 0.0908051 6.55161 0.0540562 6.6607C0.017889 6.77036 -0.00019455 6.88353 -0.00019455 7.0002C-0.00019455 7.11686 0.017889 7.22624 0.0540562 7.32832C0.0908051 7.4304 0.152931 7.5252 0.240433 7.61269L6.01543 13.3877C6.17585 13.5481 6.38001 13.6283 6.62793 13.6283C6.87585 13.6283 7.08002 13.5481 7.24043 13.3877Z" fill="#222222"/>
</svg>
