<?xml version="1.0" encoding="iso-8859-1"?>
<!-- Uploaded to: SVG Repo, www.svgrepo.com, Generator: SVG Repo Mixer Tools -->
<svg version="1.1" id="Layer_1" xmlns="http://www.w3.org/2000/svg" xmlns:xlink="http://www.w3.org/1999/xlink" 
	 viewBox="0 0 512 512" xml:space="preserve"
	  width="193" height="172">
<g>
	<path style="fill:#EFEFEF;" d="M256,10.779L256,10.779c-72.925,0-132.042,59.117-132.042,132.042v229.053h264.084V142.821
		C388.042,69.896,328.925,10.779,256,10.779z"/>
	<path style="fill:#EFEFEF;" d="M452.716,501.221H59.284v-68.716c0-33.486,27.146-60.632,60.632-60.632h272.168
		c33.486,0,60.632,27.146,60.632,60.632V501.221z"/>
</g>
<rect x="123.958" y="323.368" style="fill:#747D8C;" width="264.084" height="48.505"/>
<rect x="183.242" y="274.863" style="fill:#FBA026;" width="145.516" height="48.505"/>
<circle style="fill:#EB4E49;" cx="256" cy="153.956" r="75.453"/>
<path style="fill:#FAC51C;" d="M256,175.517c-11.887,0-21.558-9.671-21.558-21.558s9.671-21.558,21.558-21.558
	c11.887,0,21.558,9.671,21.558,21.558S267.887,175.517,256,175.517z"/>
<g>
	<path style="fill:#231F20;" d="M398.821,361.421v-218.6C398.821,64.069,334.752,0,256,0S113.179,64.069,113.179,142.821v218.6
		c-36.227,3.407-64.674,33.981-64.674,71.084v68.716c0,5.953,4.826,10.779,10.779,10.779h393.432
		c5.953,0,10.779-4.826,10.779-10.779v-68.716C463.495,395.402,435.048,364.829,398.821,361.421z M134.737,334.147h242.526v26.947
		H134.737V334.147z M256,218.633c-35.661,0-64.674-29.013-64.674-64.674S220.339,89.285,256,89.285s64.674,29.013,64.674,64.674
		S291.661,218.633,256,218.633z M317.979,285.642v26.947H194.021v-26.947H317.979z M256,21.558
		c66.865,0,121.263,54.398,121.263,121.263v169.768h-37.726v-37.726c0-5.953-4.826-10.779-10.779-10.779h-61.979v-24.591
		c42.477-5.324,75.453-41.638,75.453-85.534c0-47.548-38.684-86.232-86.232-86.232s-86.232,38.683-86.232,86.232
		c0,43.896,32.976,80.21,75.453,85.534v24.591h-61.979c-5.953,0-10.779,4.826-10.779,10.779v37.726h-37.726V142.821
		C134.737,75.956,189.135,21.558,256,21.558z M70.063,490.442v-43.116h194.56c5.953,0,10.779-4.826,10.779-10.779
		c0-5.953-4.826-10.779-10.779-10.779H70.531c3.301-24.312,24.181-43.116,49.385-43.116h272.168
		c25.203,0,46.084,18.804,49.385,43.116h-80.913c-5.953,0-10.779,4.826-10.779,10.779c0,5.953,4.826,10.779,10.779,10.779h81.381
		v43.116H70.063z"/>
	<path style="fill:#231F20;" d="M256,121.622c-17.831,0-32.337,14.506-32.337,32.337s14.506,32.337,32.337,32.337
		s32.337-14.506,32.337-32.337S273.831,121.622,256,121.622z M256,164.738c-5.944,0-10.779-4.835-10.779-10.779
		S250.056,143.18,256,143.18c5.944,0,10.779,4.835,10.779,10.779S261.944,164.738,256,164.738z"/>
	<path style="fill:#231F20;" d="M314.745,425.768h-0.539c-5.953,0-10.779,4.826-10.779,10.779c0,5.953,4.826,10.779,10.779,10.779
		h0.539c5.953,0,10.779-4.826,10.779-10.779C325.524,430.594,320.698,425.768,314.745,425.768z"/>
	<path style="fill:#231F20;" d="M70.063,195.735c5.953,0,10.779-4.826,10.779-10.779c0-5.953-4.826-10.779-10.779-10.779H10.779
		C4.826,174.177,0,179.003,0,184.956c0,5.953,4.826,10.779,10.779,10.779H70.063z"/>
	<path style="fill:#231F20;" d="M75.427,233.461c-2.977-5.156-9.57-6.922-14.724-3.945L9.36,259.158
		c-5.156,2.976-6.922,9.568-3.945,14.724c1.996,3.458,5.619,5.391,9.344,5.391c1.828,0,3.682-0.466,5.38-1.445l51.342-29.642
		C76.637,245.209,78.404,238.617,75.427,233.461z"/>
	<path style="fill:#231F20;" d="M9.36,110.754l51.342,29.642c1.698,0.98,3.551,1.445,5.38,1.445c3.725,0,7.348-1.933,9.344-5.391
		c2.977-5.156,1.21-11.748-3.945-14.724L20.139,92.085c-5.157-2.976-11.748-1.212-14.724,3.945
		C2.438,101.185,4.205,107.778,9.36,110.754z"/>
	<path style="fill:#231F20;" d="M501.221,174.177h-59.284c-5.953,0-10.779,4.826-10.779,10.779c0,5.953,4.826,10.779,10.779,10.779
		h59.284c5.953,0,10.779-4.826,10.779-10.779C512,179.003,507.174,174.177,501.221,174.177z"/>
	<path style="fill:#231F20;" d="M502.64,259.158l-51.342-29.642c-5.157-2.977-11.748-1.212-14.724,3.945
		c-2.977,5.156-1.21,11.748,3.945,14.724l51.342,29.642c1.698,0.98,3.551,1.445,5.38,1.445c3.725,0,7.348-1.933,9.344-5.391
		C509.562,268.727,507.795,262.134,502.64,259.158z"/>
	<path style="fill:#231F20;" d="M445.917,141.841c1.828,0,3.682-0.466,5.38-1.445l51.342-29.642
		c5.156-2.976,6.922-9.568,3.945-14.724c-2.977-5.156-9.568-6.923-14.724-3.945l-51.342,29.642
		c-5.156,2.976-6.922,9.568-3.945,14.724C438.569,139.909,442.192,141.841,445.917,141.841z"/>
</g>
</svg>