<svg width="450" height="450" viewBox="0 0 450 450" fill="none" xmlns="http://www.w3.org/2000/svg">
<path d="M450 393.571H0V400.714H450V393.571Z" fill="#603E42"/>
<path d="M225 112.857C238.571 112.857 250 101.429 250 87.8572C250 74.2858 238.571 62.8572 225 62.8572C211.429 62.8572 200 74.2858 200 87.8572C200 101.429 211.429 112.857 225 112.857ZM225 70C235 70 242.857 77.8572 242.857 87.8572C242.857 97.8572 235 105.714 225 105.714C215 105.714 207.143 97.8572 207.143 87.8572C207.143 77.8572 215 70 225 70Z" fill="#757D82"/>
<path d="M367.143 120H196.429C191.429 120 187.143 122.143 183.571 125L103.571 205.714C97.1428 212.143 96.4285 222.143 101.429 229.286C104.286 233.571 109.286 236.429 114.286 236.429C115 236.429 115 236.429 115.714 236.429C120.714 236.429 125 234.286 128.571 231.429L192.857 167.143V224.286V231.429L152.857 271.429H89.2856C79.9999 271.429 72.1428 277.857 70.7142 286.429C69.9999 291.429 71.4285 297.143 74.9999 300.714C78.5714 304.286 83.5714 307.143 88.5714 307.143H160C165 307.143 169.286 305 172.857 302.143L217.857 257.143H227.143L248.571 308.571V375.714C248.571 385 255 392.857 263.571 394.286C264.286 394.286 265.714 394.286 266.429 394.286C270.714 394.286 275 392.857 277.857 390C282.143 386.429 284.286 381.429 284.286 376.429V305C284.286 302.857 283.571 300 282.857 297.857L272.857 273.571L257.143 234.286V223.571V155.714H367.857C372.857 155.714 377.857 153.571 381.429 149.286C385 145 386.429 140 385.714 135C384.286 126.429 376.429 120 367.143 120ZM277.143 375.714C277.143 378.571 275.714 382.143 273.571 383.571C271.429 385.714 267.857 386.429 265 385.714C260 385 256.429 380 256.429 374.286V306.429C256.429 305.714 256.429 305.714 256.429 305L233.571 250.714C232.857 249.286 231.429 248.571 230 248.571H217.143C216.429 248.571 215 249.286 214.286 249.286L167.857 295.714C165.714 297.857 162.857 298.571 160 298.571H88.5714C85.7142 298.571 82.1428 297.143 80.7142 295C78.5714 292.857 77.8571 289.286 78.5714 286.429C79.2856 281.429 84.2856 277.857 89.9999 277.857H155C155.714 277.857 157.143 277.143 157.857 277.143L200 235C200.714 234.286 200.714 233.571 200.714 232.143V227.143H250.714V235C250.714 235.714 250.714 235.714 250.714 236.429L277.143 300C277.857 301.429 277.857 302.857 277.857 304.286V375.714H277.143ZM375.714 145C373.571 147.143 370.714 148.571 367.857 148.571H253.571C251.429 148.571 250 150 250 152.143V220H200V157.857C200 156.429 199.286 155 197.857 154.286C196.429 153.571 195 154.286 194.286 155L123.571 225.714C121.429 227.857 118.571 229.286 115 228.571C112.143 228.571 109.286 226.429 107.143 224.286C104.286 220 105 214.286 108.571 210L188.571 130C190.714 127.857 193.571 127.143 196.429 127.143H367.143C372.857 127.143 377.857 130.714 378.571 135.714C378.571 139.286 377.857 142.143 375.714 145Z" fill="#757D82"/>
<path d="M160 343.571C146.429 343.571 135 355 135 368.571C135 382.143 146.429 393.571 160 393.571C173.571 393.571 185 382.143 185 368.571C185 355 173.571 343.571 160 343.571ZM160 386.428C150 386.428 142.143 378.571 142.143 368.571C142.143 358.571 150 350.714 160 350.714C170 350.714 177.857 358.571 177.857 368.571C177.857 378.571 170 386.428 160 386.428Z" fill="#DD4255"/>
</svg>
