<svg width="100" height="132" viewBox="0 0 100 132" fill="none" xmlns="http://www.w3.org/2000/svg">
<path d="M33.714 49.9842C35.9997 49.9842 38.2854 49.2223 40.0632 47.4446C43.6188 43.889 43.6188 38.3017 40.0632 35.0001C36.7616 31.6985 30.9204 31.6985 27.6188 35.0001C25.841 36.7779 25.0791 38.8096 25.0791 41.3493C25.0791 43.635 26.095 45.9208 27.6188 47.6985C29.1426 48.9684 31.4283 49.9842 33.714 49.9842ZM29.1426 36.5239C30.4124 35.2541 31.9362 34.7461 33.714 34.7461C35.4918 34.7461 37.0156 35.5081 38.2855 36.5239C40.8251 39.0636 40.8251 43.1271 38.2855 45.4128C35.7458 47.9525 31.6823 47.9525 29.3966 45.4128C28.1267 44.143 27.6188 42.6192 27.6188 40.8414C27.3648 39.3176 27.8728 37.7938 29.1426 36.5239Z" fill="black"/>
<path d="M70.5398 11.127C71.8097 11.127 73.0795 10.6191 74.0954 9.60318C76.1271 7.57143 76.1271 4.52382 74.0954 2.49207C72.0636 0.460325 68.762 0.460325 66.9843 2.49207C64.9525 4.52382 64.9525 7.57143 66.9843 9.60318C67.7462 10.6191 69.016 11.127 70.5398 11.127ZM68.762 4.26985C69.27 3.76191 69.7779 3.50794 70.5398 3.50794C71.3017 3.50794 71.8097 3.76191 72.3176 4.26985C73.3335 5.28572 73.3335 6.80953 72.3176 7.8254C71.3017 8.84128 69.7779 8.84128 68.762 7.8254C67.7462 6.80953 67.7462 5.28572 68.762 4.26985Z" fill="#FCB019"/>
<path d="M11.619 54.5556V44.1429C16.6984 43.381 20.5079 38.0476 20.5079 31.6984C20.5079 24.5873 15.9365 19 10.3492 19C4.76186 19 0.19043 24.5873 0.19043 31.6984C0.19043 38.0476 3.99995 43.381 9.07932 44.1429V54.5556C9.58726 54.5556 9.84122 54.3016 10.3492 54.3016C10.8571 54.3016 11.1111 54.5556 11.619 54.5556ZM2.73011 31.6984C2.73011 26.1111 6.0317 21.5397 10.3492 21.5397C14.6666 21.5397 17.9682 26.1111 17.9682 31.6984C17.9682 37.2857 14.6666 41.8571 10.3492 41.8571C6.0317 41.8571 2.73011 37.2857 2.73011 31.6984Z" fill="#EE2B2F"/>
<path d="M11.6188 67.508V67.0001C11.3648 67.0001 11.3648 67.0001 11.1108 67.0001C10.8569 67.0001 10.6029 67.0001 10.3489 67.0001C9.84101 67.0001 9.58704 67.0001 9.0791 66.7461V68.2699V70.8096C9.0791 71.5715 9.58704 72.0794 10.3489 72.0794C11.1108 72.0794 11.6188 71.5715 11.6188 70.8096V67.508Z" fill="#EE2B2F"/>
<path d="M75.873 67L58.8571 49.9841L86.7936 22.0476C88.0635 20.7777 88.5714 19.2539 88.5714 17.4761C88.5714 15.6984 87.8095 14.1746 86.7936 12.9047C84.5079 10.619 80.1905 10.619 77.9048 12.9047L24.8254 66.2381L14.9206 56.3333C14.9206 56.3333 14.6667 56.3333 14.6667 56.0793C13.9048 55.3174 12.8889 54.8095 11.619 54.5555C11.1111 54.5555 10.8571 54.3015 10.3492 54.3015C9.84127 54.3015 9.5873 54.3015 9.07937 54.5555C7.80952 54.8095 6.79365 55.3174 6.03174 56.0793C6.03174 56.0793 6.03175 56.0793 5.77778 56.3333C5.26984 56.8412 4.7619 57.6031 4.50794 58.365C4.25397 58.619 4.25397 59.1269 4.25397 59.3809V59.6349C4.25397 60.1428 4 60.3968 4 60.9047C4 61.4127 4 61.6666 4.25397 62.1746V62.4285C4.25397 62.6825 4.50794 63.1904 4.50794 63.4444C4.7619 63.9523 5.01587 64.2063 5.26984 64.7142L5.52381 64.9682C5.77778 65.2222 5.77778 65.2222 6.03174 65.4761L9.33333 68.7777V67.2539C9.84127 67.2539 10.0952 67.5079 10.6032 67.5079C10.8571 67.5079 11.1111 67.5079 11.3651 67.5079C11.619 67.5079 11.619 67.5079 11.873 67.5079C14.4127 67 16.4444 64.7142 16.9524 62.1746L24.0635 69.2857C24.5714 69.7936 25.3333 69.7936 25.8413 69.2857L79.4286 14.9365C80.9524 13.4127 83.4921 13.4127 84.7619 14.9365C85.5238 15.6984 85.7778 16.7142 85.7778 17.7301C85.7778 18.746 85.2698 19.7619 84.7619 20.5238L56.0635 49.2222C55.5556 49.7301 55.5556 50.492 56.0635 51L73.0794 68.0158L60.6349 80.4603L43.619 63.4444C43.3651 63.1904 42.8571 63.1904 42.6032 63.1904C42.3492 63.1904 41.8413 63.1904 41.5873 63.4444L27.1111 77.9206C25.5873 79.4444 23.3016 79.4444 21.7778 77.9206L11.3651 67.5079V71.0634L20 79.6984C22.5397 82.2381 26.6032 82.2381 28.8889 79.6984L42.3492 66.2381L59.3651 83.2539L61.1429 85.0317V105.095L45.1429 121.095C42.6032 123.635 42.6032 127.698 45.1429 129.984C46.4127 131.254 47.9365 131.762 49.7143 131.762C51.4921 131.762 53.0159 131.254 54.2857 129.984L72.3175 111.952C73.5873 110.682 74.0952 109.159 74.0952 107.381V84.5238L74.8571 83.7619L86.5397 95.4444V118.048C86.5397 121.349 88.8254 124.143 91.873 124.651C93.6508 124.905 95.6825 124.397 96.9524 123.127C98.4762 121.857 99.2381 120.079 99.2381 118.302V92.9047C99.2381 91.1269 98.4762 89.6031 97.4603 88.3333L75.873 67ZM11.619 64.4603C11.1111 64.7142 10.8571 64.7142 10.3492 64.7142C9.84127 64.7142 9.5873 64.7142 9.07937 64.4603C8.31746 64.2063 7.55555 63.6984 7.30159 62.9365C7.30159 62.6825 7.04762 62.6825 7.04762 62.4285C7.04762 62.1746 6.79365 62.1746 6.79365 61.9206C6.79365 61.9206 6.79365 61.9206 6.79365 61.6666C6.79365 61.4127 6.79365 61.1587 6.79365 60.9047C6.79365 60.6508 6.79365 60.3968 6.79365 60.1428C6.79365 60.1428 6.79365 60.1428 6.79365 59.8888C6.79365 59.6349 6.79365 59.3809 7.04762 59.3809C7.04762 59.1269 7.30159 58.873 7.30159 58.873C7.55555 58.619 7.55556 58.619 7.80952 58.365C8.31746 57.8571 8.57143 57.6031 9.33333 57.6031C9.84127 57.3492 10.0952 57.3492 10.6032 57.3492C11.1111 57.3492 11.3651 57.3492 11.873 57.6031C12.381 57.8571 12.8889 58.1111 13.3968 58.365C14.1587 59.1269 14.4127 59.8888 14.4127 61.1587C14.1587 62.4285 13.1429 63.9523 11.619 64.4603ZM96.6984 118.556C96.6984 119.571 96.1905 120.841 95.4286 121.349C94.6667 122.111 93.3968 122.365 92.381 122.111C90.6032 121.857 89.3333 120.079 89.3333 118.048V94.9365C89.3333 94.6825 89.0794 94.1746 89.0794 93.9206L76.127 80.9682C75.619 80.4603 74.8571 80.4603 74.3492 80.9682L72.0635 83.5079C71.8095 83.7619 71.8095 84.0158 71.8095 84.5238V107.889C71.8095 108.905 71.3016 109.921 70.7937 110.682L52.7619 128.714C51.2381 130.238 48.9524 130.238 47.4286 128.714C45.9048 127.19 45.9048 124.905 47.4286 123.381L63.9365 106.873C64.1905 106.619 64.1905 106.365 64.1905 105.857V84.7777C64.1905 84.5238 63.9365 84.0158 63.9365 83.7619L62.6667 82.492L75.1111 70.0476L95.6825 90.619C96.4444 91.3809 96.6984 92.3968 96.6984 93.4127V118.556V118.556Z" fill="black"/>
</svg>
