<svg width="450" height="450" viewBox="0 0 450 450" fill="none" xmlns="http://www.w3.org/2000/svg">
<path d="M226.428 114.286C240 114.286 251.428 102.857 251.428 89.2856C251.428 75.7142 240.714 64.2856 226.428 64.2856C212.143 64.2856 201.428 75.7142 201.428 89.2856C201.428 102.857 212.857 114.286 226.428 114.286ZM226.428 71.4285C236.428 71.4285 244.285 79.2856 244.285 89.2856C244.285 99.2856 236.428 107.143 226.428 107.143C216.428 107.143 208.571 99.2856 208.571 89.2856C208.571 79.2856 216.428 71.4285 226.428 71.4285Z" fill="black"/>
<path d="M369.286 121.429H158.571V82.1429C158.571 80.7143 158.571 80 157.857 78.5715C155.714 80.7143 153.571 82.1429 151.428 83.5715V125.714C151.428 127.857 152.857 129.286 155 129.286H369.286C375 129.286 380 134.286 380 140C380 145.714 375 150 369.286 150H255C252.857 150 251.428 151.429 251.428 153.571V221.429H201.428V153.571C201.428 151.429 200 150 197.857 150H140.714C135 150 130 145 130 139.286V82.8572C127.143 81.4286 125 80 123.571 77.8572C123.571 79.2857 122.857 80 122.857 81.4286V138.571C122.857 148.571 130.714 156.429 140.714 156.429H194.286V224.286V231.429L98.5713 327.857C94.9999 331.429 93.5713 335.714 93.5713 340.714C93.5713 345.714 95.7141 350 98.5713 353.571C102.143 357.143 106.428 358.571 111.428 358.571C116.428 358.571 120.714 357.143 124.286 353.571L220 257.143H229.286L245 295.714L195.714 316.429C186.428 320 182.143 330.714 185.714 340C189.286 349.286 200 353.571 209.286 350L275 322.857C279.286 320.714 282.857 317.857 285 312.857C287.143 308.571 287.143 303.571 285 299.286L258.571 235.714V225V157.143H369.286C379.286 157.143 387.143 149.286 387.143 139.286C387.143 129.286 379.286 121.429 369.286 121.429ZM277.857 301.429C279.286 304.286 279.286 307.143 277.857 309.286C276.428 311.429 275 314.286 272.143 315L206.428 342.857C200.714 345 195 342.857 192.143 337.143C190 331.429 192.143 325.714 197.857 322.857L250.714 300.714C251.428 300 252.143 300 252.857 298.571C253.571 297.143 253.571 296.429 252.857 295.714L234.286 251.429C233.571 250 232.143 249.286 230.714 249.286H217.857C217.143 249.286 215.714 250 215 250L118.571 347.857C114.286 352.143 107.857 352.143 103.571 347.857C101.428 345.714 100.714 342.857 100.714 340C100.714 337.143 102.143 334.286 103.571 332.143L200.714 235C201.428 234.286 201.428 233.571 201.428 232.143V228.571H251.428V236.429C251.428 237.143 251.428 237.143 251.428 237.857L277.857 301.429Z" fill="black"/>
<path d="M140.714 85.7143C144.286 85.7143 147.857 85 151.429 82.8571C154.286 81.4286 156.429 80 157.857 77.8571C162.143 73.5714 165.714 67.1429 165.714 60C165.714 46.4286 154.286 35 140.714 35C127.143 35 115.714 46.4286 115.714 60C115.714 67.1429 118.571 73.5714 123.571 77.8571C125.714 80 127.857 81.4286 130 82.8571C133.571 85 137.143 85.7143 140.714 85.7143ZM140.714 42.8571C150.714 42.8571 158.571 50.7143 158.571 60.7143C158.571 65 157.143 68.5714 155 71.4286C153.571 73.5714 151.429 75 150 76.4286C147.143 77.8571 144.286 78.5714 141.429 78.5714C138.571 78.5714 135 77.8571 132.857 76.4286C130.714 75 129.286 73.5714 127.857 71.4286C125.714 68.5714 124.286 65 124.286 60.7143C122.857 51.4286 130.714 42.8571 140.714 42.8571Z" fill="#FCB019"/>
</svg>
